<svg width="14" height="14" viewBox="0 0 14 14" fill="none" xmlns="http://www.w3.org/2000/svg">
<g clip-path="url(#clip0_2178:11769)">
<path fill-rule="evenodd" clip-rule="evenodd" d="M6.4 7.6V1.2C6.12907 1.2 5.86208 1.21683 5.6 1.24951C2.44295 1.64319 0 4.33631 0 7.6C0 11.1346 2.86538 14 6.4 14C9.66369 14 12.3568 11.557 12.7505 8.4C12.7832 8.13793 12.8 7.87093 12.8 7.6H6.4ZM11.9433 8.4H5.6V2.05671C2.88616 2.4449 0.8 4.77882 0.8 7.6C0.8 10.6928 3.30721 13.2 6.4 13.2C9.22118 13.2 11.5551 11.1138 11.9433 8.4Z" fill="#85909B"/>
<path fill-rule="evenodd" clip-rule="evenodd" d="M13.1433 5.6C12.7925 3.14745 10.8526 1.20752 8.4 0.856711V5.6H13.1433ZM13.9505 5.6C13.5895 2.70503 11.295 0.410513 8.4 0.049515C8.13793 0.0168347 7.87093 0 7.6 0V6.4H14C14 6.12907 13.9832 5.86208 13.9505 5.6Z" fill="#85909B"/>
</g>
<defs>
<clipPath id="clip0_2178:11769">
<rect width="14" height="14" fill="white"/>
</clipPath>
</defs>
</svg>
