<svg width="14" height="14" viewBox="0 0 14 14" fill="none" xmlns="http://www.w3.org/2000/svg">
<path d="M2.84375 3.5C3.20619 3.5 3.5 3.20619 3.5 2.84375C3.5 2.48131 3.20619 2.1875 2.84375 2.1875C2.48131 2.1875 2.1875 2.48131 2.1875 2.84375C2.1875 3.20619 2.48131 3.5 2.84375 3.5Z" fill="#85909B"/>
<path d="M5.6875 2.84375C5.6875 3.20619 5.39369 3.5 5.03125 3.5C4.66881 3.5 4.375 3.20619 4.375 2.84375C4.375 2.48131 4.66881 2.1875 5.03125 2.1875C5.39369 2.1875 5.6875 2.48131 5.6875 2.84375Z" fill="#85909B"/>
<path d="M7.21875 3.5C7.58119 3.5 7.875 3.20619 7.875 2.84375C7.875 2.48131 7.58119 2.1875 7.21875 2.1875C6.85631 2.1875 6.5625 2.48131 6.5625 2.84375C6.5625 3.20619 6.85631 3.5 7.21875 3.5Z" fill="#85909B"/>
<path fill-rule="evenodd" clip-rule="evenodd" d="M1.75 0C0.783502 0 0 0.783502 0 1.75V12.25C0 13.2165 0.783502 14 1.75 14H12.25C13.2165 14 14 13.2165 14 12.25V1.75C14 0.783502 13.2165 0 12.25 0H1.75ZM12.25 0.875H1.75C1.26675 0.875 0.875 1.26675 0.875 1.75V4.375H13.125V1.75C13.125 1.26675 12.7332 0.875 12.25 0.875ZM0.875 12.25V5.25H13.125V12.25C13.125 12.7332 12.7332 13.125 12.25 13.125H1.75C1.26675 13.125 0.875 12.7332 0.875 12.25Z" fill="#85909B"/>
</svg>
