<svg width="14" height="14" viewBox="0 0 14 14" fill="none" xmlns="http://www.w3.org/2000/svg">
<path fill-rule="evenodd" clip-rule="evenodd" d="M10 7C10 8.65685 8.65685 10 7 10C5.34315 10 4 8.65685 4 7C4 5.34315 5.34315 4 7 4C8.65685 4 10 5.34315 10 7ZM8.96875 7C8.96875 8.08731 8.08731 8.96875 7 8.96875C5.91269 8.96875 5.03125 8.08731 5.03125 7C5.03125 5.91269 5.91269 5.03125 7 5.03125C8.08731 5.03125 8.96875 5.91269 8.96875 7Z" fill="#85909B"/>
<path fill-rule="evenodd" clip-rule="evenodd" d="M5.80246 0C5.37557 0 4.96616 0.169582 4.6643 0.471441C4.36244 0.773299 4.19286 1.18271 4.19286 1.6096V2.3846C4.19284 2.4021 4.18822 2.41929 4.17946 2.43443C4.17069 2.4496 4.15807 2.46219 4.14288 2.47093L4.05176 2.5236C4.03603 2.53236 4.01832 2.53696 4.00031 2.53696C3.98236 2.53696 3.96471 2.53239 3.94903 2.52369L3.30793 2.15181C3.12484 2.046 2.92213 1.97697 2.71248 1.94931C2.50284 1.92166 2.28979 1.93558 2.08553 1.99029C1.88127 2.045 1.68979 2.13942 1.52203 2.26816C1.35427 2.3969 1.21345 2.55758 1.10775 2.74073L0.21656 4.28655C0.00338432 4.65604 -0.0544046 5.09504 0.0558941 5.50711C0.166208 5.91924 0.435713 6.27077 0.805039 6.48435L1.40269 6.82979C1.43206 6.84716 1.45633 6.87198 1.47303 6.90175C1.48987 6.93176 1.49842 6.96571 1.49778 7.00012L1.49771 7.00419L1.49772 7.00827C1.49776 7.04065 1.48925 7.07246 1.47303 7.10048C1.45681 7.12851 1.43347 7.15174 1.40538 7.16783L1.40369 7.1688L0.805077 7.5154C0.622077 7.62101 0.461659 7.76161 0.332975 7.92919C0.204225 8.09685 0.109763 8.28823 0.0549829 8.49241C0.000202842 8.69658 -0.0138222 8.90955 0.0137087 9.11914C0.0412396 9.32873 0.109876 9.53101 0.215526 9.71411L1.10721 11.2579C1.21274 11.4412 1.35335 11.6018 1.52101 11.7307C1.68877 11.8597 1.88032 11.9543 2.08468 12.0092C2.28905 12.0641 2.50223 12.0781 2.71203 12.0505C2.92182 12.0229 3.12422 11.9541 3.30744 11.8483L3.90997 11.4999C3.93887 11.4838 3.97143 11.4756 4.00448 11.476C4.03804 11.4763 4.0709 11.4856 4.09976 11.5027L4.10365 11.505C4.13129 11.521 4.15424 11.5439 4.17021 11.5716C4.18614 11.5992 4.19457 11.6307 4.19466 11.6625L4.19465 12.3902C4.19465 12.8171 4.36424 13.2265 4.6661 13.5283C4.96795 13.8302 5.37736 13.9998 5.80425 13.9998H8.19994C8.62683 13.9998 9.03624 13.8302 9.3381 13.5283C9.63995 13.2265 9.80954 12.8171 9.80954 12.3902V11.6647C9.81042 11.6322 9.81952 11.6004 9.836 11.5724C9.85287 11.5437 9.87691 11.5198 9.90574 11.5032C9.93459 11.4865 9.96725 11.4776 10.0006 11.4774C10.0331 11.4771 10.0652 11.4851 10.0938 11.5006L10.6947 11.8473C11.0644 12.0606 11.5037 12.1185 11.916 12.008C12.3283 11.8975 12.6799 11.6277 12.8933 11.258L13.7846 9.71395C13.8902 9.53085 13.9588 9.32873 13.9863 9.11914C14.0138 8.90955 13.9998 8.69658 13.945 8.49241C13.8902 8.28823 13.7958 8.09685 13.667 7.92919C13.5383 7.7616 13.3777 7.62085 13.1946 7.51524L12.597 7.16919C12.5676 7.15203 12.5434 7.12735 12.5267 7.0977C12.51 7.06797 12.5015 7.03431 12.5022 7.00021L12.5023 6.99657L12.5023 6.99294C12.5024 6.96014 12.511 6.92795 12.5275 6.89957C12.5439 6.87119 12.5675 6.84762 12.5959 6.83123L13.1946 6.48453C13.3776 6.37894 13.5384 6.23811 13.667 6.07058C13.7958 5.90292 13.8902 5.71154 13.945 5.50736C13.9998 5.30319 14.0138 5.09022 13.9863 4.88063C13.9588 4.67104 13.8901 4.46866 13.7844 4.28556L12.8923 2.74201C12.7867 2.55882 12.6461 2.39823 12.4785 2.2694C12.3109 2.14057 12.1195 2.04603 11.9153 1.99117C11.7111 1.93632 11.4981 1.92222 11.2885 1.94969C11.0789 1.97717 10.8766 2.04575 10.6934 2.15137L10.0916 2.49876C10.063 2.51437 10.0309 2.52244 9.99829 2.52221C9.96503 2.52198 9.93239 2.5131 9.90359 2.49645C9.87478 2.47981 9.8508 2.45596 9.83399 2.42725C9.8175 2.39908 9.80847 2.36718 9.80774 2.33457V1.6096C9.80774 1.18271 9.63816 0.773299 9.3363 0.471441C9.03444 0.169582 8.62503 0 8.19814 0H5.80246ZM5.24661 1.05375C5.39403 0.906335 5.59398 0.823516 5.80246 0.823516H8.19814C8.40662 0.823516 8.60657 0.906335 8.75398 1.05375C8.90141 1.20117 8.98422 1.40112 8.98422 1.6096L8.98419 2.33789L8.98426 2.34309C8.98648 2.51907 9.0344 2.69145 9.12332 2.84333C9.21224 2.99521 9.33911 3.12137 9.49148 3.20944C9.64386 3.29751 9.8165 3.34447 9.99249 3.34571C10.1685 3.34695 10.3418 3.30246 10.4954 3.21654L11.105 2.86468C11.1944 2.8131 11.2931 2.77964 11.3955 2.76623C11.4979 2.75281 11.6019 2.75969 11.7016 2.78648C11.8013 2.81327 11.8948 2.85945 11.9767 2.92236C12.0585 2.98528 12.1272 3.06371 12.1788 3.15317L13.0713 4.69739C13.1229 4.78681 13.1563 4.88552 13.1698 4.98788C13.1832 5.09024 13.1764 5.19425 13.1496 5.29396C13.1229 5.39367 13.0767 5.48714 13.0139 5.56902C12.951 5.6509 12.8726 5.7196 12.7832 5.77118L12.1839 6.11816C12.0307 6.20669 11.9033 6.3339 11.8147 6.48709C11.7266 6.6393 11.6798 6.81184 11.6788 6.98766C11.6759 7.16725 11.7207 7.34442 11.8087 7.50106C11.8973 7.65876 12.0265 7.78991 12.1828 7.88095L12.7832 8.22859C12.8726 8.28017 12.951 8.34887 13.0139 8.43075C13.0767 8.51263 13.1229 8.6061 13.1496 8.70581C13.1764 8.80552 13.1832 8.90953 13.1698 9.01189C13.1563 9.11423 13.1228 9.21297 13.0713 9.30238L12.1801 10.8463C12.0759 11.0268 11.9042 11.1586 11.7028 11.2125C11.5015 11.2665 11.2868 11.2382 11.1062 11.1339L10.4992 10.7838L10.4966 10.7823C10.3431 10.6968 10.17 10.6525 9.99428 10.6539C9.81856 10.6552 9.64618 10.7021 9.494 10.79C9.34181 10.8778 9.21501 11.0037 9.12599 11.1552C9.03696 11.3067 8.98875 11.4787 8.98607 11.6544L8.98602 11.6575V12.3902C8.98602 12.5987 8.9032 12.7986 8.75578 12.946C8.60836 13.0934 8.40842 13.1763 8.19994 13.1763H5.80425C5.59577 13.1763 5.39583 13.0934 5.24841 12.946C5.10099 12.7986 5.01817 12.5987 5.01817 12.3902V11.6619C5.0179 11.4858 4.9714 11.3122 4.88332 11.1597C4.7956 11.0078 4.66971 10.8816 4.51815 10.7934C4.36518 10.703 4.19114 10.6544 4.01347 10.6525C3.83503 10.6506 3.65923 10.6957 3.50382 10.7834L2.89532 11.1353C2.80584 11.187 2.70705 11.2205 2.60459 11.234C2.50213 11.2475 2.39802 11.2406 2.29821 11.2138C2.1984 11.187 2.10486 11.1408 2.02293 11.0779C1.941 11.0149 1.87229 10.9363 1.82074 10.8468L0.928641 9.30223C0.877095 9.21285 0.843649 9.11419 0.830211 9.01189C0.816766 8.90953 0.823615 8.80552 0.850368 8.70581C0.877121 8.6061 0.923254 8.51263 0.986132 8.43075C1.04901 8.34887 1.1274 8.28017 1.21683 8.22859L1.81465 7.88245L1.81555 7.88193C1.96929 7.79367 2.097 7.6664 2.1858 7.51296C2.27408 7.36041 2.32077 7.18738 2.32123 7.01117C2.3238 6.83191 2.27895 6.65512 2.1912 6.49874C2.10278 6.34117 1.97398 6.21 1.81806 6.1187L1.81607 6.11754L1.21714 5.77137C1.03682 5.66705 0.905271 5.49542 0.851405 5.29418C0.797531 5.09291 0.825857 4.87833 0.930002 4.69786L1.8212 3.15205C1.8728 3.06266 1.94151 2.98431 2.02339 2.92147C2.10532 2.8586 2.19883 2.81249 2.29859 2.78577C2.39835 2.75905 2.50239 2.75225 2.60478 2.76576C2.70707 2.77925 2.80594 2.81289 2.89529 2.86449L3.53795 3.23729L3.54107 3.23907C3.68104 3.31864 3.83929 3.36048 4.00031 3.36048C4.16132 3.36048 4.31957 3.31865 4.45955 3.23908L4.55367 3.18467C4.69409 3.10375 4.81118 2.98703 4.89233 2.84674C4.97356 2.7063 5.01634 2.54685 5.01637 2.3846V1.6096C5.01637 1.40112 5.09919 1.20117 5.24661 1.05375Z" fill="#85909B"/>
</svg>
