<svg width="14" height="14" viewBox="0 0 14 14" fill="none" xmlns="http://www.w3.org/2000/svg">
<path d="M6.99272 1.00329e-05C5.9218 -0.000687909 4.86501 0.244624 3.90378 0.717042C2.94256 1.18946 2.10255 1.87637 1.4485 2.72486C0.794453 3.57334 0.343812 4.56073 0.131306 5.61096C-0.0812004 6.66119 -0.0498999 7.74621 0.222796 8.78243C0.495492 9.81864 1.0023 10.7784 1.70418 11.5877C2.40605 12.397 3.28425 13.0343 4.27111 13.4505C5.25797 13.8666 6.32714 14.0505 7.39624 13.988C8.46534 13.9255 9.50583 13.6183 10.4375 13.09L13.068 13.9671C13.1395 13.9896 13.2141 14.0008 13.2891 14C13.3999 13.9999 13.5091 13.9735 13.6077 13.9229C13.7063 13.8723 13.7915 13.7991 13.8562 13.7091C13.921 13.6192 13.9635 13.5151 13.9802 13.4055C13.9969 13.2959 13.9873 13.1839 13.9523 13.0788L13.0792 10.4468C13.6839 9.38241 13.9987 8.17783 13.992 6.95353C13.9854 5.72923 13.6575 4.52815 13.0413 3.47043C12.425 2.41272 11.542 1.53547 10.4805 0.926431C9.41904 0.317396 8.21634 -0.0020638 6.99272 1.00329e-05ZM11.6471 10.5847L12.183 12.1947L10.574 11.6585C10.4758 11.625 10.3714 11.6139 10.2684 11.626C10.1653 11.6381 10.0663 11.6731 9.9786 11.7285C8.81178 12.4673 7.41363 12.7497 6.05172 12.5216C4.68981 12.2935 3.45981 11.5709 2.59711 10.492C1.73441 9.41322 1.29961 8.05397 1.37592 6.67444C1.45223 5.2949 2.03429 3.99197 3.0107 3.01499C3.98712 2.03802 5.28931 1.45563 6.66806 1.37927C8.04681 1.30292 9.40528 1.73797 10.4835 2.60116C11.5617 3.46436 12.2839 4.69506 12.5119 6.05775C12.7399 7.42043 12.4576 8.81939 11.7192 9.98688C11.6635 10.0749 11.6281 10.1742 11.6156 10.2776C11.6032 10.381 11.6139 10.4859 11.6471 10.5847ZM10.4907 5.24999C10.4907 5.43564 10.417 5.61369 10.2858 5.74496C10.1546 5.87624 9.97666 5.94999 9.79111 5.94999H4.19433C4.00879 5.94999 3.83084 5.87624 3.69964 5.74496C3.56844 5.61369 3.49473 5.43564 3.49473 5.24999C3.49473 5.06434 3.56844 4.88629 3.69964 4.75502C3.83084 4.62374 4.00879 4.54999 4.19433 4.54999H9.79111C9.97666 4.54999 10.1546 4.62374 10.2858 4.75502C10.417 4.88629 10.4907 5.06434 10.4907 5.24999ZM7.69232 8.74998C7.69232 8.93563 7.61861 9.11368 7.48741 9.24495C7.35621 9.37623 7.17827 9.44998 6.99272 9.44998H4.19433C4.00879 9.44998 3.83084 9.37623 3.69964 9.24495C3.56844 9.11368 3.49473 8.93563 3.49473 8.74998C3.49473 8.56433 3.56844 8.38628 3.69964 8.25501C3.83084 8.12373 4.00879 8.04998 4.19433 8.04998H6.99272C7.17827 8.04998 7.35621 8.12373 7.48741 8.25501C7.61861 8.38628 7.69232 8.56433 7.69232 8.74998Z" fill="#85909B"/>
</svg>
