<svg width="14" height="14" viewBox="0 0 14 14" fill="none" xmlns="http://www.w3.org/2000/svg">
<path d="M8.43182 4.45455H5.56818C5.27293 4.45488 4.98987 4.57232 4.78109 4.78109C4.57232 4.98987 4.45488 5.27293 4.45455 5.56818V8.43182C4.45488 8.72707 4.57232 9.01013 4.78109 9.21891C4.98987 9.42768 5.27293 9.54512 5.56818 9.54545H8.43182C8.72707 9.54512 9.01013 9.42768 9.21891 9.21891C9.42768 9.01013 9.54512 8.72707 9.54545 8.43182V5.56818C9.54512 5.27293 9.42768 4.98987 9.21891 4.78109C9.01013 4.57232 8.72707 4.45488 8.43182 4.45455ZM8.27273 8.27273H5.72727V5.72727H8.27273V8.27273ZM13.3636 5.09091C13.5324 5.09091 13.6943 5.02386 13.8136 4.90452C13.933 4.78518 14 4.62332 14 4.45455C14 4.28577 13.933 4.12391 13.8136 4.00457C13.6943 3.88523 13.5324 3.81818 13.3636 3.81818H12.0909V3.65909C12.0906 3.19507 11.9061 2.75014 11.578 2.42203C11.2499 2.09391 10.8049 1.90943 10.3409 1.90909H10.1818V0.636364C10.1818 0.467589 10.1148 0.305728 9.99543 0.186387C9.87609 0.0670452 9.71423 0 9.54545 0C9.37668 0 9.21482 0.0670452 9.09548 0.186387C8.97614 0.305728 8.90909 0.467589 8.90909 0.636364V1.90909H7.63636V0.636364C7.63636 0.467589 7.56932 0.305728 7.44998 0.186387C7.33064 0.0670452 7.16877 0 7 0C6.83123 0 6.66936 0.0670452 6.55002 0.186387C6.43068 0.305728 6.36364 0.467589 6.36364 0.636364V1.90909H5.09091V0.636364C5.09091 0.467589 5.02386 0.305728 4.90452 0.186387C4.78518 0.0670452 4.62332 0 4.45455 0C4.28577 0 4.12391 0.0670452 4.00457 0.186387C3.88523 0.305728 3.81818 0.467589 3.81818 0.636364V1.90909H3.65909C3.19507 1.90943 2.75014 2.09391 2.42203 2.42203C2.09391 2.75014 1.90943 3.19507 1.90909 3.65909V3.81818H0.636364C0.467589 3.81818 0.305728 3.88523 0.186387 4.00457C0.0670452 4.12391 0 4.28577 0 4.45455C0 4.62332 0.0670452 4.78518 0.186387 4.90452C0.305728 5.02386 0.467589 5.09091 0.636364 5.09091H1.90909V6.36364H0.636364C0.467589 6.36364 0.305728 6.43068 0.186387 6.55002C0.0670452 6.66936 0 6.83123 0 7C0 7.16877 0.0670452 7.33064 0.186387 7.44998C0.305728 7.56932 0.467589 7.63636 0.636364 7.63636H1.90909V8.90909H0.636364C0.467589 8.90909 0.305728 8.97614 0.186387 9.09548C0.0670452 9.21482 0 9.37668 0 9.54545C0 9.71423 0.0670452 9.87609 0.186387 9.99543C0.305728 10.1148 0.467589 10.1818 0.636364 10.1818H1.90909V10.3409C1.90943 10.8049 2.09391 11.2499 2.42203 11.578C2.75014 11.9061 3.19507 12.0906 3.65909 12.0909H3.81818V13.3636C3.81818 13.5324 3.88523 13.6943 4.00457 13.8136C4.12391 13.933 4.28577 14 4.45455 14C4.62332 14 4.78518 13.933 4.90452 13.8136C5.02386 13.6943 5.09091 13.5324 5.09091 13.3636V12.0909H6.36364V13.3636C6.36364 13.5324 6.43068 13.6943 6.55002 13.8136C6.66936 13.933 6.83123 14 7 14C7.16877 14 7.33064 13.933 7.44998 13.8136C7.56932 13.6943 7.63636 13.5324 7.63636 13.3636V12.0909H8.90909V13.3636C8.90909 13.5324 8.97614 13.6943 9.09548 13.8136C9.21482 13.933 9.37668 14 9.54545 14C9.71423 14 9.87609 13.933 9.99543 13.8136C10.1148 13.6943 10.1818 13.5324 10.1818 13.3636V12.0909H10.3409C10.8049 12.0906 11.2499 11.9061 11.578 11.578C11.9061 11.2499 12.0906 10.8049 12.0909 10.3409V10.1818H13.3636C13.5324 10.1818 13.6943 10.1148 13.8136 9.99543C13.933 9.87609 14 9.71423 14 9.54545C14 9.37668 13.933 9.21482 13.8136 9.09548C13.6943 8.97614 13.5324 8.90909 13.3636 8.90909H12.0909V7.63636H13.3636C13.5324 7.63636 13.6943 7.56932 13.8136 7.44998C13.933 7.33064 14 7.16877 14 7C14 6.83123 13.933 6.66936 13.8136 6.55002C13.6943 6.43068 13.5324 6.36364 13.3636 6.36364H12.0909V5.09091H13.3636ZM10.8182 10.3409C10.818 10.4674 10.7677 10.5887 10.6782 10.6782C10.5887 10.7677 10.4674 10.818 10.3409 10.8182H3.65909C3.53256 10.818 3.41126 10.7677 3.32179 10.6782C3.23232 10.5887 3.18199 10.4674 3.18182 10.3409V3.65909C3.18199 3.53256 3.23232 3.41126 3.32179 3.32179C3.41126 3.23232 3.53256 3.18199 3.65909 3.18182H10.3409C10.4674 3.18199 10.5887 3.23232 10.6782 3.32179C10.7677 3.41126 10.818 3.53256 10.8182 3.65909V10.3409Z" fill="#85909B"/>
</svg>
