<svg width="14" height="14" viewBox="0 0 14 14" fill="none" xmlns="http://www.w3.org/2000/svg">
<path d="M13.3636 5.09091H7.63636V3.18182C7.63636 2.6755 7.8375 2.18991 8.19552 1.83189C8.55355 1.47386 9.03913 1.27273 9.54545 1.27273C9.71423 1.27273 9.87609 1.20568 9.99543 1.08634C10.1148 0.966999 10.1818 0.805138 10.1818 0.636364C10.1818 0.467589 10.1148 0.305728 9.99543 0.186387C9.87609 0.0670452 9.71423 0 9.54545 0C8.94608 0.00182572 8.35945 0.173146 7.8533 0.494176C7.34715 0.815207 6.94213 1.27285 6.685 1.81427C6.01883 1.15847 5.14526 0.754862 4.21408 0.672658C3.28289 0.590454 2.35212 0.834776 1.58136 1.36373C1.45183 1.4415 1.35419 1.56283 1.30592 1.706C1.25766 1.84918 1.2619 2.00485 1.31791 2.14518C1.7306 3.07548 2.48792 3.80953 3.43064 4.193C3.85157 4.35173 4.29804 4.43197 4.74791 4.42973C5.29926 4.41945 5.84514 4.3184 6.36364 4.13064V5.09091H0.636364C0.467589 5.09091 0.305728 5.15795 0.186387 5.2773C0.0670452 5.39664 0 5.5585 0 5.72727V13.3636C0 13.5324 0.0670452 13.6943 0.186387 13.8136C0.305728 13.933 0.467589 14 0.636364 14H13.3636C13.5324 14 13.6943 13.933 13.8136 13.8136C13.933 13.6943 14 13.5324 14 13.3636V5.72727C14 5.5585 13.933 5.39664 13.8136 5.2773C13.6943 5.15795 13.5324 5.09091 13.3636 5.09091ZM3.89645 3.00873C3.45917 2.83787 3.07907 2.5469 2.8 2.16936C3.34279 1.93559 3.94634 1.88244 4.52164 2.01776C5.09693 2.15308 5.61351 2.46969 5.99518 2.92091C5.32788 3.19688 4.58448 3.22798 3.89645 3.00873ZM12.7273 11.5716C12.4608 11.6662 12.2188 11.819 12.0189 12.0189C11.819 12.2188 11.6662 12.4608 11.5716 12.7273H2.42836C2.33381 12.4608 2.181 12.2188 1.98109 12.0189C1.78117 11.819 1.53917 11.6662 1.27273 11.5716V7.51927C1.53917 7.42472 1.78117 7.27191 1.98109 7.072C2.181 6.87208 2.33381 6.63008 2.42836 6.36364H11.5716C11.6662 6.63008 11.819 6.87208 12.0189 7.072C12.2188 7.27191 12.4608 7.42472 12.7273 7.51927V11.5716ZM8.27273 9.54545C8.27273 9.79718 8.19808 10.0432 8.05823 10.2525C7.91838 10.4618 7.71961 10.625 7.48705 10.7213C7.25449 10.8176 6.99859 10.8428 6.7517 10.7937C6.50482 10.7446 6.27804 10.6234 6.10005 10.4454C5.92205 10.2674 5.80084 10.0406 5.75173 9.79375C5.70262 9.54687 5.72782 9.29096 5.82415 9.0584C5.92048 8.82584 6.08361 8.62707 6.29291 8.48722C6.50221 8.34737 6.74828 8.27273 7 8.27273C7.33755 8.27273 7.66127 8.40682 7.89995 8.6455C8.13864 8.88418 8.27273 9.20791 8.27273 9.54545Z" fill="#85909B"/>
</svg>
