<svg width="14" height="14" viewBox="0 0 14 14" fill="none" xmlns="http://www.w3.org/2000/svg">
<path fill-rule="evenodd" clip-rule="evenodd" d="M6.34375 7C8.03512 7 9.40625 5.62887 9.40625 3.9375C9.40625 2.24613 8.03512 0.875 6.34375 0.875C4.65238 0.875 3.28125 2.24613 3.28125 3.9375C3.28125 5.06996 3.89547 6.05999 4.81314 6.59083C5.2627 6.85088 5.78448 7 6.34375 7ZM6.34375 7.875C8.51837 7.875 10.2812 6.11212 10.2812 3.9375C10.2812 1.76288 8.51837 0 6.34375 0C4.16913 0 2.40625 1.76288 2.40625 3.9375C2.40625 5.39493 3.19808 6.66742 4.375 7.34823C4.95415 7.68326 5.62656 7.875 6.34375 7.875Z" fill="#85909B"/>
<path fill-rule="evenodd" clip-rule="evenodd" d="M5.01039 7.08526C5.08411 7.31536 4.95734 7.56166 4.72724 7.63539C3.45609 8.04267 1.09136 9.9694 0.8889 13.125H5.03125C5.27287 13.125 5.46875 13.3209 5.46875 13.5625C5.46875 13.8041 5.27287 14 5.03125 14H0.4375C0.195875 14 0 13.8041 0 13.5625C0 9.64828 2.87229 7.3109 4.46026 6.80211C4.69036 6.72839 4.93666 6.85516 5.01039 7.08526Z" fill="#85909B"/>
<path fill-rule="evenodd" clip-rule="evenodd" d="M12.1677 8.01135L8.09843 12.0806L7.94262 13.0574L8.91937 12.9016L12.9886 8.8323L12.1677 8.01135ZM12.5536 7.15986C12.3405 6.94671 11.9949 6.94671 11.7818 7.15986L7.40422 11.5374C7.32286 11.6188 7.26929 11.7237 7.25117 11.8374L7.007 13.368C6.94851 13.7347 7.2653 14.0515 7.63198 13.993L9.16263 13.7488C9.27625 13.7307 9.38124 13.6771 9.4626 13.5958L13.8401 9.21824C14.0533 9.00509 14.0533 8.6595 13.8401 8.44635L12.5536 7.15986Z" fill="#85909B"/>
</svg>
