<svg width="32" height="32" viewBox="0 0 32 32" fill="currentColor" xmlns="http://www.w3.org/2000/svg">
  <path fill-rule="evenodd" clip-rule="evenodd" d="M11.0252 0.941176C11.0252 0.421379 10.6038 0 10.084 0C9.56424 0 9.14286 0.421379 9.14286 0.941176V5.24371H8.06721C6.50781 5.24371 5.24368 6.50785 5.24368 8.06724V9.14286H0.941176C0.421379 9.14286 0 9.56424 0 10.084C0 10.6038 0.421379 11.0252 0.941176 11.0252H5.24368V15.0588H0.941176C0.421379 15.0588 0 15.4802 0 16C0 16.5198 0.421379 16.9412 0.941176 16.9412H5.24368V20.9748H0.941176C0.421379 20.9748 0 21.3961 0 21.9159C0 22.4357 0.421379 22.8571 0.941176 22.8571H5.24368V23.9328C5.24368 25.4922 6.50782 26.7563 8.06721 26.7563H9.14286V31.0588C9.14286 31.5786 9.56424 32 10.084 32C10.6038 32 11.0252 31.5786 11.0252 31.0588V26.7563H15.0588V31.0588C15.0588 31.5786 15.4802 32 16 32C16.5198 32 16.9412 31.5786 16.9412 31.0588V26.7563H20.9748V31.0588C20.9748 31.5786 21.3961 32 21.9159 32C22.4357 32 22.8571 31.5786 22.8571 31.0588V26.7563H23.9327C25.4921 26.7563 26.7563 25.4922 26.7563 23.9328L26.7563 22.8571H31.0588C31.5786 22.8571 32 22.4357 32 21.9159C32 21.3961 31.5786 20.9748 31.0588 20.9748H26.7563L26.7563 16.9412H31.0588C31.5786 16.9412 32 16.5198 32 16C32 15.4802 31.5786 15.0588 31.0588 15.0588H26.7563L26.7563 11.0252H31.0588C31.5786 11.0252 32 10.6038 32 10.084C32 9.56424 31.5786 9.14286 31.0588 9.14286H26.7563V8.06723C26.7563 6.50784 25.4921 5.24371 23.9327 5.24371L22.8571 5.24369V0.941176C22.8571 0.421379 22.4357 0 21.9159 0C21.3961 0 20.9748 0.421379 20.9748 0.941176V5.24369H16.9412V0.941176C16.9412 0.421379 16.5198 0 16 0C15.4802 0 15.0588 0.421379 15.0588 0.941176V5.24369L11.0252 5.24371V0.941176ZM16 22.4538C19.5643 22.4538 22.4538 19.5643 22.4538 16C22.4538 12.4357 19.5643 9.54621 16 9.54621C12.4357 9.54621 9.54624 12.4357 9.54624 16C9.54624 19.5643 12.4357 22.4538 16 22.4538Z" fill="currentColor"/>
</svg>
