<svg width="32" height="32" viewBox="0 0 32 32" fill="none" xmlns="http://www.w3.org/2000/svg">
    <path d="M7.27273 17.4545H1.45455C0.581818 17.4545 0 18.0364 0 18.9091V30.5455C0 31.4182 0.581818 32 1.45455 32H7.27273C8.14545 32 8.72727 31.4182 8.72727 30.5455V18.9091C8.72727 18.0364 8.14545 17.4545 7.27273 17.4545ZM30.5455 11.6364H24.7273C23.8545 11.6364 23.2727 12.2182 23.2727 13.0909V30.5455C23.2727 31.4182 23.8545 32 24.7273 32H30.5455C31.4182 32 32 31.4182 32 30.5455V13.0909C32 12.2182 31.4182 11.6364 30.5455 11.6364ZM18.9091 0H13.0909C12.2182 0 11.6364 0.581818 11.6364 1.45455V30.5455C11.6364 31.4182 12.2182 32 13.0909 32H18.9091C19.7818 32 20.3636 31.4182 20.3636 30.5455V1.45455C20.3636 0.581818 19.7818 0 18.9091 0Z" fill="white"/>
</svg>
