<svg width="29" height="32" viewBox="0 0 29 32" fill="none" xmlns="http://www.w3.org/2000/svg">
<path d="M28.8 20.1136C28.8 23.144 24.8608 25.6 20 25.6C15.1392 25.6 11.2 23.144 11.2 20.1136C11.2 17.0832 15.1392 14.6288 20 14.6288C24.8608 14.6288 28.8 17.0848 28.8 20.1136ZM20 28.5712C15.1392 28.5712 11.2 26.1152 11.2 23.0864V26.5136C11.2 29.544 15.1392 32 20 32C24.8608 32 28.8 29.544 28.8 26.5136V23.0864C28.8 26.1152 24.8608 28.5712 20 28.5712ZM8.8 10.9712C13.6608 10.9712 17.6 8.5152 17.6 5.4864C17.6 2.4576 13.6608 0 8.8 0C3.9392 0 0 2.456 0 5.4864C0 8.5168 3.9392 10.9712 8.8 10.9712ZM8.6 17.3712C9.36026 15.7805 10.5745 14.4504 12.0896 13.5488C11.0136 13.8167 9.9088 13.951 8.8 13.9488C3.9392 13.9424 0 11.4864 0 8.4576V11.8848C0 14.88 3.84 17.2976 8.6 17.3648V17.3712ZM8.8 32C9.37712 31.9996 9.95366 31.9638 10.5264 31.8928C9.52109 30.9877 8.76612 29.8388 8.3344 28.5568C3.6912 28.4048 0 26.0176 0 23.0864V26.5136C0 29.544 3.9392 32 8.8 32ZM8 24.8896V21.44C3.52 21.184 0 18.8592 0 16V19.4288C0 22.2896 3.52 24.64 8 24.8896Z" fill="white"/>
</svg>
