<svg width="32" height="32" viewBox="0 0 32 32" fill="none" xmlns="http://www.w3.org/2000/svg">
<path d="M4.89666e-05 4.81515C-0.00394075 3.93293 0.235949 3.06672 0.693299 2.31191C1.15065 1.55711 1.80772 0.942988 2.59214 0.537188C3.37657 0.131387 4.25793 -0.0503528 5.13915 0.0119818C6.02037 0.0743164 6.86727 0.378308 7.58658 0.890478C8.3059 1.40265 8.86973 2.10313 9.21597 2.91478C9.56222 3.72643 9.67745 4.61776 9.54897 5.49061C9.4205 6.36347 9.0533 7.18398 8.48782 7.8618C7.92235 8.53961 7.18052 9.04844 6.34405 9.33223C6.37159 9.42235 6.39035 9.51493 6.40005 9.60866V17.5978C6.40005 18.0216 6.23148 18.428 5.93142 18.7277C5.63136 19.0273 5.22439 19.1957 4.80005 19.1957C4.3757 19.1957 3.96874 19.0273 3.66868 18.7277C3.36862 18.428 3.20005 18.0216 3.20005 17.5978V9.60866C3.20975 9.51493 3.22851 9.42235 3.25605 9.33223C2.30867 9.0136 1.48509 8.40651 0.901072 7.59629C0.317049 6.78607 0.00194504 5.81346 4.89666e-05 4.81515ZM28.744 22.6678C28.7716 22.5776 28.7903 22.4851 28.8 22.3913V16C28.8 15.5762 28.6315 15.1698 28.3314 14.8702C28.0314 14.5705 27.6244 14.4022 27.2 14.4022C26.7757 14.4022 26.3687 14.5705 26.0687 14.8702C25.7686 15.1698 25.6 15.5762 25.6 16V22.3913C25.6098 22.4851 25.6285 22.5776 25.656 22.6678C24.5791 23.0331 23.6671 23.7685 23.0825 24.7429C22.4979 25.7172 22.2788 26.8672 22.4643 27.9879C22.6497 29.1086 23.2275 30.1271 24.0949 30.8619C24.9622 31.5967 26.0627 32 27.2 32C28.3374 32 29.4379 31.5967 30.3052 30.8619C31.1726 30.1271 31.7504 29.1086 31.9358 27.9879C32.1213 26.8672 31.9021 25.7172 31.3176 24.7429C30.733 23.7685 29.821 23.0331 28.744 22.6678ZM30.4 0.02165H24C23.5757 0.02165 23.1687 0.189993 22.8687 0.489645C22.5686 0.789297 22.4 1.19571 22.4 1.61948V3.21732H16C15.5757 3.21732 15.1687 3.38566 14.8687 3.68531C14.5686 3.98497 14.4 4.39138 14.4 4.81515C14.4 5.23892 14.5686 5.64534 14.8687 5.94499C15.1687 6.24464 15.5757 6.41299 16 6.41299H22.4V8.01082C22.4 8.43459 22.5686 8.84101 22.8687 9.14066C23.1687 9.44031 23.5757 9.60866 24 9.60866H30.4C30.8244 9.60866 31.2314 9.44031 31.5314 9.14066C31.8315 8.84101 32 8.43459 32 8.01082V1.61948C32 1.19571 31.8315 0.789297 31.5314 0.489645C31.2314 0.189993 30.8244 0.02165 30.4 0.02165ZM16 25.587H9.60005V23.9892C9.60005 23.5654 9.43148 23.159 9.13142 22.8593C8.83136 22.5597 8.42439 22.3913 8.00005 22.3913H1.60005C1.1757 22.3913 0.768736 22.5597 0.468678 22.8593C0.16862 23.159 4.89666e-05 23.5654 4.89666e-05 23.9892V30.3805C4.89666e-05 30.8043 0.16862 31.2107 0.468678 31.5103C0.768736 31.81 1.1757 31.9783 1.60005 31.9783H8.00005C8.42439 31.9783 8.83136 31.81 9.13142 31.5103C9.43148 31.2107 9.60005 30.8043 9.60005 30.3805V28.7827H16C16.4244 28.7827 16.8314 28.6143 17.1314 28.3147C17.4315 28.015 17.6 27.6086 17.6 27.1848C17.6 26.7611 17.4315 26.3546 17.1314 26.055C16.8314 25.7553 16.4244 25.587 16 25.587Z" fill="white"/>
</svg>
