<svg width="32" height="32" viewBox="0 0 32 32" fill="none" xmlns="http://www.w3.org/2000/svg">
<path d="M0 30.4C0 30.8243 0.210714 31.2313 0.585787 31.5314C0.96086 31.8314 1.46957 32 2 32H30C30.5304 32 31.0391 31.8314 31.4142 31.5314C31.7893 31.2313 32 30.8243 32 30.4V17.6H0V30.4ZM12 23.2H20C20.5304 23.2 21.0391 23.3686 21.4142 23.6686C21.7893 23.9687 22 24.3757 22 24.8C22 25.2243 21.7893 25.6313 21.4142 25.9314C21.0391 26.2314 20.5304 26.4 20 26.4H12C11.4696 26.4 10.9609 26.2314 10.5858 25.9314C10.2107 25.6313 10 25.2243 10 24.8C10 24.3757 10.2107 23.9687 10.5858 23.6686C10.9609 23.3686 11.4696 23.2 12 23.2V23.2ZM32 1.6C32 1.17565 31.7893 0.768687 31.4142 0.468629C31.0391 0.168571 30.5304 0 30 0H2C1.46957 0 0.96086 0.168571 0.585787 0.468629C0.210714 0.768687 0 1.17565 0 1.6V14.4H32V1.6ZM20 8.8H12C11.4696 8.8 10.9609 8.63143 10.5858 8.33137C10.2107 8.03131 10 7.62435 10 7.2C10 6.77565 10.2107 6.36869 10.5858 6.06863C10.9609 5.76857 11.4696 5.6 12 5.6H20C20.5304 5.6 21.0391 5.76857 21.4142 6.06863C21.7893 6.36869 22 6.77565 22 7.2C22 7.62435 21.7893 8.03131 21.4142 8.33137C21.0391 8.63143 20.5304 8.8 20 8.8Z" fill="white"/>
</svg>
