<svg width="32" height="32" viewBox="0 0 32 32" fill="currentColor" xmlns="http://www.w3.org/2000/svg">
  <path fill-rule="evenodd" clip-rule="evenodd" d="M28 0H4C1.79086 0 0 1.79086 0 4V10L32 10V4C32 1.79086 30.2091 0 28 0ZM8 5.5C8 6.32843 7.32843 7 6.5 7C5.67157 7 5 6.32843 5 5.5C5 4.67157 5.67157 4 6.5 4C7.32843 4 8 4.67157 8 5.5ZM13 5.5C13 6.32843 12.3284 7 11.5 7C10.6716 7 10 6.32843 10 5.5C10 4.67157 10.6716 4 11.5 4C12.3284 4 13 4.67157 13 5.5ZM18 5.5C18 6.32843 17.3284 7 16.5 7C15.6716 7 15 6.32843 15 5.5C15 4.67157 15.6716 4 16.5 4C17.3284 4 18 4.67157 18 5.5Z" fill="currentColor"/>
  <path d="M0 28V12L32 12V28C32 30.2091 30.2091 32 28 32H4C1.79086 32 0 30.2091 0 28Z" fill="currentColor"/>
</svg>
