<svg width="32" height="32" viewBox="0 0 32 32" fill="none" xmlns="http://www.w3.org/2000/svg">
<path d="M32 16.0034C31.9992 19.0261 31.1352 21.9858 29.5094 24.5349L32 32L24.5283 29.5116C21.5253 31.4018 17.9784 32.2407 14.4458 31.8963C10.9133 31.5518 7.5957 30.0435 5.01508 27.6089C2.43447 25.1742 0.737362 21.9513 0.19084 18.4474C-0.355683 14.9435 0.279404 11.3575 1.99616 8.25376C3.71291 5.14999 6.41387 2.70464 9.67398 1.30256C12.9341 -0.0995239 16.5683 -0.378753 20.0046 0.508817C23.441 1.39639 26.4844 3.40036 28.6559 6.20539C30.8275 9.01041 32.0039 12.4572 32 16.0034V16.0034Z" fill="white"/>
</svg>
