<svg width="32" height="32" viewBox="0 0 32 32" fill="currentColor" xmlns="http://www.w3.org/2000/svg">
  <path d="M0 30.2222V12.4444H8.88889V32H1.77778C1.30628 32 0.854097 31.8127 0.520699 31.4793C0.187301 31.1459 0 30.6937 0 30.2222ZM32 1.77778C32 1.30628 31.8127 0.854097 31.4793 0.520699C31.1459 0.187301 30.6937 0 30.2222 0H1.77778C1.30628 0 0.854097 0.187301 0.520699 0.520699C0.187301 0.854097 0 1.30628 0 1.77778V8.88889H32V1.77778ZM30.2222 32C30.6937 32 31.1459 31.8127 31.4793 31.4793C31.8127 31.1459 32 30.6937 32 30.2222V12.4444H12.4444V32H30.2222Z" fill="currentColor"/>
</svg>
