<svg width="32" height="32" viewBox="0 0 32 32" fill="none" xmlns="http://www.w3.org/2000/svg">
<path d="M32 15.992C32 7.99689 28 7.99689 28 7.99689C30.4576 4.06649 28.3856 3.15984 26.4224 3.03992L20.3312 9.12739C20.0312 9.42729 19.6243 9.59582 19.2 9.59591H17.6V14.393H20.1376L22.4 12.132V11.1949C22.4 10.7708 22.5686 10.3641 22.8686 10.0643C23.1687 9.76438 23.5757 9.59591 24 9.59591C24.4243 9.59591 24.8313 9.76438 25.1314 10.0643C25.4314 10.3641 25.6 10.7708 25.6 11.1949V12.794C25.5999 13.218 25.4313 13.6247 25.1312 13.9245L23.0624 15.992L25.1312 18.0595C25.4313 18.3593 25.5999 18.766 25.6 19.19V20.7891C25.6 21.2132 25.4314 21.6199 25.1314 21.9197C24.8313 22.2196 24.4243 22.3881 24 22.3881C23.5757 22.3881 23.1687 22.2196 22.8686 21.9197C22.5686 21.6199 22.4 21.2132 22.4 20.7891V19.852L20.1376 17.591H17.6V20.7891C17.6 21.2132 17.4314 21.6199 17.1314 21.9197C16.8313 22.2196 16.4243 22.3881 16 22.3881C15.5757 22.3881 15.1687 22.2196 14.8686 21.9197C14.5686 21.6199 14.4 21.2132 14.4 20.7891V17.591H11.8624L9.6 19.852V20.7891C9.6 21.2132 9.43143 21.6199 9.13137 21.9197C8.83131 22.2196 8.42435 22.3881 8 22.3881C7.57565 22.3881 7.16869 22.2196 6.86863 21.9197C6.56857 21.6199 6.4 21.2132 6.4 20.7891V19.19C6.40009 18.766 6.56872 18.3593 6.8688 18.0595L8.9376 15.992L6.8688 13.9245C6.56872 13.6247 6.40009 13.218 6.4 12.794V11.1949C6.4 10.7708 6.56857 10.3641 6.86863 10.0643C7.16869 9.76438 7.57565 9.59591 8 9.59591C8.42435 9.59591 8.83131 9.76438 9.13137 10.0643C9.43143 10.3641 9.6 10.7708 9.6 11.1949V12.132L11.8624 14.393H14.4V9.59591H12.8C12.3757 9.59582 11.9688 9.42729 11.6688 9.12739L5.5776 3.03992C3.6144 3.15984 1.5424 4.06649 4 7.99689C4 7.99689 0 7.99689 0 15.992C0 23.9871 4 23.9871 4 23.9871C0 30.3832 8 28.7842 8 28.7842C8.1173 29.7335 8.60131 30.5993 9.34867 31.1969C10.096 31.7944 11.0475 32.0762 12 31.9822H14.4V27.1852C14.4 26.7611 14.5686 26.3543 14.8686 26.0545C15.1687 25.7546 15.5757 25.5861 16 25.5861C16.4243 25.5861 16.8313 25.7546 17.1314 26.0545C17.4314 26.3543 17.6 26.7611 17.6 27.1852V31.9822H20C20.9525 32.0762 21.904 31.7944 22.6513 31.1969C23.3987 30.5993 23.8827 29.7335 24 28.7842C24 28.7842 32 30.3832 28 23.9871C28 23.9871 32 23.9871 32 15.992Z" fill="white"/>
<path d="M23.4016 1.53681C22.9881 1.04002 22.467 0.643675 21.8777 0.377738C21.2884 0.111801 20.6463 -0.0167675 20 0.00175106C19.1553 -0.00262616 18.3255 0.223501 17.6 0.655751V6.39784H18.5376L23.4016 1.53681Z" fill="white"/>
<path d="M14.4 6.39784V0.655751C13.6745 0.223501 12.8446 -0.00262616 12 0.00175106C11.3537 -0.0167675 10.7116 0.111801 10.1223 0.377738C9.53298 0.643675 9.01188 1.04002 8.59839 1.53681L13.4624 6.39784H14.4Z" fill="white"/>
</svg>
