<svg width="29" height="32" viewBox="0 0 29 32" fill="currentColor" xmlns="http://www.w3.org/2000/svg">
  <path fill-rule="evenodd" clip-rule="evenodd" d="M16.1577 0.486319C15.0346 -0.162106 13.6509 -0.162106 12.5278 0.486318L1.81496 6.67135C0.691861 7.31978 0 8.51812 0 9.81496V22.185C0 23.4819 0.69186 24.6802 1.81496 25.3286L12.5278 31.5137C13.6509 32.1621 15.0346 32.1621 16.1577 31.5137L26.8705 25.3286C27.9936 24.6802 28.6854 23.4819 28.6854 22.185V9.81496C28.6854 8.51812 27.9936 7.31978 26.8705 6.67135L16.1577 0.486319ZM14.3427 21.7625C17.5253 21.7625 20.1052 19.1825 20.1052 16C20.1052 12.8175 17.5253 10.2375 14.3427 10.2375C11.1602 10.2375 8.58021 12.8175 8.58021 16C8.58021 19.1825 11.1602 21.7625 14.3427 21.7625Z" fill="currentColor"/>
</svg>
