<svg width="32" height="32" viewBox="0 0 32 32" fill="none" xmlns="http://www.w3.org/2000/svg">
<path d="M20.9293 20.5975H16.6622C15.8135 20.5975 14.9996 20.2229 14.3995 19.5561C13.7993 18.8893 13.4622 17.985 13.4622 17.042V12.3008C13.4624 11.3579 13.7996 10.4537 14.3998 9.78702L20.0077 3.55601H3.19995C2.35127 3.55601 1.53735 3.9306 0.937245 4.59739C0.337137 5.26418 0 6.16853 0 7.11151V28.4445C0 29.3875 0.337137 30.2918 0.937245 30.9586C1.53735 31.6254 2.35127 32 3.19995 32H28.7996C29.6483 32 30.4622 31.6254 31.0623 30.9586C31.6624 30.2918 31.9995 29.3875 31.9995 28.4445V9.76924L23.1997 19.5558C22.9016 19.887 22.5477 20.1495 22.158 20.3283C21.7684 20.5071 21.3508 20.5986 20.9293 20.5975V20.5975ZM7.99989 23.1113C7.99989 23.5827 7.83132 24.0349 7.53126 24.3683C7.23121 24.7017 6.82425 24.889 6.39991 24.889C5.97557 24.889 5.56861 24.7017 5.26855 24.3683C4.9685 24.0349 4.79993 23.5827 4.79993 23.1113V12.4448C4.79993 11.9733 4.9685 11.5211 5.26855 11.1877C5.56861 10.8543 5.97557 10.667 6.39991 10.667C6.82425 10.667 7.23121 10.8543 7.53126 11.1877C7.83132 11.5211 7.99989 11.9733 7.99989 12.4448V23.1113ZM16.6622 12.3008L27.2636 0.52139C27.4122 0.356101 27.5887 0.224976 27.7829 0.135512C27.9771 0.0460484 28.1853 0 28.3956 0C28.6059 0 28.8141 0.0460484 29.0083 0.135512C29.2025 0.224976 29.379 0.356101 29.5276 0.52139L31.5308 2.74713C31.6795 2.91224 31.7975 3.1083 31.878 3.32412C31.9586 3.53993 32 3.77127 32 4.00489C32 4.23851 31.9586 4.46985 31.878 4.68566C31.7975 4.90148 31.6795 5.09754 31.5308 5.26265L20.9293 17.042H16.6622V12.3008Z" fill="white"/>
</svg>
