<svg width="28" height="32" viewBox="0 0 28 32" fill="currentColor" xmlns="http://www.w3.org/2000/svg">
  <path fill-rule="evenodd" clip-rule="evenodd" d="M26.1504 11.4285H21.7618C18.7447 11.4285 16.2761 8.95997 16.2761 5.94283V1.32567C16.2761 0.675445 16.6921 0.153228 17.2832 0H7.4533C3.43044 0 0.0932882 3.24571 0.00185965 7.31429V24.3657C-0.0895689 28.48 3.20186 31.9086 7.31614 32H20.299C24.4133 31.8629 27.6133 28.5257 27.5676 24.4114V9.78284C27.5676 9.41713 27.4304 9.09714 27.2019 8.82285L19.1104 0.411412C18.8362 0.137126 18.4704 0 18.1047 0H18.0119C18.6029 0.153228 19.019 0.675445 19.019 1.32567V5.94283C19.019 7.4514 20.2533 8.68569 21.7618 8.68569H26.1504C26.9275 8.68569 27.5218 9.27997 27.5218 10.0571C27.5218 10.8343 26.9275 11.4285 26.1504 11.4285ZM17.3733 23.1315H8.77902C8.00187 23.1315 7.40759 22.5372 7.40759 21.76C7.40759 20.9829 8.00187 20.3886 8.77902 20.3886H17.3733C18.1504 20.3886 18.7447 20.9829 18.7447 21.76C18.7447 22.5372 18.1047 23.1315 17.3733 23.1315ZM14.1276 15.2228H8.77902C8.00187 15.2228 7.40759 14.6285 7.40759 13.8513C7.40759 13.0742 8.00187 12.4799 8.77902 12.4799H14.1276C14.9047 12.4799 15.499 13.0742 15.499 13.8513C15.499 14.6285 14.859 15.2228 14.1276 15.2228Z" fill="currentColor"/>
</svg>
