<svg width="26" height="32" viewBox="0 0 26 32" fill="currentColor" xmlns="http://www.w3.org/2000/svg">
  <path d="M6.4 6.4C6.4 5.1342 6.77535 3.89683 7.47859 2.84435C8.18184 1.79188 9.18138 0.971575 10.3508 0.487174C11.5203 0.002773 12.8071 -0.123968 14.0486 0.122977C15.2901 0.369922 16.4304 0.979463 17.3255 1.87452C18.2205 2.76958 18.8301 3.90995 19.077 5.15142C19.324 6.3929 19.1972 7.67973 18.7128 8.84918C18.2284 10.0186 17.4081 11.0182 16.3556 11.7214C15.3032 12.4246 14.0658 12.8 12.8 12.8C11.1026 12.8 9.47475 12.1257 8.27452 10.9255C7.07428 9.72525 6.4 8.09739 6.4 6.4ZM12.8 19.2C9.40523 19.2 6.1495 20.5486 3.74903 22.949C1.34857 25.3495 0 28.6052 0 32H25.6C25.6 28.6052 24.2514 25.3495 21.851 22.949C19.4505 20.5486 16.1948 19.2 12.8 19.2Z" fill="currentColor"/>
</svg>
