<svg width="51" height="33" viewBox="0 0 51 33" fill="none" xmlns="http://www.w3.org/2000/svg">
<path d="M39.6455 28.5807C39.6455 28.5807 41.0295 29.693 41.3286 31.4982C41.3286 31.4982 43.4784 31.8137 43.5167 30.8545C43.555 29.8954 44.6108 27.937 43.3836 27.5613C42.1564 27.1857 41.6659 26.8867 40.8052 27.0143C39.9446 27.1419 39.6455 28.5807 39.6455 28.5807Z" fill="#CCC9C8"/>
<path d="M22.7384 25.5175C23.3566 27.0382 23.548 30.1491 23.548 30.1491L25.594 28.404L24.5345 25.9259L23.1469 24.9996C23.1469 24.9996 22.4376 24.7753 22.7384 25.5175Z" fill="#CCC9C8"/>
<path d="M0 2.84939C0 2.84939 7.31572 9.88429 7.31572 28.9485C7.31572 28.9485 17.5362 22.5555 21.4931 23.7152C25.45 24.8749 24.0222 28.6294 25.078 29.6852C26.1338 30.741 27.4704 30.0937 35.9221 27.2746C44.3739 24.4555 42.9151 30.3544 42.8513 31.1039C42.7692 32.074 43.3746 33.2774 50.1634 30.2177C50.1634 30.2177 40.1744 17.8364 38.2744 10.3803C38.2744 10.3803 34.4451 11.1717 32.226 9.95905C30.0068 8.74645 27.691 4.34098 22.6109 6.15532C22.6109 6.15532 19.3852 7.52473 17.7222 6.68412C15.0107 5.30923 14.6314 -3.974 0 2.84939Z" fill="#C62118"/>
<path d="M18.9442 6.95449C18.5241 6.95315 18.1092 6.86109 17.728 6.68461C16.8035 6.21598 16.1489 4.83198 15.1113 3.47168C15.1113 3.47168 19.7283 15.4883 22.3067 22.0509C21.2637 18.9802 18.4774 9.26481 18.9442 6.94719V6.95449Z" fill="#952118"/>
<path d="M33.982 10.514C33.3669 10.4294 32.7706 10.2407 32.2187 9.95599C31.4638 9.54207 30.698 8.7598 29.8154 7.97754C29.8154 7.97754 31.9598 11.1175 33.3146 12.7678C34.6695 14.418 37.5633 17.8917 38.6574 19.8264C39.7515 21.7611 42.0089 25.1709 42.0089 25.1709C42.0089 25.1709 38.8397 18.9165 38.2745 17.826C37.7092 16.7356 34.1534 12.2608 33.982 10.514Z" fill="#952118"/>
<path d="M43.289 20.6116C40.8856 21.2206 39.2208 20.659 38.6592 19.833C38.0028 18.8666 37.4211 16.8352 33.0411 17.7269C26.7648 19.0033 24.2976 18.872 22.3064 18.4198C21.5315 18.2375 21.03 17.9822 20.7528 17.6667C19.7736 16.5416 19.7663 12.8801 17.0731 12.3896C12.9721 11.6329 7.12248 14.359 5.72754 14.8714C6.65386 18.5657 7.31577 23.21 7.31577 28.9485C7.31577 28.9485 17.6566 24.2075 21.6135 25.3599C25.5704 26.5123 22.7222 29.5538 23.7761 30.6005C24.8301 31.6472 27.7877 32.289 36.2285 29.4754C44.6693 26.6618 41.3907 30.7519 41.3342 31.494C41.2522 32.4641 43.3728 33.2737 50.1616 30.2176C50.1561 30.2139 46.5712 25.7702 43.289 20.6116Z" fill="#F4EBE8"/>
<path d="M20.7522 17.6592C20.1359 16.9517 19.9043 15.245 19.1494 13.9521C20.2617 16.8223 21.4069 19.7708 22.3058 22.0574C21.9958 21.1457 21.5309 19.6413 21.044 17.92C20.9368 17.8449 20.8388 17.7574 20.7522 17.6592Z" fill="#DDDDDD"/>
<path d="M38.6572 19.8262C39.7604 21.759 42.0069 25.1653 42.0069 25.1653C42.0069 25.1653 40.7451 22.6781 39.6711 20.5701C39.2676 20.4267 38.9151 20.168 38.6572 19.8262Z" fill="#DDDDDD"/>
</svg>
