<svg width="16" height="16" viewBox="0 0 16 16" fill="none" xmlns="http://www.w3.org/2000/svg">
  <path d="M15.2727 3.2996e-07C15.0798 3.2996e-07 14.8949 0.0766235 14.7585 0.213014C14.6221 0.349404 14.5455 0.534388 14.5455 0.727273V5.81818H12.0567C12.8495 3.81382 11.9971 1.98545 10.0844 0.990546C8.17164 -0.00436332 8.17818 3.2996e-07 8 3.2996e-07C7.88313 0.000198969 7.76798 0.0281146 7.664 0.0814549L5.91855 0.990546C4 1.98473 3.15055 3.81382 3.94327 5.81818H1.45455V0.727273C1.45455 0.534388 1.37792 0.349404 1.24153 0.213014C1.10514 0.0766235 0.920157 3.2996e-07 0.727273 3.2996e-07C0.534388 3.2996e-07 0.349403 0.0766235 0.213013 0.213014C0.0766231 0.349404 0 0.534388 0 0.727273V15.2727C0 15.4656 0.0766231 15.6506 0.213013 15.787C0.349403 15.9234 0.534388 16 0.727273 16H15.2727C15.4656 16 15.6506 15.9234 15.787 15.787C15.9234 15.6506 16 15.4656 16 15.2727V0.727273C16 0.534388 15.9234 0.349404 15.787 0.213014C15.6506 0.0766235 15.4656 3.2996e-07 15.2727 3.2996e-07ZM6.58691 2.28218C7.32873 1.89527 7.75564 1.67273 8 1.54691L9.41309 2.28218C10.9527 3.08218 11.304 4.42764 10.4604 5.81818H5.53964C4.70036 4.42909 5.04509 3.08291 6.58691 2.28218ZM7.27273 14.5455V12.3636C7.27273 12.1708 7.34935 11.9858 7.48574 11.8494C7.62213 11.713 7.80712 11.6364 8 11.6364C8.19289 11.6364 8.37787 11.713 8.51426 11.8494C8.65065 11.9858 8.72727 12.1708 8.72727 12.3636V14.5455H7.27273ZM14.5455 14.5455H10.1818V12.3636C10.1818 11.785 9.95195 11.23 9.54278 10.8209C9.13361 10.4117 8.57865 10.1818 8 10.1818C7.42135 10.1818 6.86639 10.4117 6.45722 10.8209C6.04805 11.23 5.81818 11.785 5.81818 12.3636V14.5455H1.45455V7.27273H14.5455V14.5455ZM2.18182 8H13.8182V9.45455H2.18182V8ZM10.9091 10.9091H13.8182V12.3636H10.9091V10.9091ZM2.18182 10.9091H5.09091V12.3636H2.18182V10.9091Z" fill="currentColor"/>
</svg>
