<svg width="16" height="16" viewBox="0 0 16 16" fill="none" xmlns="http://www.w3.org/2000/svg">
  <path d="M15.2727 0H12.3636C12.1708 0 11.9858 0.0766231 11.8494 0.213013C11.713 0.349403 11.6364 0.534388 11.6364 0.727273V5.81818H10.1818V4.36364C10.1819 4.23965 10.1502 4.11772 10.0899 4.0094C10.0296 3.90109 9.94256 3.81 9.83711 3.74478C9.73167 3.67956 9.61131 3.64238 9.48745 3.63677C9.36359 3.63116 9.24036 3.65731 9.12946 3.71273L5.81818 5.36873V4.36364C5.81824 4.23965 5.7866 4.11772 5.72627 4.0094C5.66594 3.90109 5.57892 3.81 5.47348 3.74478C5.36803 3.67956 5.24767 3.64238 5.12381 3.63677C4.99996 3.63116 4.87672 3.65731 4.76582 3.71273L0.402182 5.89455C0.281285 5.95496 0.179614 6.04786 0.108574 6.16284C0.0375345 6.27781 -6.28996e-05 6.4103 7.89906e-08 6.54545V15.2727C7.89906e-08 15.4656 0.0766232 15.6506 0.213013 15.787C0.349403 15.9234 0.534388 16 0.727273 16H15.2727C15.4656 16 15.6506 15.9234 15.787 15.787C15.9234 15.6506 16 15.4656 16 15.2727V0.727273C16 0.534388 15.9234 0.349403 15.787 0.213013C15.6506 0.0766231 15.4656 0 15.2727 0ZM14.5455 1.45455V2.90909H13.0909V1.45455H14.5455ZM1.45455 14.5455V6.99491L4.36364 5.54036V6.54545C4.36358 6.66944 4.39522 6.79138 4.45555 6.89969C4.51588 7.008 4.6029 7.0991 4.70834 7.16431C4.81378 7.22953 4.93415 7.26671 5.058 7.27232C5.18186 7.27793 5.30509 7.25178 5.416 7.19636L8.72727 5.54036V6.54545C8.72727 6.73834 8.8039 6.92332 8.94029 7.05971C9.07668 7.1961 9.26166 7.27273 9.45455 7.27273H12.3636C12.5565 7.27273 12.7415 7.1961 12.8779 7.05971C13.0143 6.92332 13.0909 6.73834 13.0909 6.54545V4.36364H14.5455V14.5455H1.45455ZM2.90909 8.72727H5.09091V10.1818H2.90909V8.72727ZM6.54545 8.72727H9.45455V10.1818H6.54545V8.72727ZM10.9091 8.72727H13.0909V10.1818H10.9091V8.72727ZM2.90909 11.6364H5.09091V13.0909H2.90909V11.6364ZM6.54545 11.6364H9.45455V13.0909H6.54545V11.6364ZM10.9091 11.6364H13.0909V13.0909H10.9091V11.6364Z" fill="currentColor"/>
</svg>
