<svg width="16" height="16" viewBox="0 0 16 16" fill="none" xmlns="http://www.w3.org/2000/svg">
  <path d="M14.5441 12.4006V6.54518C14.5445 5.42373 14.2546 4.32128 13.7027 3.34509C13.6968 3.33345 13.6896 3.32472 13.6838 3.31381C12.971 2.05734 11.8624 1.07213 10.5309 0.511924C9.1994 -0.0482855 7.71991 -0.151988 6.32328 0.216998C4.92665 0.585983 3.69144 1.4069 2.81038 2.55166C1.92933 3.69642 1.452 5.10063 1.45286 6.54518V12.4006C1.01176 12.4911 0.619925 12.7421 0.35323 13.1049C0.0865355 13.4677 -0.0360489 13.9165 0.00921316 14.3645C0.0544752 14.8125 0.264363 15.2278 0.598238 15.5299C0.932112 15.8321 1.36622 15.9996 1.8165 16H14.1805C14.6308 15.9996 15.0649 15.8321 15.3988 15.5299C15.7326 15.2278 15.9425 14.8125 15.9878 14.3645C16.0331 13.9165 15.9105 13.4677 15.6438 13.1049C15.3771 12.7421 14.9852 12.4911 14.5441 12.4006ZM13.0896 6.54518V12.3635H10.5695L8.46033 9.19544C9.16038 8.88553 9.70914 8.31091 9.98653 7.59736C10.2639 6.8838 10.2473 6.08941 9.94038 5.38806C10.7796 4.92178 11.6962 4.61085 12.6459 4.47021C12.9388 5.12274 13.09 5.82994 13.0896 6.54518ZM7.27121 7.99977C6.98352 7.99977 6.70229 7.91446 6.46308 7.75463C6.22388 7.59479 6.03744 7.36762 5.92734 7.10183C5.81725 6.83604 5.78844 6.54357 5.84457 6.2614C5.90069 5.97924 6.03923 5.72006 6.24266 5.51663C6.44609 5.3132 6.70527 5.17467 6.98743 5.11854C7.26959 5.06242 7.56206 5.09122 7.82785 5.20132C8.09364 5.31141 8.32082 5.49785 8.48065 5.73705C8.64048 5.97626 8.72579 6.25749 8.72579 6.54518C8.72579 6.93096 8.57254 7.30094 8.29976 7.57373C8.02697 7.84652 7.65699 7.99977 7.27121 7.99977ZM2.90744 6.54518C2.90578 5.5159 3.21663 4.51036 3.79887 3.66158C4.38112 2.81281 5.20732 2.16079 6.16818 1.79178C7.12905 1.42278 8.1793 1.35417 9.18001 1.59504C10.1807 1.83591 11.0847 2.3749 11.7724 3.14072C10.8044 3.36001 9.87684 3.73037 9.02398 4.2382C8.52196 3.84998 7.90583 3.6383 7.27121 3.636C6.53629 3.63408 5.828 3.91099 5.28927 4.41087C4.75055 4.91075 4.42149 5.59638 4.36852 6.32939C4.31554 7.06239 4.54258 7.78821 5.00383 8.36036C5.46508 8.93251 6.12618 9.3084 6.85374 9.41217L8.8218 12.3635H2.90744V6.54518ZM14.1805 14.5454H1.8165C1.72006 14.5454 1.62756 14.5071 1.55937 14.4389C1.49117 14.3707 1.45286 14.2782 1.45286 14.1818C1.45286 14.0853 1.49117 13.9928 1.55937 13.9246C1.62756 13.8564 1.72006 13.8181 1.8165 13.8181H14.1805C14.2769 13.8181 14.3694 13.8564 14.4376 13.9246C14.5058 13.9928 14.5441 14.0853 14.5441 14.1818C14.5441 14.2782 14.5058 14.3707 14.4376 14.4389C14.3694 14.5071 14.2769 14.5454 14.1805 14.5454Z" fill="#2D2627"/>
</svg>
