<svg width="16" height="16" viewBox="0 0 16 16" fill="none" xmlns="http://www.w3.org/2000/svg">
  <path d="M5.5936 2.79583C5.5936 2.52609 5.86667 2.3163 6.13973 2.42762C6.3488 2.51325 6.58773 2.50468 6.79253 2.40193C6.99733 2.29917 7.14667 2.11507 7.2064 1.89671C7.25333 1.72117 7.4112 1.60128 7.58613 1.60128C7.808 1.60128 7.98293 1.78111 7.98293 1.99946V2.39764H9.57867V1.99946C9.57867 0.894836 8.68267 0 7.58613 0C6.9504 0 6.36587 0.308269 5.99467 0.800642H5.9904C4.8896 0.800642 3.99787 1.69976 3.99787 2.80011V3.19829H5.5936V2.79583Z" fill="currentColor"/>
  <path fill-rule="evenodd" clip-rule="evenodd" d="M16 15.9957L13.5296 7.99358H9.18187L8.33707 10.4554L7.0272 4.79529H2.56853L0 16H9.62133V15.9957H16ZM10.3211 9.59486H12.352L13.8368 14.3944H9.25013L9.01547 13.3797L10.3211 9.59486ZM2.00107 14.3987L3.83573 6.39657H5.75573L7.60747 14.3987H2.00107Z" fill="currentColor"/>
  <path d="M12.5184 5.63019C12.2453 5.51887 11.9723 5.72866 11.9723 5.9984V6.40086H10.3765V6.00268C10.3765 4.90233 11.2683 4.00321 12.3691 4.00321H12.3733C12.7445 3.51084 13.3291 3.20257 13.9648 3.20257C15.0613 3.20257 15.9573 4.09741 15.9573 5.20204V5.60022H14.3616V5.20204C14.3616 4.98368 14.1867 4.80385 13.9648 4.80385C13.7899 4.80385 13.632 4.92374 13.5851 5.09928C13.5253 5.31764 13.376 5.50174 13.1712 5.6045C12.9664 5.70725 12.7275 5.71582 12.5184 5.63019Z" fill="currentColor"/>
</svg>
