<svg width="16" height="16" viewBox="0 0 16 16" fill="none" xmlns="http://www.w3.org/2000/svg">
  <path d="M0.799995 16H15.1999C15.4121 16 15.6156 15.9157 15.7656 15.7657C15.9156 15.6157 15.9999 15.4122 15.9999 15.2V12C15.9999 11.7879 15.9156 11.5844 15.7656 11.4343C15.6156 11.2843 15.4121 11.2 15.1999 11.2H14.3999V7.20006H15.1999C15.4121 7.20006 15.6156 7.11577 15.7656 6.96574C15.9156 6.81571 15.9999 6.61223 15.9999 6.40006V4.00008C15.9999 3.84529 15.955 3.69382 15.8707 3.56404C15.7863 3.43425 15.6662 3.33172 15.5247 3.26888L8.32475 0.0689011C8.22249 0.0234725 8.11184 0 7.99995 0C7.88806 0 7.77741 0.0234725 7.67515 0.0689011L0.475197 3.26888C0.333743 3.33172 0.213557 3.43425 0.129211 3.56404C0.0448646 3.69382 -1.96389e-05 3.84529 6.44615e-09 4.00008V6.40006C6.44615e-09 6.61223 0.0842849 6.81571 0.234313 6.96574C0.384341 7.11577 0.587823 7.20006 0.799995 7.20006H1.59999V11.2H0.799995C0.587823 11.2 0.384341 11.2843 0.234313 11.4343C0.0842849 11.5844 6.44615e-09 11.7879 6.44615e-09 12V15.2C6.44615e-09 15.4122 0.0842849 15.6157 0.234313 15.7657C0.384341 15.9157 0.587823 16 0.799995 16ZM1.59999 4.52007L7.99995 1.67529L14.3999 4.52007V5.60007H1.59999V4.52007ZM12.7999 7.20006V11.2H10.6663V7.20006H12.7999ZM9.06634 7.20006V11.2H6.93356V7.20006H9.06634ZM5.33357 7.20006V11.2H3.19998V7.20006H5.33357ZM1.59999 12.8H14.3999V14.4H1.59999V12.8ZM9.59994 4.00008C9.59994 4.21225 9.51565 4.41573 9.36563 4.56576C9.2156 4.71579 9.01212 4.80007 8.79994 4.80007H7.19995C6.98778 4.80007 6.7843 4.71579 6.63427 4.56576C6.48424 4.41573 6.39996 4.21225 6.39996 4.00008C6.39996 3.7879 6.48424 3.58442 6.63427 3.43439C6.7843 3.28437 6.98778 3.20008 7.19995 3.20008H8.79994C9.01212 3.20008 9.2156 3.28437 9.36563 3.43439C9.51565 3.58442 9.59994 3.7879 9.59994 4.00008Z" fill="#2D2627"/>
</svg>
