<svg width="17" height="15" viewBox="0 0 17 15" fill="none" xmlns="http://www.w3.org/2000/svg">
  <path d="M3.09419 14.4754C3.73397 14.473 4.35492 14.2586 4.85998 13.8659C5.36504 13.4732 5.72573 12.9242 5.88567 12.3047H10.4325C10.5709 12.8724 10.8762 13.3857 11.309 13.7783C11.7418 14.171 12.2823 14.425 12.8608 14.5076C13.4393 14.5903 14.0293 14.4978 14.5547 14.2421C15.0801 13.9864 15.517 13.5792 15.8089 13.073C16.1007 12.5667 16.2343 11.9847 16.1924 11.4018C16.1505 10.8189 15.9349 10.262 15.5736 9.80277C15.2122 9.34352 14.7216 9.00303 14.165 8.82516C13.6084 8.6473 13.0112 8.64022 12.4505 8.80483L10.1966 4.95044C10.6041 4.54677 10.8825 4.03112 10.9964 3.46895C11.1103 2.90678 11.0546 2.32344 10.8364 1.79299C10.6181 1.26254 10.2472 0.808908 9.77062 0.489672C9.29407 0.170436 8.73341 0 8.15982 0C7.58623 0 7.02557 0.170436 6.54902 0.489672C6.07247 0.808908 5.70153 1.26254 5.48328 1.79299C5.26503 2.32344 5.20932 2.90678 5.32322 3.46895C5.43712 4.03112 5.71549 4.54677 6.123 4.95044L3.87418 8.80701C3.62097 8.73119 3.35848 8.69077 3.09419 8.68689C2.32659 8.68689 1.59043 8.99182 1.04765 9.5346C0.504879 10.0774 0.199951 10.8135 0.199951 11.5811C0.199951 12.3487 0.504879 13.0849 1.04765 13.6277C1.59043 14.1704 2.32659 14.4754 3.09419 14.4754ZM13.224 10.134C13.5102 10.134 13.79 10.2189 14.028 10.3779C14.266 10.5369 14.4514 10.7629 14.561 11.0273C14.6705 11.2918 14.6992 11.5827 14.6433 11.8634C14.5875 12.1442 14.4497 12.402 14.2473 12.6044C14.0449 12.8068 13.787 12.9446 13.5063 13.0004C13.2256 13.0563 12.9346 13.0276 12.6702 12.9181C12.4058 12.8086 12.1798 12.6231 12.0208 12.3851C11.8618 12.1471 11.7769 11.8673 11.7769 11.5811C11.7769 11.1973 11.9294 10.8293 12.2007 10.5579C12.4721 10.2865 12.8402 10.134 13.224 10.134ZM8.1591 1.45131C8.44531 1.45131 8.72509 1.53618 8.96307 1.69519C9.20105 1.8542 9.38653 2.08021 9.49606 2.34464C9.60559 2.60906 9.63424 2.90003 9.57841 3.18074C9.52257 3.46146 9.38475 3.71931 9.18236 3.92169C8.97998 4.12407 8.72213 4.2619 8.44141 4.31774C8.1607 4.37357 7.86974 4.34492 7.60531 4.23539C7.34088 4.12586 7.11487 3.94038 6.95586 3.7024C6.79685 3.46442 6.71198 3.18464 6.71198 2.89842C6.71198 2.51463 6.86444 2.14655 7.13583 1.87516C7.40722 1.60377 7.7753 1.45131 8.1591 1.45131ZM7.3791 5.67255C7.63232 5.74836 7.8948 5.78878 8.1591 5.79266C8.42447 5.78907 8.68802 5.74815 8.94199 5.6711L11.1937 9.5226C10.8243 9.89087 10.5613 10.3521 10.4325 10.8576H5.88567C5.75788 10.3545 5.49694 9.89508 5.13028 9.52767L7.3791 5.67255ZM3.09419 10.134C3.3804 10.134 3.66018 10.2189 3.89816 10.3779C4.13614 10.5369 4.32162 10.7629 4.43115 11.0273C4.54068 11.2918 4.56933 11.5827 4.5135 11.8634C4.45766 12.1442 4.31984 12.402 4.11745 12.6044C3.91507 12.8068 3.65722 12.9446 3.3765 13.0004C3.09579 13.0563 2.80482 13.0276 2.5404 12.9181C2.27597 12.8086 2.04996 12.6231 1.89095 12.3851C1.73194 12.1471 1.64707 11.8673 1.64707 11.5811C1.64707 11.1973 1.79953 10.8293 2.07092 10.5579C2.34231 10.2865 2.71039 10.134 3.09419 10.134Z" fill="currentColor"/>
</svg>
