<svg width="16" height="15" viewBox="0 0 16 15" fill="none" xmlns="http://www.w3.org/2000/svg">
  <path fill-rule="evenodd" clip-rule="evenodd" d="M9.58456 0.438957C8.6093 -0.146316 7.39073 -0.146319 6.41547 0.438947L0.961652 3.71156L0.952159 3.71807C0.787848 3.83069 0.558721 4.0336 0.367227 4.2984C0.176491 4.56216 0 4.91982 0 5.33333C0 5.75911 0.075733 6.11997 0.248702 6.42761C0.422362 6.73649 0.675151 6.95809 0.971469 7.13596C2.56247 8.091 5.0043 9.5562 6.41552 10.4027C7.39076 10.988 8.60933 10.9879 9.58456 10.4027L11.2392 9.40982V10.8464C10.8548 10.9344 10.5411 11.2292 10.4369 11.6227L10.0083 13.2423C9.92245 13.5662 9.99209 13.9117 10.1967 14.1774C10.4008 14.443 10.7171 14.5984 11.0518 14.5984H12.5062C12.8409 14.5984 13.1573 14.443 13.3614 14.1774C13.566 13.9117 13.6356 13.5662 13.5498 13.2423L13.1211 11.6227C13.0169 11.2292 12.7033 10.9344 12.3189 10.8464V8.76197L15.0284 7.13607C15.6312 6.77465 16 6.12374 16 5.42082C16 4.71796 15.6312 4.06711 15.0285 3.70567C13.4376 2.75066 10.9958 1.28548 9.58456 0.438957ZM11.4805 11.8991H12.0776L12.5062 13.5187H11.0518L11.4805 11.8991ZM14.277 5.88348L12.05 7.21963L8.28019 4.95816C8.02484 4.80484 7.69283 4.88744 7.53951 5.14333C7.38619 5.39868 7.46932 5.7307 7.72468 5.88348L11.0011 7.84965L8.83355 9.15017C8.32014 9.45789 7.67987 9.45789 7.167 9.15017L1.72305 5.88348C1.56055 5.7863 1.46068 5.61031 1.46068 5.42082C1.46068 5.23133 1.56055 5.05533 1.72305 4.95816L7.167 1.69147C7.67987 1.38375 8.32014 1.38375 8.83301 1.69147L14.277 4.95816C14.4395 5.05533 14.5393 5.23133 14.5393 5.42082C14.5393 5.61031 14.4395 5.7863 14.277 5.88348Z" fill="#2D2627"/>
</svg>
