<svg width="16" height="16" viewBox="0 0 16 16" fill="none" xmlns="http://www.w3.org/2000/svg">
  <path d="M11.1959 0.0017272C10.0109 -0.0311654 8.86118 0.406864 7.99816 1.22C7.13515 0.406864 5.98541 -0.0311654 4.80047 0.0017272C4.12931 0.00361492 3.46682 0.153467 2.86011 0.440623C2.25341 0.727779 1.71739 1.14518 1.2902 1.66315C-0.175145 3.42216 -0.281469 6.24105 0.418027 8.28723C0.424423 8.30163 0.429219 8.31603 0.435615 8.33043C1.72029 12.0004 7.16916 16 7.99816 16C8.81278 16 14.2457 12.0884 15.5607 8.33043C15.5671 8.31603 15.5719 8.30163 15.5783 8.28723C16.2682 6.27385 16.1939 3.44856 14.7061 1.66315C14.2789 1.14518 13.7429 0.727779 13.1362 0.440623C12.5295 0.153467 11.867 0.00361492 11.1959 0.0017272ZM7.99816 14.2546C6.88617 13.5315 3.7924 11.3605 2.38781 8.80078H5.59989C5.73147 8.8008 5.86102 8.76832 5.97705 8.70622C6.09307 8.64413 6.19199 8.55434 6.26501 8.44482L6.95731 7.40493L8.03973 10.6526C8.08708 10.7945 8.17328 10.9203 8.28852 11.0157C8.40376 11.1111 8.54343 11.1722 8.69165 11.1921C8.83987 11.212 8.9907 11.1899 9.12701 11.1284C9.26331 11.0668 9.37961 10.9682 9.46271 10.8438L10.8241 8.80078H13.6093C12.2039 11.3605 9.11016 13.5315 7.99816 14.2546ZM14.2217 7.20095H10.3964C10.2649 7.20093 10.1353 7.23341 10.0193 7.2955C9.90326 7.3576 9.80434 7.44739 9.73131 7.55691L9.03901 8.5968L7.95659 5.34915C7.90924 5.2072 7.82305 5.08139 7.70781 4.98602C7.59257 4.89064 7.4529 4.82952 7.30468 4.80961C7.15646 4.7897 7.00562 4.81178 6.86932 4.87337C6.73302 4.93495 6.61671 5.03355 6.53362 5.15797L5.1722 7.20095H1.77465C1.45488 5.68831 1.52523 3.87891 2.51891 2.68704C2.79439 2.34747 3.1422 2.07379 3.53695 1.88598C3.93169 1.69818 4.36338 1.601 4.80047 1.60155C7.2523 1.60155 6.99649 3.28137 7.98937 3.29097H7.99816C8.99265 3.29097 8.74083 1.60155 11.1959 1.60155C11.6332 1.60076 12.0652 1.69783 12.4603 1.88564C12.8553 2.07345 13.2034 2.34726 13.479 2.68704C14.4671 3.87491 14.5438 5.68111 14.2217 7.20095Z" fill="currentColor"/>
</svg>
