<svg width="20" height="12" viewBox="0 0 20 12" fill="none" xmlns="http://www.w3.org/2000/svg">
<path d="M0.266172 6.63682C0.0957422 6.46492 0 6.2318 0 5.98874C0 5.74567 0.0957422 5.51255 0.266172 5.34065L4.81167 0.75732C4.98313 0.590341 5.21277 0.497946 5.45113 0.500035C5.6895 0.502123 5.91751 0.598528 6.08606 0.768486C6.25462 0.938443 6.35023 1.16835 6.3523 1.4087C6.35437 1.64905 6.26274 1.8806 6.09714 2.05349L3.10347 5.07207H19.0909C19.332 5.07207 19.5632 5.16865 19.7337 5.34055C19.9042 5.51246 20 5.74562 20 5.98874C20 6.23185 19.9042 6.46501 19.7337 6.63692C19.5632 6.80882 19.332 6.9054 19.0909 6.9054H3.10347L6.09714 9.92398C6.18397 10.0085 6.25322 10.1097 6.30087 10.2215C6.34851 10.3334 6.37359 10.4537 6.37464 10.5754C6.37569 10.6971 6.35269 10.8178 6.30698 10.9304C6.26127 11.0431 6.19376 11.1454 6.10841 11.2315C6.02305 11.3176 5.92155 11.3856 5.80982 11.4317C5.6981 11.4778 5.57839 11.501 5.45768 11.5C5.33697 11.4989 5.21767 11.4736 5.10676 11.4256C4.99585 11.3775 4.89553 11.3077 4.81167 11.2202L0.266172 6.63682Z" fill="#FF0000"/>
</svg>
