<svg width="6" height="8" viewBox="0 0 6 8" fill="none" xmlns="http://www.w3.org/2000/svg">
<path d="M5.385 3.44423C5.53498 3.59425 5.61923 3.7977 5.61923 4.00983C5.61923 4.22196 5.53498 4.42541 5.385 4.57543L2.185 7.77543C2.03412 7.92116 1.83204 8.00179 1.62228 7.99997C1.41252 7.99815 1.21187 7.91401 1.06355 7.76568C0.91522 7.61736 0.831084 7.41671 0.829261 7.20695C0.827439 6.99719 0.908074 6.79511 1.0538 6.64423L3.6882 4.00983L1.0538 1.37543C0.977392 1.30163 0.916448 1.21336 0.874521 1.11575C0.832593 1.01815 0.810524 0.913175 0.809601 0.806952C0.808677 0.700728 0.828919 0.595384 0.869143 0.497067C0.909368 0.39875 0.968771 0.309429 1.04389 0.234314C1.119 0.1592 1.20832 0.0997978 1.30664 0.0595731C1.40496 0.0193483 1.5103 -0.000892847 1.61652 3.02056e-05C1.72275 0.000953259 1.82772 0.0230223 1.92532 0.0649495C2.02293 0.106877 2.1112 0.167823 2.185 0.244231L5.385 3.44423Z" fill="#858A8F"/>
</svg>
