<svg width="14" height="8" viewBox="0 0 14 8" fill="none" xmlns="http://www.w3.org/2000/svg">
<path d="M0.18632 4.44195C0.0670196 4.32262 0 4.16078 0 3.99204C0 3.8233 0.0670196 3.66146 0.18632 3.54213L3.36817 0.360277C3.48819 0.244358 3.64894 0.180215 3.81579 0.181665C3.98265 0.183115 4.14226 0.250041 4.26024 0.368029C4.37823 0.486017 4.44516 0.645627 4.44661 0.812481C4.44806 0.979335 4.38392 1.14008 4.268 1.2601L2.17243 3.35567H13.3636C13.5324 3.35567 13.6943 3.42272 13.8136 3.54206C13.933 3.6614 14 3.82326 14 3.99204C14 4.16082 13.933 4.32268 13.8136 4.44202C13.6943 4.56136 13.5324 4.62841 13.3636 4.62841H2.17243L4.268 6.72397C4.32878 6.78268 4.37726 6.8529 4.41061 6.93054C4.44396 7.00818 4.46151 7.09168 4.46225 7.17618C4.46298 7.26068 4.44688 7.34447 4.41488 7.42268C4.38289 7.50089 4.33563 7.57194 4.27588 7.63169C4.21613 7.69144 4.14508 7.73869 4.06687 7.77069C3.98867 7.80269 3.90487 7.81879 3.82037 7.81805C3.73588 7.81732 3.65237 7.79976 3.57473 7.76641C3.49709 7.73306 3.42687 7.68458 3.36817 7.6238L0.18632 4.44195Z" fill="#2D2627"/>
</svg>
