<svg width="18" height="11" viewBox="0 0 18 11" fill="none" xmlns="http://www.w3.org/2000/svg">
<path d="M12.5426 10.7791C12.3942 10.9224 12.1953 11.0018 11.989 11C11.7826 10.9982 11.5852 10.9154 11.4392 10.7695C11.2933 10.6235 11.2105 10.4261 11.2087 10.2197C11.2069 10.0134 11.2863 9.81455 11.4297 9.6661L14.8087 6.2871H0.966783C0.758033 6.2871 0.557832 6.20417 0.410223 6.05656C0.262613 5.90895 0.179688 5.70875 0.179688 5.5C0.179687 5.29125 0.262613 5.09105 0.410223 4.94344C0.557832 4.79583 0.758033 4.7129 0.966783 4.7129H14.8087L11.4297 1.3339C11.2863 1.18545 11.2069 0.986631 11.2087 0.780257C11.2105 0.573883 11.2933 0.376469 11.4392 0.230535C11.5852 0.0846013 11.7826 0.00182309 11.989 2.97542e-05C12.1953 -0.00176358 12.3942 0.0775716 12.5426 0.220947L17.2652 4.94352C17.4127 5.09113 17.4956 5.29129 17.4956 5.5C17.4956 5.70871 17.4127 5.90887 17.2652 6.05648L12.5426 10.7791Z" fill="white"/>
</svg>
