<svg width="15" height="8" viewBox="0 0 15 8" fill="none" xmlns="http://www.w3.org/2000/svg">
<path d="M11.138 7.81247C11.0123 7.93416 10.8439 8.0015 10.6691 7.99997C10.4943 7.99845 10.3271 7.92819 10.2035 7.80434C10.0798 7.68048 10.0097 7.51293 10.0082 7.33777C10.0067 7.16261 10.0739 6.99387 10.1953 6.86787L12.3907 4.66803H0.666667C0.489856 4.66803 0.320286 4.59765 0.195262 4.47237C0.0702379 4.34709 0 4.17717 0 4C0 3.82283 0.0702379 3.65291 0.195262 3.52763C0.320286 3.40235 0.489856 3.33196 0.666667 3.33196H12.3907L10.1953 1.13213C10.0739 1.00613 10.0067 0.837387 10.0082 0.66223C10.0097 0.487073 10.0798 0.319522 10.2035 0.195663C10.3271 0.071804 10.4943 0.00154732 10.6691 2.52534e-05C10.8439 -0.00149681 11.0123 0.0658376 11.138 0.187526L14.4713 3.5277C14.5963 3.65297 14.6665 3.82286 14.6665 4C14.6665 4.17714 14.5963 4.34702 14.4713 4.4723L11.138 7.81247Z" fill="#FF0000"/>
</svg>
