<svg width="15" height="14" viewBox="0 0 15 14" fill="none" xmlns="http://www.w3.org/2000/svg">
<path d="M1.51121 12.7444C1.04306 12.3042 0.668111 11.7744 0.40861 11.1865C0.14911 10.5985 0.0103478 9.96451 0.000556975 9.32195C-0.00923386 8.67939 0.110147 8.04142 0.351614 7.44588C0.593082 6.85034 0.951717 6.30937 1.40624 5.85507L6.2294 1.03191C6.54726 0.707369 6.92632 0.449073 7.34464 0.271957C7.76296 0.0948423 8.21225 0.00242365 8.66651 4.70344e-05C9.12078 -0.00232958 9.57101 0.085383 9.99116 0.258111C10.4113 0.43084 10.793 0.685156 11.1143 1.00635C11.4355 1.32755 11.6899 1.70925 11.8627 2.12937C12.0355 2.5495 12.1233 2.99971 12.1209 3.45398C12.1186 3.90825 12.0263 4.35755 11.8492 4.77589C11.6722 5.19424 11.4139 5.57333 11.0894 5.89124L6.26628 10.7144C5.8715 11.0913 5.34669 11.3016 4.80089 11.3016C4.2551 11.3016 3.73029 11.0913 3.3355 10.7144C2.94755 10.3252 2.7297 9.79816 2.7297 9.24866C2.7297 8.69916 2.94755 8.17207 3.3355 7.78292L7.19049 3.92793C7.32426 3.79873 7.50343 3.72724 7.6894 3.72885C7.87537 3.73047 8.05327 3.80507 8.18478 3.93657C8.31629 4.06808 8.39088 4.24598 8.3925 4.43195C8.39411 4.61793 8.32262 4.79709 8.19342 4.93087L4.33702 8.78585C4.21573 8.90865 4.14772 9.07429 4.14772 9.24689C4.14772 9.41948 4.21573 9.58513 4.33702 9.70793C4.46152 9.82591 4.62653 9.89167 4.79806 9.89167C4.96958 9.89167 5.13459 9.82591 5.25909 9.70793L10.0823 4.88476C10.4515 4.50449 10.6563 3.99421 10.6523 3.46419C10.6484 2.93417 10.4362 2.42697 10.0614 2.05218C9.68658 1.67739 9.17938 1.46511 8.64936 1.4612C8.11934 1.45729 7.60906 1.66207 7.22879 2.0313L2.40563 6.85446C2.08521 7.17431 1.8323 7.55528 1.66192 7.97474C1.49154 8.3942 1.40716 8.84361 1.41377 9.2963C1.42039 9.749 1.51787 10.1957 1.70043 10.6101C1.883 11.0244 2.14693 11.3978 2.47655 11.7081C3.15159 12.3034 4.03016 12.6154 4.92944 12.5794C5.82873 12.5433 6.67948 12.1619 7.30468 11.5145L12.9676 5.85152C13.0331 5.78378 13.1113 5.72974 13.1979 5.69257C13.2844 5.6554 13.3775 5.63583 13.4717 5.63501C13.5658 5.63419 13.6592 5.65214 13.7464 5.6878C13.8336 5.72347 13.9128 5.77613 13.9794 5.84273C14.046 5.90933 14.0986 5.98852 14.1343 6.07569C14.17 6.16286 14.1879 6.25626 14.1871 6.35044C14.1863 6.44462 14.1667 6.53769 14.1295 6.62423C14.0924 6.71076 14.0383 6.78903 13.9706 6.85446L8.30762 12.5174C7.36265 13.4639 6.0809 13.997 4.74344 13.9998C3.54514 14.01 2.38848 13.5607 1.51121 12.7444Z" fill="#6F697E"/>
</svg>
