<svg width="22" height="22" viewBox="0 0 22 22" fill="none" xmlns="http://www.w3.org/2000/svg">
<path d="M12.0003 0C12.2656 0 12.5199 0.105357 12.7075 0.292893C12.895 0.48043 13.0003 0.734784 13.0003 1V2C13.0003 2.26522 12.895 2.51957 12.7075 2.70711C12.5199 2.89464 12.2656 3 12.0003 3C11.7351 3 11.4808 2.89464 11.2932 2.70711C11.1057 2.51957 11.0003 2.26522 11.0003 2V1C11.0003 0.734784 11.1057 0.48043 11.2932 0.292893C11.4808 0.105357 11.7351 0 12.0003 0ZM5.63635 5.05C5.82495 5.23216 6.07755 5.33295 6.33975 5.33067C6.60195 5.3284 6.85276 5.22323 7.03817 5.03782C7.22357 4.85241 7.32874 4.6016 7.33102 4.3394C7.3333 4.0772 7.23251 3.8246 7.05035 3.636L6.34335 2.929C6.15475 2.74684 5.90214 2.64605 5.63995 2.64833C5.37775 2.6506 5.12694 2.75577 4.94153 2.94118C4.75612 3.12659 4.65095 3.3774 4.64867 3.6396C4.6464 3.9018 4.74719 4.1544 4.92935 4.343L5.63635 5.05ZM21.0003 9H20.0003C19.7351 9 19.4808 9.10536 19.2932 9.29289C19.1057 9.48043 19.0003 9.73478 19.0003 10C19.0003 10.2652 19.1057 10.5196 19.2932 10.7071C19.4808 10.8946 19.7351 11 20.0003 11H21.0003C21.2656 11 21.5199 10.8946 21.7075 10.7071C21.895 10.5196 22.0003 10.2652 22.0003 10C22.0003 9.73478 21.895 9.48043 21.7075 9.29289C21.5199 9.10536 21.2656 9 21.0003 9ZM17.6573 2.929L16.9503 3.636C16.8548 3.72825 16.7787 3.83859 16.7262 3.9606C16.6738 4.0826 16.6462 4.21382 16.6451 4.3466C16.6439 4.47938 16.6692 4.61106 16.7195 4.73395C16.7698 4.85685 16.8441 4.9685 16.938 5.0624C17.0318 5.15629 17.1435 5.23054 17.2664 5.28082C17.3893 5.3311 17.521 5.3564 17.6537 5.35525C17.7865 5.3541 17.9177 5.32651 18.0398 5.2741C18.1618 5.22169 18.2721 5.14551 18.3643 5.05L19.0713 4.343C19.2535 4.1544 19.3543 3.9018 19.352 3.6396C19.3497 3.3774 19.2446 3.12659 19.0592 2.94118C18.8738 2.75577 18.6229 2.6506 18.3607 2.64833C18.0986 2.64605 17.8459 2.74684 17.6573 2.929ZM20.2433 12.757C20.8021 13.313 21.2451 13.9743 21.5467 14.7026C21.8483 15.4309 22.0025 16.2117 22.0003 17C21.9988 18.3256 21.4715 19.5964 20.5341 20.5338C19.5968 21.4711 18.3259 21.9984 17.0003 22H7.72935C5.68014 21.9979 3.71547 21.1829 2.26646 19.7339C0.817448 18.2849 0.00246519 16.3202 0.00034742 14.271C-0.0176774 12.4337 0.666266 10.6587 1.91254 9.30856C3.15882 7.95839 4.87344 7.13483 6.70635 7.006C6.74135 7.006 6.77535 7.006 6.80635 7.006C7.46292 5.85743 8.48114 4.95845 9.70222 4.44927C10.9233 3.94009 12.2785 3.84934 13.5566 4.19117C14.8347 4.53301 15.9637 5.28821 16.7675 6.33898C17.5713 7.38976 18.0048 8.67702 18.0003 10C17.9994 10.4354 17.9501 10.8694 17.8533 11.294C18.7547 11.5855 19.5738 12.0869 20.2433 12.757ZM9.04235 7.31C10.0674 7.61612 11.0075 8.15607 11.7884 8.88733C12.5692 9.61859 13.1697 10.5212 13.5423 11.524C14.2721 11.1883 15.0642 11.0098 15.8673 11C15.9556 10.674 16.0004 10.3377 16.0003 10C15.9998 9.1931 15.7553 8.40523 15.2988 7.73985C14.8424 7.07447 14.1953 6.5627 13.4427 6.27174C12.6901 5.98077 11.8671 5.92423 11.0818 6.10953C10.2964 6.29482 9.58551 6.7133 9.04235 7.31ZM20.0003 17C19.9864 15.9495 19.5652 14.9454 18.8256 14.1993C18.086 13.4532 17.0857 13.0232 16.0353 13C15.1275 12.9832 14.2434 13.291 13.5423 13.868C13.405 13.9761 13.2418 14.0463 13.0688 14.0717C12.8959 14.0971 12.7194 14.0766 12.5568 14.0125C12.3942 13.9484 12.2513 13.8427 12.1422 13.7061C12.0332 13.5695 11.9619 13.4068 11.9353 13.234V13.218C11.8892 12.9266 11.8176 12.6399 11.7213 12.361C9.90035 7.071 2.00035 8.324 2.00035 14.271C2.00194 15.7899 2.60603 17.2462 3.68009 18.3203C4.75414 19.3943 6.21041 19.9984 7.72935 20H17.0003C17.796 20 18.5591 19.6839 19.1217 19.1213C19.6843 18.5587 20.0003 17.7956 20.0003 17Z" fill="#FF0000"/>
</svg>
