<svg width="16" height="16" viewBox="0 0 16 16" fill="none" xmlns="http://www.w3.org/2000/svg">
  <path d="M15.5051 12.6011C15.692 12.7886 15.8321 13.0175 15.914 13.2693C15.996 13.521 16.0175 13.7885 15.9769 14.0501C15.9362 14.3118 15.8345 14.5601 15.68 14.7751C15.5255 14.9901 15.3226 15.1657 15.0876 15.2877C13.7447 16.0054 12.1802 16.1888 10.7077 15.8012C6.79978 14.8174 1.18261 9.20022 0.198821 5.29228C-0.188835 3.81984 -0.00540787 2.25528 0.712309 0.912432C0.834279 0.677446 1.00987 0.474486 1.22488 0.319987C1.43988 0.165488 1.68824 0.0637933 1.94986 0.0231373C2.21147 -0.0175186 2.47899 0.00400704 2.73073 0.0859713C2.98248 0.167936 3.21139 0.308035 3.39892 0.494924L5.06656 2.16176C5.30705 2.39983 5.46978 2.70517 5.53331 3.03755C5.59685 3.36993 5.55821 3.71376 5.42248 4.02375C5.27395 4.37155 5.06306 4.68924 4.80022 4.96115C2.89343 6.86793 9.13287 13.1074 11.0389 11.1998C11.3108 10.936 11.6288 10.7243 11.977 10.5751C12.287 10.4392 12.6309 10.4004 12.9633 10.464C13.2957 10.5275 13.6011 10.6904 13.839 10.931L15.5051 12.6011ZM6.85657 0.618896C6.75922 0.662375 6.67155 0.724877 6.59871 0.802726C6.52587 0.880576 6.46933 0.972203 6.43241 1.07222C6.39549 1.17224 6.37894 1.27863 6.38373 1.38513C6.38852 1.49164 6.41456 1.59611 6.46031 1.69241C6.50606 1.78871 6.5706 1.87489 6.65013 1.94588C6.72967 2.01688 6.8226 2.07125 6.92345 2.10582C7.02431 2.14038 7.13106 2.15443 7.23742 2.14714C7.34378 2.13986 7.44762 2.11138 7.54282 2.06338C8.43766 1.63833 9.44212 1.50064 10.4183 1.66919C11.3946 1.83775 12.2947 2.30429 12.9952 3.0048C13.6957 3.7053 14.1623 4.60544 14.3308 5.58166C14.4994 6.55788 14.3617 7.56234 13.9366 8.45718C13.8456 8.64884 13.8345 8.8688 13.9057 9.06867C13.9768 9.26854 14.1245 9.43195 14.3161 9.52295C14.5078 9.61395 14.7277 9.62509 14.9276 9.55392C15.1275 9.48275 15.2909 9.33509 15.3819 9.14343C15.9485 7.9503 16.132 6.61105 15.9072 5.30949C15.6823 4.00792 15.0602 2.80783 14.1262 1.8739C13.1922 0.939971 11.992 0.317975 10.6905 0.0932751C9.38888 -0.131425 8.04965 0.0521808 6.85657 0.618896ZM10.7309 8.66274C10.8809 8.81268 11.0843 8.89692 11.2964 8.89692C11.5085 8.89692 11.7119 8.81268 11.8619 8.66274C12.1644 8.36687 12.4052 8.01392 12.5704 7.62434C12.7356 7.23476 12.8218 6.81628 12.8241 6.39313C12.8265 5.96999 12.7448 5.55059 12.584 5.15921C12.4231 4.76783 12.1862 4.41225 11.8869 4.11307C11.5877 3.81388 11.2321 3.57703 10.8407 3.41622C10.4493 3.25542 10.0298 3.17386 9.6067 3.17627C9.18355 3.17867 8.76509 3.26499 8.37554 3.43024C7.98598 3.59548 7.63308 3.83636 7.33726 4.13893C7.19157 4.28978 7.11095 4.49181 7.11277 4.70153C7.11459 4.91124 7.19871 5.11184 7.347 5.26014C7.4953 5.40843 7.6959 5.49255 7.90562 5.49437C8.11533 5.49619 8.31737 5.41558 8.46821 5.26988C8.77296 4.97883 9.17816 4.81642 9.59957 4.81642C10.021 4.81642 10.4262 4.97883 10.7309 5.26988C11.0308 5.56986 11.1993 5.97666 11.1993 6.40083C11.1993 6.825 11.0308 7.23181 10.7309 7.53179C10.581 7.68178 10.4967 7.88518 10.4967 8.09726C10.4967 8.30935 10.581 8.51275 10.7309 8.66274Z" fill="#515154"/>
</svg>
