<svg width="216" height="99" viewBox="0 0 216 99" fill="none" xmlns="http://www.w3.org/2000/svg">
<path fill-rule="evenodd" clip-rule="evenodd" d="M46 91H137C137.515 91 138.017 90.9444 138.5 90.8389C138.983 90.9444 139.485 91 140 91H192C195.866 91 199 87.866 199 84C199 80.134 195.866 77 192 77H186C182.134 77 179 73.866 179 70C179 66.134 182.134 63 186 63H205C208.866 63 212 59.866 212 56C212 52.134 208.866 49 205 49H183C186.866 49 190 45.866 190 42C190 38.134 186.866 35 183 35H119C122.866 35 126 31.866 126 28C126 24.134 122.866 21 119 21H62C58.134 21 55 24.134 55 28C55 31.866 58.134 35 62 35H22C18.134 35 15 38.134 15 42C15 45.866 18.134 49 22 49H47C50.866 49 54 52.134 54 56C54 59.866 50.866 63 47 63H7C3.13401 63 0 66.134 0 70C0 73.866 3.13401 77 7 77H46C42.134 77 39 80.134 39 84C39 87.866 42.134 91 46 91ZM209 91C212.866 91 216 87.866 216 84C216 80.134 212.866 77 209 77C205.134 77 202 80.134 202 84C202 87.866 205.134 91 209 91Z" fill="#F5F6FA"/>
<path fill-rule="evenodd" clip-rule="evenodd" d="M75 97C62.8497 97 53 87.3741 53 75.5C53 63.6259 62.8497 54 75 54C75.5167 54 76.0292 54.0174 76.537 54.0517C76.1842 52.0878 76 50.0654 76 48C76 29.2223 91.2223 14 110 14C124.991 14 137.716 23.702 142.239 37.1695C143.31 37.0575 144.398 37 145.5 37C162.345 37 176 50.4315 176 67C176 82.7406 163.675 95.7273 148 96.9782V97H91.5078H75ZM86.996 97H80.0314H86.996Z" fill="white"/>
<path fill-rule="evenodd" clip-rule="evenodd" d="M110 15.25C91.9127 15.25 77.25 29.9127 77.25 48C77.25 49.991 77.4275 51.9394 77.7673 53.8306L78.0504 55.4066L76.4529 55.2988C75.9731 55.2665 75.4886 55.25 75 55.25C63.5128 55.25 54.25 64.3432 54.25 75.5C54.25 86.6568 63.5128 95.75 75 95.75H147.677L147.901 95.7321C162.945 94.5317 174.75 82.0705 174.75 67C174.75 51.1412 161.674 38.25 145.5 38.25C144.442 38.25 143.397 38.3052 142.369 38.4127L141.372 38.5169L141.054 37.5674C136.697 24.5936 124.438 15.25 110 15.25ZM75 98.25C62.1866 98.25 51.75 88.0914 51.75 75.5C51.75 62.9086 62.1866 52.75 75 52.75C75.0225 52.75 75.045 52.75 75.0675 52.7501C74.8581 51.196 74.75 49.6103 74.75 48C74.75 28.532 90.532 12.75 110 12.75C125.196 12.75 138.142 22.3642 143.095 35.8383C143.889 35.7798 144.691 35.75 145.5 35.75C163.015 35.75 177.25 49.7217 177.25 67C177.25 83.0228 165.006 96.2825 149.25 98.1116V98.25H75Z" fill="#B6B0C2"/>
<path fill-rule="evenodd" clip-rule="evenodd" d="M99.6123 21.3426C99.6123 53.5657 128.633 80.118 166 83.7029C161.317 89.4611 154.086 93.3675 145.847 93.9813V94H78.7431C70.6013 94 57 90.5697 57 75.5483C57 60.527 67.5742 57.0967 78.7431 57.0967C79.218 57.0967 79.6891 57.1116 80.1559 57.141C79.8316 55.4556 79.7746 53.7184 79.6623 51.9474C78.9038 39.9842 84.1229 24.907 99.6304 20C99.618 20.4473 99.6123 20.8944 99.6123 21.3426ZM110.116 71.7579C107.078 71.7579 104.614 74.1921 104.614 77.1949C104.614 80.1976 107.078 82.6318 110.116 82.6318C113.155 82.6318 115.618 80.1976 115.618 77.1949C115.618 74.1921 113.155 71.7579 110.116 71.7579Z" fill="#F5F6FA"/>
<path fill-rule="evenodd" clip-rule="evenodd" d="M110.5 73.25C108.153 73.25 106.25 75.1528 106.25 77.5C106.25 79.8472 108.153 81.75 110.5 81.75C112.847 81.75 114.75 79.8472 114.75 77.5C114.75 75.1528 112.847 73.25 110.5 73.25ZM103.75 77.5C103.75 73.7721 106.772 70.75 110.5 70.75C114.228 70.75 117.25 73.7721 117.25 77.5C117.25 81.2279 114.228 84.25 110.5 84.25C106.772 84.25 103.75 81.2279 103.75 77.5Z" fill="#B6B0C2"/>
<path fill-rule="evenodd" clip-rule="evenodd" d="M93.9987 54.5293C94.4118 53.9762 95.1951 53.8628 95.7482 54.276L102.748 59.5053C103.06 59.7381 103.245 60.1028 103.25 60.4918C103.255 60.8809 103.078 61.2499 102.772 61.49L95.7718 66.9832C95.2287 67.4094 94.4429 67.3146 94.0167 66.7715C93.5905 66.2284 93.6853 65.4427 94.2284 65.0165L99.9441 60.5311L94.252 56.2788C93.6989 55.8657 93.5855 55.0824 93.9987 54.5293Z" fill="#B6B0C2"/>
<path fill-rule="evenodd" clip-rule="evenodd" d="M127.001 54.5293C126.588 53.9762 125.805 53.8628 125.252 54.276L118.252 59.5053C117.94 59.7381 117.755 60.1028 117.75 60.4918C117.745 60.8809 117.922 61.2499 118.228 61.49L125.228 66.9832C125.771 67.4094 126.557 67.3146 126.983 66.7715C127.409 66.2284 127.315 65.4427 126.772 65.0165L121.056 60.5311L126.748 56.2788C127.301 55.8657 127.415 55.0824 127.001 54.5293Z" fill="#B6B0C2"/>
<path fill-rule="evenodd" clip-rule="evenodd" d="M118.792 23.6805C118.615 24.3479 119.013 25.0321 119.68 25.2087C125.759 26.8175 130.562 31.5742 132.236 37.6267C132.42 38.292 133.108 38.6823 133.774 38.4983C134.439 38.3143 134.829 37.6257 134.645 36.9603C132.735 30.0521 127.259 24.6283 120.32 22.7919C119.652 22.6153 118.968 23.0131 118.792 23.6805Z" fill="#E1E2EA"/>
<path fill-rule="evenodd" clip-rule="evenodd" d="M141 2C139.895 2 139 2.89543 139 4C139 5.10457 139.895 6 141 6C142.105 6 143 5.10457 143 4C143 2.89543 142.105 2 141 2ZM137 4C137 1.79086 138.791 0 141 0C143.209 0 145 1.79086 145 4C145 6.20914 143.209 8 141 8C138.791 8 137 6.20914 137 4Z" fill="#B6B0C2"/>
<path d="M172 23C173.657 23 175 21.6569 175 20C175 18.3431 173.657 17 172 17C170.343 17 169 18.3431 169 20C169 21.6569 170.343 23 172 23Z" fill="#B6B0C2"/>
<path fill-rule="evenodd" clip-rule="evenodd" d="M147.873 13.8739C148.362 13.3858 149.153 13.3858 149.641 13.8739L153 17.2327L156.359 13.8739C156.847 13.3858 157.638 13.3858 158.126 13.8739C158.615 14.3621 158.615 15.1535 158.126 15.6417L154.768 19.0005L157.999 22.2322C158.488 22.7203 158.488 23.5118 157.999 23.9999C157.511 24.4881 156.72 24.4881 156.232 23.9999L153 20.7682L149.768 23.9999C149.28 24.4881 148.489 24.4881 148.001 23.9999C147.512 23.5118 147.512 22.7203 148.001 22.2322L151.232 19.0005L147.873 15.6417C147.385 15.1535 147.385 14.3621 147.873 13.8739Z" fill="#B6B0C2"/>
<path fill-rule="evenodd" clip-rule="evenodd" d="M53.5199 31.7118C54.0081 31.2237 54.7995 31.2237 55.2877 31.7118L57.4038 33.8279L59.5199 31.7118C60.0081 31.2237 60.7995 31.2237 61.2877 31.7118C61.7758 32.2 61.7758 32.9914 61.2877 33.4796L59.1716 35.5957L61.2877 37.7118C61.7758 38.2 61.7758 38.9914 61.2877 39.4796C60.7995 39.9677 60.0081 39.9677 59.5199 39.4796L57.4038 37.3635L55.2877 39.4796C54.7995 39.9677 54.0081 39.9677 53.5199 39.4796C53.0318 38.9914 53.0318 38.2 53.5199 37.7118L55.636 35.5957L53.5199 33.4796C53.0318 32.9914 53.0318 32.2 53.5199 31.7118Z" fill="#B6B0C2"/>
<path d="M68 26C69.6569 26 71 24.6569 71 23C71 21.3431 69.6569 20 68 20C66.3431 20 65 21.3431 65 23C65 24.6569 66.3431 26 68 26Z" fill="#B6B0C2"/>
</svg>
