<svg width="9" height="7" viewBox="0 0 9 7" fill="none" xmlns="http://www.w3.org/2000/svg">
<path d="M0.750222 6.5L8.24971 6.5C8.39234 6.50007 8.53204 6.45945 8.65241 6.38292C8.77278 6.3064 8.86883 6.19713 8.92929 6.06794C8.98975 5.93875 9.01212 5.795 8.99376 5.65355C8.97541 5.5121 8.9171 5.37881 8.82567 5.26933L5.07592 0.769644C5.00554 0.685244 4.91747 0.617343 4.81794 0.570747C4.71841 0.524152 4.60986 0.5 4.49996 0.5C4.39007 0.5 4.28152 0.524152 4.18199 0.570747C4.08246 0.617343 3.99439 0.685244 3.924 0.769644L0.174261 5.26933C0.0828307 5.37881 0.024518 5.5121 0.0061636 5.65355C-0.0121908 5.795 0.0101754 5.93875 0.0706367 6.06794C0.131098 6.19713 0.227148 6.3064 0.347518 6.38292C0.467888 6.45945 0.607585 6.50007 0.750222 6.5Z" fill="#858A8F"/>
</svg>
