<svg width="9" height="7" viewBox="0 0 9 7" fill="none" xmlns="http://www.w3.org/2000/svg">
<path d="M8.24978 0.5H0.750293C0.607656 0.499935 0.467958 0.540548 0.347588 0.617075C0.227218 0.693602 0.131169 0.80287 0.0707076 0.932059C0.0102462 1.06125 -0.0121191 1.205 0.00623528 1.34645C0.0245896 1.4879 0.0829024 1.62119 0.174333 1.73067L3.92408 6.23036C3.99446 6.31476 4.08253 6.38266 4.18206 6.42925C4.28159 6.47585 4.39014 6.5 4.50004 6.5C4.60993 6.5 4.71848 6.47585 4.81801 6.42925C4.91754 6.38266 5.00561 6.31476 5.076 6.23036L8.82574 1.73067C8.91717 1.62119 8.97548 1.4879 8.99384 1.34645C9.01219 1.205 8.98982 1.06125 8.92936 0.932059C8.8689 0.80287 8.77285 0.693602 8.65248 0.617075C8.53211 0.540548 8.39242 0.499935 8.24978 0.5Z" fill="#858A8F"/>
</svg>
