<svg width="20" height="20" viewBox="0 0 20 20" fill="none" xmlns="http://www.w3.org/2000/svg">
  <path d="M2.25053e-07 9.99894C0.00312759 7.34802 1.05759 4.80656 2.93208 2.93208C4.80656 1.05759 7.34802 0.00312737 9.99894 0C10.24 0 10.4712 0.0957687 10.6417 0.266238C10.8122 0.436708 10.9079 0.667914 10.9079 0.908994C10.9079 1.15007 10.8122 1.38128 10.6417 1.55175C10.4712 1.72222 10.24 1.81799 9.99894 1.81799C8.7834 1.81903 7.58336 2.09093 6.48608 2.61392C5.38881 3.13691 4.42186 3.89785 3.65554 4.8414C2.88923 5.78496 2.3428 6.88743 2.056 8.06865C1.76919 9.24987 1.74921 10.4802 1.99751 11.6701C2.24581 12.86 2.75615 13.9796 3.49143 14.9475C4.2267 15.9155 5.16843 16.7074 6.24815 17.2658C7.32787 17.8241 8.51844 18.1348 9.73331 18.1753C10.9482 18.2159 12.1568 17.9851 13.2713 17.5C13.3813 17.4478 13.5007 17.4184 13.6223 17.4132C13.7439 17.4081 13.8653 17.4275 13.9793 17.4702C14.0933 17.5128 14.1975 17.578 14.2859 17.6617C14.3742 17.7455 14.4448 17.8461 14.4935 17.9577C14.5423 18.0692 14.5681 18.1894 14.5694 18.3111C14.5708 18.4328 14.5477 18.5536 14.5016 18.6662C14.4554 18.7788 14.3871 18.881 14.3007 18.9668C14.2143 19.0525 14.1115 19.12 13.9985 19.1652C12.4767 19.8294 10.8134 20.1041 9.15887 19.9646C7.50431 19.8251 5.91053 19.2758 4.52141 18.3662C3.13228 17.4566 1.99155 16.2154 1.20218 14.7546C0.412806 13.2938 -0.000352026 11.6594 2.25053e-07 9.99894ZM13.9985 0.832639C13.8885 0.780523 13.7692 0.75103 13.6476 0.745911C13.5259 0.740792 13.4045 0.760149 13.2905 0.802836C13.1766 0.845523 13.0723 0.910669 12.984 0.994411C12.8956 1.07815 12.825 1.17878 12.7763 1.29033C12.7276 1.40188 12.7018 1.52208 12.7004 1.64379C12.699 1.76551 12.7221 1.88626 12.7683 1.99888C12.8144 2.11151 12.8827 2.21371 12.9692 2.29944C13.0556 2.38516 13.1583 2.45266 13.2713 2.49792C14.4866 3.02795 15.5549 3.84542 16.3842 4.87995C17.2134 5.91447 17.7788 7.13505 18.0317 8.43658C18.2845 9.73811 18.2172 11.0816 17.8356 12.3514C17.454 13.6211 16.7695 14.7791 15.841 15.7256C15.7555 15.8104 15.6876 15.9114 15.6415 16.0226C15.5953 16.1339 15.5717 16.2532 15.572 16.3737C15.5723 16.4941 15.5966 16.6133 15.6434 16.7243C15.6902 16.8353 15.7586 16.9359 15.8446 17.0203C15.9306 17.1046 16.0326 17.171 16.1445 17.2156C16.2564 17.2602 16.376 17.2821 16.4965 17.28C16.6169 17.278 16.7358 17.252 16.8461 17.2036C16.9564 17.1552 17.056 17.0854 17.1391 16.9982C18.2735 15.8414 19.1099 14.4262 19.5761 12.8744C20.0423 11.3227 20.1245 9.68092 19.8155 8.0904C19.5065 6.49988 18.8156 5.00827 17.8023 3.74397C16.789 2.47968 15.4836 1.48057 13.9985 0.832639Z" fill="#FF0000"/>
</svg>
