<svg width="16" height="17" viewBox="0 0 16 17" fill="none" xmlns="http://www.w3.org/2000/svg">
<path d="M8 0.5C6.41775 0.5 4.87103 0.969192 3.55544 1.84824C2.23985 2.72729 1.21447 3.97672 0.608967 5.43853C0.0034663 6.90034 -0.15496 8.50887 0.153721 10.0607C0.462403 11.6126 1.22433 13.038 2.34315 14.1569C3.46197 15.2757 4.88743 16.0376 6.43928 16.3463C7.99113 16.655 9.59966 16.4965 11.0615 15.891C12.5233 15.2855 13.7727 14.2602 14.6518 12.9446C15.5308 11.629 16 10.0822 16 8.5C15.9975 6.37904 15.1538 4.34566 13.6541 2.84591C12.1543 1.34616 10.121 0.502502 8 0.5ZM8 15.0455C6.70543 15.0455 5.43994 14.6616 4.36354 13.9423C3.28715 13.2231 2.4482 12.2009 1.95279 11.0048C1.45738 9.80881 1.32776 8.49274 1.58032 7.22304C1.83288 5.95335 2.45627 4.78706 3.37167 3.87166C4.28707 2.95627 5.45335 2.33287 6.72305 2.08031C7.99274 1.82776 9.30881 1.95738 10.5048 2.45279C11.7009 2.9482 12.7231 3.78715 13.4423 4.86354C14.1616 5.93993 14.5455 7.20543 14.5455 8.5C14.5435 10.2354 13.8533 11.8991 12.6262 13.1262C11.3991 14.3533 9.73537 15.0435 8 15.0455ZM12.3636 8.5C12.3636 8.69288 12.287 8.87787 12.1506 9.01426C12.0142 9.15065 11.8293 9.22727 11.6364 9.22727H8C7.80712 9.22727 7.62213 9.15065 7.48574 9.01426C7.34935 8.87787 7.27273 8.69288 7.27273 8.5V4.13636C7.27273 3.94348 7.34935 3.75849 7.48574 3.6221C7.62213 3.48571 7.80712 3.40909 8 3.40909C8.19289 3.40909 8.37787 3.48571 8.51426 3.6221C8.65065 3.75849 8.72727 3.94348 8.72727 4.13636V7.77273H11.6364C11.8293 7.77273 12.0142 7.84935 12.1506 7.98574C12.287 8.12213 12.3636 8.30711 12.3636 8.5Z" fill="#858A8F"/>
</svg>
