<svg width="40" height="40" viewBox="0 0 40 40" fill="none" xmlns="http://www.w3.org/2000/svg">
<rect width="40" height="40" rx="4" fill="#F5F6FA"/>
<path d="M15.004 26.6264L13.6 16.8H26.4L24.996 26.6264C24.9415 27.0077 24.7513 27.3565 24.4603 27.6088C24.1694 27.8611 23.7971 28 23.412 28H16.588C16.2029 28 15.8306 27.8611 15.5397 27.6088C15.2487 27.3565 15.0585 27.0077 15.004 26.6264ZM27.2 13.6H23.2V12.8C23.2 12.5878 23.1157 12.3843 22.9657 12.2343C22.8157 12.0843 22.6122 12 22.4 12H17.6C17.3878 12 17.1843 12.0843 17.0343 12.2343C16.8843 12.3843 16.8 12.5878 16.8 12.8V13.6H12.8C12.5878 13.6 12.3843 13.6843 12.2343 13.8343C12.0843 13.9843 12 14.1878 12 14.4C12 14.6122 12.0843 14.8157 12.2343 14.9657C12.3843 15.1157 12.5878 15.2 12.8 15.2H27.2C27.4122 15.2 27.6157 15.1157 27.7657 14.9657C27.9157 14.8157 28 14.6122 28 14.4C28 14.1878 27.9157 13.9843 27.7657 13.8343C27.6157 13.6843 27.4122 13.6 27.2 13.6Z" fill="#858A8F"/>
</svg>
