<svg width="16" height="17" viewBox="0 0 16 17" fill="none" xmlns="http://www.w3.org/2000/svg">
<path d="M15.2 5.3H5.6C5.38783 5.3 5.18434 5.38429 5.03431 5.53431C4.88429 5.68434 4.8 5.88783 4.8 6.1V15.7C4.8 15.9122 4.88429 16.1157 5.03431 16.2657C5.18434 16.4157 5.38783 16.5 5.6 16.5H15.2C15.4122 16.5 15.6157 16.4157 15.7657 16.2657C15.9157 16.1157 16 15.9122 16 15.7V6.1C16 5.88783 15.9157 5.68434 15.7657 5.53431C15.6157 5.38429 15.4122 5.3 15.2 5.3ZM14.4 14.9H6.4V6.9H14.4V14.9ZM3.2 10.9C3.2 11.1122 3.11571 11.3157 2.96569 11.4657C2.81566 11.6157 2.61217 11.7 2.4 11.7H0.8C0.587827 11.7 0.384344 11.6157 0.234315 11.4657C0.0842854 11.3157 0 11.1122 0 10.9V1.3C0 1.08783 0.0842854 0.884344 0.234315 0.734315C0.384344 0.584285 0.587827 0.5 0.8 0.5H10.4C10.6122 0.5 10.8157 0.584285 10.9657 0.734315C11.1157 0.884344 11.2 1.08783 11.2 1.3V2.9C11.2 3.11217 11.1157 3.31566 10.9657 3.46569C10.8157 3.61571 10.6122 3.7 10.4 3.7C10.1878 3.7 9.98434 3.61571 9.83432 3.46569C9.68429 3.31566 9.6 3.11217 9.6 2.9V2.1H1.6V10.1H2.4C2.61217 10.1 2.81566 10.1843 2.96569 10.3343C3.11571 10.4843 3.2 10.6878 3.2 10.9Z" fill="#2D2627"/>
</svg>
