<svg width="15" height="20" viewBox="0 0 15 20" fill="none" xmlns="http://www.w3.org/2000/svg">
<path d="M12.5 6.66667H10.825L10.8092 5H12.5V0H2.5V5H4.16667V6.66667H2.5C1.83696 6.66667 1.20107 6.93006 0.732233 7.3989C0.263392 7.86774 0 8.50362 0 9.16667V20H15V9.16667C15 8.50362 14.7366 7.86774 14.2678 7.3989C13.7989 6.93006 13.163 6.66667 12.5 6.66667ZM4.16667 1.66667H10.8333V3.33333H4.16667V1.66667ZM13.3333 18.3333H1.66667V9.16667C1.66667 8.94565 1.75446 8.73369 1.91074 8.57741C2.06702 8.42113 2.27899 8.33333 2.5 8.33333H5.83333V5H9.14167L9.175 8.33333H12.5C12.721 8.33333 12.933 8.42113 13.0893 8.57741C13.2455 8.73369 13.3333 8.94565 13.3333 9.16667V18.3333ZM8.33333 12.5H10V14.1667H8.33333V15.8333H6.66667V14.1667H5V12.5H6.66667V10.8333H8.33333V12.5Z" fill="#FF0000"/>
</svg>
