<svg width="20" height="20" viewBox="0 0 20 20" fill="none" xmlns="http://www.w3.org/2000/svg">
<rect width="20" height="20" rx="10" fill="#FF2550"/>
<path d="M13.7564 7.37206L11.1284 10L13.7564 12.6279C13.8326 12.7016 13.8934 12.7896 13.9352 12.887C13.977 12.9843 13.999 13.0891 14 13.195C14.0009 13.301 13.9807 13.4061 13.9406 13.5041C13.9004 13.6022 13.8412 13.6913 13.7663 13.7663C13.6913 13.8412 13.6022 13.9004 13.5041 13.9406C13.4061 13.9807 13.301 14.0009 13.195 14C13.0891 13.999 12.9843 13.977 12.887 13.9352C12.7896 13.8934 12.7016 13.8326 12.6279 13.7564L10 11.1284L7.37206 13.7564C7.29844 13.8326 7.21038 13.8934 7.11302 13.9352C7.01565 13.977 6.91094 13.999 6.80497 14C6.69901 14.0009 6.59392 13.9807 6.49585 13.9406C6.39777 13.9004 6.30867 13.8412 6.23374 13.7663C6.15881 13.6913 6.09955 13.6022 6.05943 13.5041C6.0193 13.4061 5.99911 13.301 6.00003 13.195C6.00095 13.0891 6.02297 12.9843 6.06479 12.887C6.10661 12.7896 6.16741 12.7016 6.24363 12.6279L8.87157 10L6.24363 7.37206C6.16741 7.29844 6.10661 7.21038 6.06479 7.11302C6.02297 7.01565 6.00095 6.91094 6.00003 6.80497C5.99911 6.69901 6.0193 6.59392 6.05943 6.49585C6.09955 6.39777 6.15881 6.30867 6.23374 6.23374C6.30867 6.15881 6.39777 6.09955 6.49585 6.05943C6.59392 6.0193 6.69901 5.99911 6.80497 6.00003C6.91094 6.00095 7.01565 6.02297 7.11302 6.06479C7.21038 6.10661 7.29844 6.16741 7.37206 6.24363L10 8.87157L12.6279 6.24363C12.7016 6.16741 12.7896 6.10661 12.887 6.06479C12.9843 6.02297 13.0891 6.00095 13.195 6.00003C13.301 5.99911 13.4061 6.0193 13.5041 6.05943C13.6022 6.09955 13.6913 6.15881 13.7663 6.23374C13.8412 6.30867 13.9004 6.39777 13.9406 6.49585C13.9807 6.59392 14.0009 6.69901 14 6.80497C13.999 6.91094 13.977 7.01565 13.9352 7.11302C13.8934 7.21038 13.8326 7.29844 13.7564 7.37206Z" fill="white"/>
</svg>
