<svg width="16" height="16" viewBox="0 0 16 16" fill="none" xmlns="http://www.w3.org/2000/svg">
<path d="M3.004 14.6264L1.6 4.8H14.4L12.996 14.6264C12.9415 15.0077 12.7513 15.3565 12.4603 15.6088C12.1694 15.8611 11.7971 16 11.412 16H4.588C4.20286 16 3.83064 15.8611 3.53966 15.6088C3.24869 15.3565 3.0585 15.0077 3.004 14.6264ZM15.2 1.6H11.2V0.8C11.2 0.587827 11.1157 0.384344 10.9657 0.234315C10.8157 0.0842854 10.6122 0 10.4 0H5.6C5.38783 0 5.18434 0.0842854 5.03431 0.234315C4.88429 0.384344 4.8 0.587827 4.8 0.8V1.6H0.8C0.587827 1.6 0.384344 1.68429 0.234315 1.83431C0.0842854 1.98434 0 2.18783 0 2.4C0 2.61217 0.0842854 2.81566 0.234315 2.96569C0.384344 3.11571 0.587827 3.2 0.8 3.2H15.2C15.4122 3.2 15.6157 3.11571 15.7657 2.96569C15.9157 2.81566 16 2.61217 16 2.4C16 2.18783 15.9157 1.98434 15.7657 1.83431C15.6157 1.68429 15.4122 1.6 15.2 1.6Z" fill="#858A8F"/>
</svg>
