<svg width="13" height="14" viewBox="0 0 13 14" fill="none" xmlns="http://www.w3.org/2000/svg">
<path d="M0.7 12.6H11.9C12.0857 12.6 12.2637 12.6737 12.395 12.805C12.5263 12.9363 12.6 13.1143 12.6 13.3C12.6 13.4857 12.5263 13.6637 12.395 13.795C12.2637 13.9263 12.0857 14 11.9 14H0.7C0.514349 14 0.336301 13.9263 0.205025 13.795C0.0737498 13.6637 0 13.4857 0 13.3C0 13.1143 0.0737498 12.9363 0.205025 12.805C0.336301 12.6737 0.514349 12.6 0.7 12.6ZM6.3 0C6.11435 0 5.9363 0.0737498 5.80503 0.205025C5.67375 0.336301 5.6 0.514348 5.6 0.7V8.8102L3.9949 7.2051C3.93033 7.13824 3.85309 7.08491 3.76768 7.04823C3.68228 7.01154 3.59043 6.99223 3.49748 6.99142C3.40454 6.99062 3.31236 7.00833 3.22633 7.04352C3.14031 7.07872 3.06215 7.1307 2.99642 7.19642C2.9307 7.26215 2.87872 7.3403 2.84352 7.42633C2.80833 7.51236 2.79062 7.60454 2.79142 7.69748C2.79223 7.79043 2.81154 7.88228 2.84823 7.96768C2.88492 8.05309 2.93824 8.13033 3.0051 8.1949L5.8051 10.9949C5.87027 11.0598 5.94757 11.1111 6.0326 11.1461C6.11726 11.1817 6.20817 11.2 6.3 11.2C6.39183 11.2 6.48274 11.1817 6.5674 11.1461C6.65243 11.1111 6.72973 11.0598 6.7949 10.9949L9.5949 8.1949C9.72241 8.06288 9.79297 7.88606 9.79137 7.70252C9.78978 7.51898 9.71616 7.34341 9.58637 7.21363C9.45659 7.08384 9.28102 7.01022 9.09748 7.00863C8.91394 7.00703 8.73712 7.07759 8.6051 7.2051L7 8.8102V0.7C7 0.514348 6.92625 0.336301 6.79498 0.205025C6.6637 0.0737498 6.48565 0 6.3 0Z" fill="#2D2627"/>
</svg>
