<svg width="13" height="14" viewBox="0 0 13 14" fill="none" xmlns="http://www.w3.org/2000/svg">
<path d="M1.10039 12.6H12.3004C12.486 12.6 12.6641 12.6737 12.7954 12.805C12.9266 12.9363 13.0004 13.1143 13.0004 13.3C13.0004 13.4857 12.9266 13.6637 12.7954 13.795C12.6641 13.9263 12.486 14 12.3004 14H1.10039C0.914739 14 0.736691 13.9263 0.605416 13.795C0.47414 13.6637 0.400391 13.4857 0.400391 13.3C0.400391 13.1143 0.47414 12.9363 0.605416 12.805C0.736691 12.6737 0.914739 12.6 1.10039 12.6V12.6ZM6.70039 0C6.51474 0 6.33669 0.0737498 6.20542 0.205025C6.07414 0.336301 6.00039 0.514348 6.00039 0.7V8.8102L4.39529 7.2051C4.33072 7.13824 4.25348 7.08491 4.16807 7.04823C4.08267 7.01154 3.99082 6.99223 3.89787 6.99142C3.80493 6.99062 3.71275 7.00833 3.62672 7.04352C3.5407 7.07872 3.46254 7.1307 3.39681 7.19642C3.33109 7.26215 3.27911 7.3403 3.24392 7.42633C3.20872 7.51236 3.19101 7.60453 3.19182 7.69748C3.19262 7.79043 3.21193 7.88228 3.24862 7.96768C3.28531 8.05309 3.33863 8.13033 3.40549 8.1949L6.20549 10.9949C6.27066 11.0598 6.34796 11.1111 6.43299 11.1461C6.51765 11.1817 6.60856 11.2 6.70039 11.2C6.79222 11.2 6.88313 11.1817 6.96779 11.1461C7.05282 11.1111 7.13012 11.0598 7.19529 10.9949L9.99529 8.1949C10.1228 8.06288 10.1934 7.88606 10.1918 7.70252C10.1902 7.51898 10.1165 7.34341 9.98676 7.21363C9.85698 7.08384 9.68141 7.01022 9.49787 7.00863C9.31433 7.00703 9.13751 7.07759 9.00549 7.2051L7.40039 8.8102V0.7C7.40039 0.514348 7.32664 0.336301 7.19537 0.205025C7.06409 0.0737498 6.88604 0 6.70039 0V0Z" fill="#FF0000"/>
</svg>
