<svg width="8" height="6" viewBox="0 0 8 6" fill="none" xmlns="http://www.w3.org/2000/svg">
  <path d="M0.444504 0H7.5555C7.63596 -1.19209e-05 7.71491 0.0210834 7.78394 0.0610347C7.85297 0.100986 7.90947 0.158294 7.94743 0.226845C7.98539 0.295397 8.00338 0.37262 7.99948 0.450275C7.99557 0.527931 7.96992 0.603106 7.92527 0.66778L4.36977 5.82107C4.32677 5.87661 4.27096 5.92171 4.20677 5.95277C4.14259 5.98383 4.07179 6 4 6C3.92821 6 3.85741 5.98383 3.79322 5.95277C3.72904 5.92171 3.67323 5.87661 3.63023 5.82107L0.074732 0.66778C0.0300755 0.603106 0.00442724 0.527931 0.00052348 0.450275C-0.00338028 0.37262 0.0146069 0.295397 0.0525661 0.226845C0.0905253 0.158294 0.147033 0.100986 0.216059 0.0610347C0.285085 0.0210834 0.364041 -1.19209e-05 0.444504 0Z" fill="#515154"/>
</svg>
