<svg width="15" height="16" viewBox="0 0 15 16" fill="none" xmlns="http://www.w3.org/2000/svg">
<path d="M10.9768 0.213182L2.8313 8.35872C2.75113 8.43838 2.69083 8.53579 2.6553 8.64308L1.49165 12.134C1.45524 12.2434 1.44532 12.3598 1.46273 12.4737C1.48014 12.5876 1.52436 12.6958 1.59177 12.7892C1.65917 12.8827 1.74782 12.9588 1.85041 13.0113C1.953 13.0638 2.0666 13.0912 2.18184 13.0911C2.25993 13.091 2.3375 13.0785 2.41166 13.054L5.9026 11.8904C6.00971 11.8545 6.10704 11.7942 6.18697 11.7144L14.3325 3.56885C14.4688 3.43247 14.5454 3.24751 14.5454 3.05466C14.5454 2.86182 14.4688 2.67686 14.3325 2.54048L12.0052 0.213182C11.8688 0.0768379 11.6839 0.000244141 11.491 0.000244141C11.2982 0.000244141 11.1132 0.0768379 10.9768 0.213182ZM5.28005 10.5646L3.33167 11.214L3.98113 9.26563L11.491 1.75574L12.7899 3.05466L5.28005 10.5646ZM0.72728 14.5457H13.091C13.2839 14.5457 13.4689 14.6223 13.6053 14.7587C13.7417 14.8951 13.8183 15.0801 13.8183 15.273C13.8183 15.4659 13.7417 15.6508 13.6053 15.7872C13.4689 15.9236 13.2839 16.0002 13.091 16.0002H0.72728C0.534393 16.0002 0.349407 15.9236 0.213015 15.7872C0.0766239 15.6508 0 15.4659 0 15.273C0 15.0801 0.0766239 14.8951 0.213015 14.7587C0.349407 14.6223 0.534393 14.5457 0.72728 14.5457Z" fill="#2D2627"/>
</svg>
