<svg width="20" height="20" viewBox="0 0 20 20" fill="none" xmlns="http://www.w3.org/2000/svg">
<path d="M20 4.19094H16.9943L19.7544 1.43079L18.5692 0.245589L15.8091 3.00574V0H14.1327V4.57315C13.4466 3.84276 12.6367 3.23948 11.7405 2.79117C11.1112 2.51361 10.4085 2.44922 9.73933 2.60779C9.07011 2.76635 8.47101 3.1392 8.03319 3.66959C6.01064 5.69213 1.31512 16.8476 0.78622 18.1174L0 20L1.88341 19.2138C3.14907 18.6849 14.3087 13.9894 16.3304 11.9668C16.8606 11.5291 17.2335 10.9302 17.3922 10.2612C17.5509 9.59214 17.4868 8.8896 17.2097 8.26034C16.7608 7.36401 16.1572 6.55392 15.4268 5.86731H20V4.19094ZM15.1452 10.7816C14.5366 11.2929 13.8722 11.7338 13.1646 12.0959L11.163 10.0943L9.97779 11.2795L11.6181 12.9215C9.17397 14.1788 5.93186 15.6532 3.14153 16.861C3.84309 15.2341 4.63853 13.4538 5.4281 11.7648L7.0961 13.4278L8.28213 12.2417L6.19421 10.1546C6.94858 8.59394 7.66942 7.20674 8.26369 6.21516L10.3969 8.34835L11.5821 7.16315L9.2494 4.82796C9.95935 4.16663 10.3944 4.05515 11.0792 4.33175C12.0297 4.87423 12.8821 5.573 13.6004 6.39873C14.4265 7.11732 15.1255 7.96995 15.6682 8.92083C15.877 9.40698 15.9583 9.96941 15.1452 10.7816Z" fill="#FF0000"/>
</svg>
