<svg width="17" height="14" viewBox="0 0 17 14" fill="none" xmlns="http://www.w3.org/2000/svg">
  <path d="M14.8205 0.0765336L10.4571 2.25821C8.03691 3.46903 6.6181 5.05656 6.24067 6.98152C5.70398 9.70934 7.6893 12.7688 8.32126 13.0328C8.40955 13.0704 8.50452 13.09 8.60051 13.0902C13.4598 13.0902 16.6 10.5216 16.6 6.54519C16.6 1.67933 15.9455 0.496142 15.6597 0.213252C15.5518 0.105294 15.4127 0.0339999 15.2621 0.0094631C15.1115 -0.0150737 14.957 0.00839065 14.8205 0.0765336ZM9.29356 11.6103C9.28599 10.3498 9.65975 9.11648 10.3658 8.07224C11.0718 7.02799 12.0771 6.22165 13.2497 5.75906C13.3388 5.72235 13.4197 5.6683 13.4877 5.60004C13.5558 5.53178 13.6095 5.45069 13.646 5.36146C13.6824 5.27223 13.7007 5.17666 13.6998 5.08029C13.699 4.98392 13.679 4.88868 13.641 4.8001C13.6031 4.71153 13.5479 4.63138 13.4786 4.56433C13.4094 4.49728 13.3276 4.44465 13.2378 4.40951C13.1481 4.37437 13.0523 4.35741 12.9559 4.35963C12.8596 4.36185 12.7646 4.38319 12.6766 4.42242C11.4949 4.88516 10.4492 5.63883 9.63642 6.61354C8.82368 7.58824 8.27025 8.7524 8.02746 9.99805C7.63994 9.1378 7.51497 8.1823 7.66821 7.25132C7.9591 5.79688 9.11466 4.55623 11.1065 3.55994L14.7645 1.73097C15.0741 3.316 15.202 4.93118 15.1455 6.54519C15.1455 9.4999 12.9202 11.3958 9.29428 11.6103H9.29356ZM2.43584 1.73097C2.1264 3.31602 1.9988 4.93121 2.0555 6.54519C2.03164 7.53883 2.3272 8.5139 2.89872 9.32707C3.47024 10.1402 4.28757 10.7486 5.23056 11.0627C5.32077 11.0967 5.40333 11.1482 5.47343 11.2144C5.54353 11.2806 5.59978 11.36 5.63891 11.4481C5.67804 11.5362 5.69926 11.6312 5.70134 11.7276C5.70342 11.8239 5.68633 11.9198 5.65104 12.0095C5.61576 12.0992 5.56299 12.181 5.49581 12.2501C5.42863 12.3192 5.34838 12.3743 5.25972 12.4121C5.17106 12.45 5.07576 12.4698 4.97937 12.4705C4.88297 12.4712 4.78741 12.4527 4.69823 12.4161C3.48304 11.9952 2.43222 11.2006 1.69624 10.146C0.960266 9.0914 0.576901 7.83097 0.60105 6.54519C0.60105 1.67933 1.25555 0.496142 1.54135 0.213252C1.6492 0.105294 1.78828 0.0339999 1.9389 0.0094631C2.08951 -0.0150737 2.24403 0.00839065 2.38057 0.0765336L6.74391 2.25821C6.91701 2.34442 7.04878 2.49587 7.11022 2.67923C7.17166 2.86259 7.15774 3.06286 7.07153 3.23596C6.98531 3.40906 6.83386 3.54082 6.6505 3.60226C6.46714 3.6637 6.26687 3.64979 6.09377 3.56357L2.43584 1.73097Z" fill="#2D2627"/>
</svg>
