<svg width="13" height="16" viewBox="0 0 13 16" fill="none" xmlns="http://www.w3.org/2000/svg">
<path d="M12.9999 6.54596C13.0022 5.68863 12.8363 4.83923 12.5118 4.04628C12.1872 3.25333 11.7104 2.53235 11.1084 1.9245C9.89273 0.696901 8.24131 0.00464516 6.51745 2.3292e-05C4.79359 -0.00459858 3.13852 0.678792 1.91631 1.89986C0.694107 3.12092 0.00489467 4.77964 0.000293119 6.51111C-0.0149729 8.52262 0.566384 10.4931 1.67027 12.1715C2.77416 13.8499 4.35059 15.1602 6.19864 15.9354C6.29311 15.9783 6.39568 16.0004 6.49938 16C6.60383 16.0002 6.70712 15.9779 6.80228 15.9346C8.64471 15.1618 10.2172 13.857 11.3206 12.1856C12.4239 10.5142 13.0084 8.55139 12.9999 6.54596ZM6.49938 14.4752C4.97541 13.8012 3.68308 12.691 2.78403 11.2832C1.88498 9.87551 1.41911 8.23277 1.44469 6.56048C1.44469 5.89376 1.57544 5.23357 1.82946 4.6176C2.08348 4.00163 2.45581 3.44194 2.92518 2.9705C3.39455 2.49906 3.95177 2.12509 4.56503 1.86994C5.1783 1.6148 5.83559 1.48348 6.49938 1.48348C7.16317 1.48348 7.82046 1.6148 8.43372 1.86994C9.04698 2.12509 9.60421 2.49906 10.0736 2.9705C10.5429 3.44194 10.9153 4.00163 11.1693 4.6176C11.4233 5.23357 11.5541 5.89376 11.5541 6.56048C11.5541 6.57573 11.5541 6.59316 11.5541 6.60768C11.5716 8.27224 11.1019 9.90529 10.2032 11.304C9.30459 12.7027 8.01665 13.8054 6.49938 14.4752ZM7.94522 6.56048C7.94522 6.84771 7.86043 7.12848 7.70156 7.3673C7.54268 7.60612 7.31687 7.79226 7.05268 7.90217C6.78849 8.01209 6.49777 8.04085 6.21731 7.98481C5.93684 7.92878 5.67921 7.79047 5.47701 7.58737C5.2748 7.38427 5.1371 7.12551 5.08131 6.8438C5.02552 6.5621 5.05416 6.2701 5.16359 6.00474C5.27302 5.73938 5.45834 5.51257 5.69611 5.353C5.93388 5.19342 6.21342 5.10825 6.49938 5.10825C6.88284 5.10825 7.2506 5.26125 7.52175 5.5336C7.79289 5.80595 7.94522 6.17533 7.94522 6.56048Z" fill="#2D2627"/>
</svg>
