<svg width="14" height="14" viewBox="0 0 14 14" fill="none" xmlns="http://www.w3.org/2000/svg">
<path d="M7 0C5.61553 0 4.26215 0.410543 3.11101 1.17971C1.95987 1.94888 1.06266 3.04213 0.532846 4.32122C0.00303301 5.6003 -0.13559 7.00776 0.134506 8.36563C0.404603 9.7235 1.07129 10.9708 2.05026 11.9497C3.02922 12.9287 4.2765 13.5954 5.63437 13.8655C6.99224 14.1356 8.3997 13.997 9.67879 13.4672C10.9579 12.9373 12.0511 12.0401 12.8203 10.889C13.5895 9.73785 14 8.38447 14 7C13.9978 5.14416 13.2596 3.36495 11.9473 2.05267C10.635 0.74039 8.85584 0.00218939 7 0ZM7 12.7273C5.86725 12.7273 4.75994 12.3914 3.8181 11.7621C2.87626 11.1327 2.14218 10.2383 1.70869 9.19173C1.27521 8.14521 1.16179 6.99365 1.38278 5.88266C1.60377 4.77168 2.14924 3.75118 2.95021 2.95021C3.75118 2.14923 4.77168 1.60376 5.88267 1.38277C6.99365 1.16179 8.14521 1.27521 9.19173 1.70869C10.2383 2.14217 11.1327 2.87625 11.7621 3.8181C12.3914 4.75994 12.7273 5.86725 12.7273 7C12.7256 8.51845 12.1216 9.97422 11.0479 11.0479C9.97423 12.1216 8.51845 12.7256 7 12.7273ZM10.1818 7C10.1818 7.16877 10.1148 7.33063 9.99543 7.44998C9.87609 7.56932 9.71423 7.63636 9.54546 7.63636H4.45455C4.28577 7.63636 4.12391 7.56932 4.00457 7.44998C3.88523 7.33063 3.81818 7.16877 3.81818 7C3.81818 6.83122 3.88523 6.66936 4.00457 6.55002C4.12391 6.43068 4.28577 6.36364 4.45455 6.36364H9.54546C9.71423 6.36364 9.87609 6.43068 9.99543 6.55002C10.1148 6.66936 10.1818 6.83122 10.1818 7Z" fill="#2E2D30"/>
</svg>
