<?xml version="1.0" encoding="UTF-8" standalone="no"?>
<!DOCTYPE svg PUBLIC "-//W3C//DTD SVG 1.1//EN" "http://www.w3.org/Graphics/SVG/1.1/DTD/svg11.dtd">
<svg width="100%" height="100%" viewBox="0 0 1080 1080" version="1.1" xmlns="http://www.w3.org/2000/svg" xmlns:xlink="http://www.w3.org/1999/xlink" xml:space="preserve" xmlns:serif="http://www.serif.com/" style="fill-rule:evenodd;clip-rule:evenodd;stroke-linejoin:round;stroke-miterlimit:2;">
    <g transform="matrix(1,0,0,1,0,-3912.68)">
        <g id="Artboard1" transform="matrix(1,0,0,1,0,3912.68)">
            <rect x="0" y="0" width="1080" height="1080" style="fill:none;"/>
            <g transform="matrix(1,0,0,1,15,0)">
                <g transform="matrix(1.96698,0,0,0.73065,-1349.92,491.006)">
                    <ellipse cx="953.201" cy="693.822" rx="175.524" ry="25.27" style="fill:rgb(241,247,253);"/>
                </g>
                <g transform="matrix(0.487583,0,0,0.487583,-981.056,-1685.93)">
                    <g transform="matrix(4.16667,0,0,4.16667,1240.27,3695.13)">
                        <path d="M460.375,402.865L458.752,423.394C458.752,423.394 438.468,429.913 438.35,433.713L478.03,434.235L479.203,402.823L460.375,402.865Z" style="fill:rgb(240,82,95);fill-rule:nonzero;"/>
                    </g>
                    <g transform="matrix(4.16667,0,0,4.16667,1240.27,3695.13)">
                        <path d="M470.98,421.305C471.755,421.492 472.312,422.34 472.157,423.122C472.002,423.903 471.145,424.477 470.366,424.305C469.588,424.131 468.889,423.133 469.13,422.374C469.371,421.614 470.415,420.995 471.129,421.351" style="fill:rgb(236,237,237);fill-rule:nonzero;"/>
                    </g>
                    <g transform="matrix(4.16667,0,0,4.16667,1240.27,3695.13)">
                        <path d="M478.03,434.235L477.95,431.052L440.372,431.282C440.372,431.282 438.217,432.564 438.274,433.804L478.03,434.235Z" style="fill:rgb(219,235,250);fill-rule:nonzero;"/>
                    </g>
                    <g transform="matrix(4.16667,0,0,4.16667,1240.27,3695.13)">
                        <path d="M458.103,423.212C458.114,423.406 459.087,423.465 460.06,424.06C461.048,424.629 461.565,425.454 461.741,425.372C461.919,425.329 461.595,424.179 460.404,423.478C459.221,422.769 458.055,423.036 458.103,423.212Z" style="fill:rgb(24,46,53);fill-rule:nonzero;"/>
                    </g>
                    <g transform="matrix(4.16667,0,0,4.16667,1240.27,3695.13)">
                        <path d="M453.989,425.061C453.95,425.25 454.801,425.554 455.483,426.354C456.19,427.135 456.383,428.017 456.576,428.002C456.759,428.027 456.859,426.888 455.99,425.909C455.131,424.922 453.987,424.875 453.989,425.061Z" style="fill:rgb(24,46,53);fill-rule:nonzero;"/>
                    </g>
                    <g transform="matrix(4.16667,0,0,4.16667,1240.27,3695.13)">
                        <path d="M451.773,430.116C451.951,430.152 452.191,429.176 451.662,428.129C451.14,427.078 450.212,426.686 450.135,426.851C450.03,427.014 450.637,427.565 451.059,428.432C451.5,429.287 451.58,430.103 451.773,430.116Z" style="fill:rgb(24,46,53);fill-rule:nonzero;"/>
                    </g>
                    <g transform="matrix(4.16667,0,0,4.16667,1240.27,3695.13)">
                        <path d="M458.312,418.521C458.398,418.696 459.279,418.401 460.378,418.443C461.477,418.462 462.341,418.805 462.437,418.636C462.545,418.492 461.69,417.799 460.397,417.769C459.103,417.727 458.212,418.372 458.312,418.521Z" style="fill:rgb(24,46,53);fill-rule:nonzero;"/>
                    </g>
                    <g transform="matrix(4.16667,0,0,4.16667,1240.27,3695.13)">
                        <path d="M458.115,414.394C458.115,414.475 458.885,414.571 460.104,414.324C460.71,414.2 461.422,413.979 462.165,413.623C462.536,413.443 462.915,413.231 463.289,412.982C463.469,412.859 463.682,412.734 463.875,412.496C464.084,412.288 464.19,411.769 463.934,411.462C463.721,411.163 463.357,411.042 463.07,411.044C462.777,411.044 462.542,411.11 462.327,411.17C461.889,411.291 461.479,411.45 461.104,411.632C460.356,411.999 459.752,412.454 459.306,412.891C458.41,413.771 458.118,414.505 458.186,414.541C458.275,414.602 458.705,413.981 459.621,413.249C460.078,412.885 460.665,412.504 461.365,412.196C461.716,412.044 462.095,411.911 462.496,411.81C462.914,411.686 463.272,411.673 463.385,411.856C463.426,411.927 463.433,411.955 463.348,412.081C463.261,412.197 463.094,412.313 462.917,412.436C462.572,412.675 462.225,412.885 461.884,413.067C461.201,413.432 460.546,413.686 459.983,413.862C458.856,414.214 458.108,414.29 458.115,414.394Z" style="fill:rgb(24,46,53);fill-rule:nonzero;"/>
                    </g>
                    <g transform="matrix(4.16667,0,0,4.16667,1240.27,3695.13)">
                        <path d="M458.376,414.665C458.445,414.692 458.81,413.986 458.843,412.728C458.857,412.104 458.77,411.352 458.506,410.559C458.372,410.164 458.193,409.761 457.963,409.367C457.719,408.981 457.419,408.465 456.664,408.4C456.271,408.397 455.953,408.715 455.85,408.98C455.727,409.253 455.708,409.484 455.668,409.716C455.608,410.182 455.631,410.637 455.707,411.056C455.857,411.896 456.225,412.59 456.618,413.084C457.425,414.09 458.241,414.297 458.256,414.231C458.317,414.132 457.63,413.777 457.007,412.807C456.699,412.328 456.42,411.692 456.321,410.957C456.272,410.59 456.266,410.2 456.323,409.807C456.373,409.383 456.521,409.037 456.68,409.076C456.877,409.066 457.223,409.374 457.396,409.706C457.61,410.056 457.783,410.415 457.92,410.769C458.19,411.479 458.32,412.163 458.365,412.742C458.455,413.906 458.27,414.639 458.376,414.665Z" style="fill:rgb(24,46,53);fill-rule:nonzero;"/>
                    </g>
                    <g transform="matrix(1,0,0,1,0,17.4916)">
                        <g transform="matrix(-4.16667,0,0,4.16667,5454.65,3677.64)">
                            <path d="M460.375,402.865L458.752,423.394C458.752,423.394 438.468,429.913 438.35,433.713L478.03,434.235L479.203,402.823L460.375,402.865Z" style="fill:rgb(240,82,95);fill-rule:nonzero;"/>
                        </g>
                        <g transform="matrix(-4.16667,0,0,4.16667,5454.65,3677.64)">
                            <path d="M470.98,421.305C471.755,421.492 472.312,422.34 472.157,423.122C472.002,423.903 471.145,424.477 470.366,424.305C469.588,424.131 468.889,423.133 469.13,422.374C469.371,421.614 470.415,420.995 471.129,421.351" style="fill:rgb(236,237,237);fill-rule:nonzero;"/>
                        </g>
                        <g transform="matrix(-4.16667,0,0,4.16667,5454.65,3677.64)">
                            <path d="M478.03,434.235L477.95,431.052L440.372,431.282C440.372,431.282 438.217,432.564 438.274,433.804L478.03,434.235Z" style="fill:rgb(219,235,250);fill-rule:nonzero;"/>
                        </g>
                        <g transform="matrix(-4.16667,0,0,4.16667,5454.65,3677.64)">
                            <path d="M458.103,423.212C458.114,423.406 459.087,423.465 460.06,424.06C461.048,424.629 461.565,425.454 461.741,425.372C461.919,425.329 461.595,424.179 460.404,423.478C459.221,422.769 458.055,423.036 458.103,423.212Z" style="fill:rgb(24,46,53);fill-rule:nonzero;"/>
                        </g>
                        <g transform="matrix(-4.16667,0,0,4.16667,5454.65,3677.64)">
                            <path d="M453.989,425.061C453.95,425.25 454.801,425.554 455.483,426.354C456.19,427.135 456.383,428.017 456.576,428.002C456.759,428.027 456.859,426.888 455.99,425.909C455.131,424.922 453.987,424.875 453.989,425.061Z" style="fill:rgb(24,46,53);fill-rule:nonzero;"/>
                        </g>
                        <g transform="matrix(-4.16667,0,0,4.16667,5454.65,3677.64)">
                            <path d="M451.773,430.116C451.951,430.152 452.191,429.176 451.662,428.129C451.14,427.078 450.212,426.686 450.135,426.851C450.03,427.014 450.637,427.565 451.059,428.432C451.5,429.287 451.58,430.103 451.773,430.116Z" style="fill:rgb(24,46,53);fill-rule:nonzero;"/>
                        </g>
                        <g transform="matrix(-4.16667,0,0,4.16667,5454.65,3677.64)">
                            <path d="M458.312,418.521C458.398,418.696 459.279,418.401 460.378,418.443C461.477,418.462 462.341,418.805 462.437,418.636C462.545,418.492 461.69,417.799 460.397,417.769C459.103,417.727 458.212,418.372 458.312,418.521Z" style="fill:rgb(24,46,53);fill-rule:nonzero;"/>
                        </g>
                        <g transform="matrix(-4.16667,0,0,4.16667,5454.65,3677.64)">
                            <path d="M458.115,414.394C458.115,414.475 458.885,414.571 460.104,414.324C460.71,414.2 461.422,413.979 462.165,413.623C462.536,413.443 462.915,413.231 463.289,412.982C463.469,412.859 463.682,412.734 463.875,412.496C464.084,412.288 464.19,411.769 463.934,411.462C463.721,411.163 463.357,411.042 463.07,411.044C462.777,411.044 462.542,411.11 462.327,411.17C461.889,411.291 461.479,411.45 461.104,411.632C460.356,411.999 459.752,412.454 459.306,412.891C458.41,413.771 458.118,414.505 458.186,414.541C458.275,414.602 458.705,413.981 459.621,413.249C460.078,412.885 460.665,412.504 461.365,412.196C461.716,412.044 462.095,411.911 462.496,411.81C462.914,411.686 463.272,411.673 463.385,411.856C463.426,411.927 463.433,411.955 463.348,412.081C463.261,412.197 463.094,412.313 462.917,412.436C462.572,412.675 462.225,412.885 461.884,413.067C461.201,413.432 460.546,413.686 459.983,413.862C458.856,414.214 458.108,414.29 458.115,414.394Z" style="fill:rgb(24,46,53);fill-rule:nonzero;"/>
                        </g>
                        <g transform="matrix(-4.16667,0,0,4.16667,5454.65,3677.64)">
                            <path d="M458.376,414.665C458.445,414.692 458.81,413.986 458.843,412.728C458.857,412.104 458.77,411.352 458.506,410.559C458.372,410.164 458.193,409.761 457.963,409.367C457.719,408.981 457.419,408.465 456.664,408.4C456.271,408.397 455.953,408.715 455.85,408.98C455.727,409.253 455.708,409.484 455.668,409.716C455.608,410.182 455.631,410.637 455.707,411.056C455.857,411.896 456.225,412.59 456.618,413.084C457.425,414.09 458.241,414.297 458.256,414.231C458.317,414.132 457.63,413.777 457.007,412.807C456.699,412.328 456.42,411.692 456.321,410.957C456.272,410.59 456.266,410.2 456.323,409.807C456.373,409.383 456.521,409.037 456.68,409.076C456.877,409.066 457.223,409.374 457.396,409.706C457.61,410.056 457.783,410.415 457.92,410.769C458.19,411.479 458.32,412.163 458.365,412.742C458.455,413.906 458.27,414.639 458.376,414.665Z" style="fill:rgb(24,46,53);fill-rule:nonzero;"/>
                        </g>
                    </g>
                    <g transform="matrix(4.16667,0,0,4.16667,1240.27,3695.13)">
                        <path d="M460.104,214.206C459.852,214.197 456.81,415.353 456.81,415.353L481.116,414.514L489.529,315.619L491.551,243.019L508.091,310.165L528.719,415.556L552.992,409.462L522.099,212.896L493.015,207.27L460.104,214.206Z" style="fill:rgb(24,46,53);fill-rule:nonzero;"/>
                    </g>
                    <g transform="matrix(4.16667,0,0,4.16667,1240.27,3695.13)">
                        <path d="M512.938,89.927C515.844,84.181 516.763,73.868 513.427,68.154C510.089,62.439 503.342,58.319 496.996,56.439C495.937,56.125 494.788,55.881 493.738,56.231C492.69,56.582 491.839,57.738 492.196,58.784C490.962,57.875 489.698,56.952 488.235,56.496C486.772,56.04 485.047,56.13 483.87,57.112C482.693,58.094 482.367,60.093 483.452,61.175C481.703,60.381 479.496,60.726 478.072,62.016C476.648,63.305 476.088,65.466 476.706,67.286C477.297,69.028 478.685,71.028 479.942,72.372C481.199,73.714 481.324,75.018 480.962,76.822" style="fill:rgb(24,46,53);fill-rule:nonzero;"/>
                    </g>
                    <g transform="matrix(4.16667,0,0,4.16667,1240.27,3695.13)">
                        <path d="M488.973,137.232C489.149,134.476 489.596,109.535 489.592,109.421C489.592,109.421 480.333,108.275 479.933,99.067C479.739,94.619 480.087,85.426 480.498,77.111C480.939,68.174 488.173,61.077 497.117,60.798L498.006,60.77C507.607,61.032 512.75,69.333 512.223,78.924L510.908,132.293L488.973,137.232Z" style="fill:rgb(250,186,160);fill-rule:nonzero;"/>
                    </g>
                    <g transform="matrix(4.16667,0,0,4.16667,1240.27,3695.13)">
                        <path d="M489.592,109.421C489.592,109.421 495.409,109.582 501.476,105.502C501.476,105.502 498.71,111.265 489.492,110.721L489.592,109.421Z" style="fill:rgb(247,152,110);fill-rule:nonzero;"/>
                    </g>
                    <g transform="matrix(4.16667,0,0,4.16667,1240.27,3695.13)">
                        <path d="M511.683,85.769C511.837,85.696 517.953,83.7 517.948,90.004C517.943,96.309 511.615,95.002 511.605,94.822C511.594,94.641 511.683,85.769 511.683,85.769Z" style="fill:rgb(250,186,160);fill-rule:nonzero;"/>
                    </g>
                    <g transform="matrix(4.16667,0,0,4.16667,1240.27,3695.13)">
                        <path d="M513.531,92.435C513.56,92.415 513.642,92.512 513.827,92.597C514.008,92.68 514.318,92.738 514.648,92.615C515.315,92.371 515.875,91.314 515.906,90.178C515.924,89.604 515.805,89.058 515.602,88.605C515.409,88.143 515.111,87.821 514.776,87.762C514.442,87.684 514.205,87.885 514.128,88.062C514.043,88.238 514.083,88.364 514.05,88.375C514.031,88.391 513.914,88.269 513.966,88.009C513.991,87.884 514.065,87.735 514.214,87.614C514.365,87.491 514.588,87.429 514.82,87.454C515.307,87.488 515.744,87.935 515.968,88.432C516.218,88.931 516.365,89.545 516.347,90.19C516.306,91.46 515.654,92.648 514.742,92.911C514.299,93.026 513.929,92.892 513.737,92.743C513.543,92.587 513.51,92.446 513.531,92.435Z" style="fill:rgb(247,152,110);fill-rule:nonzero;"/>
                    </g>
                    <g transform="matrix(4.16667,0,0,4.16667,1240.27,3695.13)">
                        <path d="M476.478,65.203C475.74,73.377 485.807,76.789 490.225,72.219C492.269,70.105 494.051,67.464 496.832,66.512C498.704,65.871 500.817,66.214 502.578,67.117L502.632,67.144C505.228,68.494 506.762,71.502 507.164,74.4C507.726,78.442 507.078,82.006 508.128,85.717C508.278,86.249 508.456,86.823 508.906,87.147C509.669,87.697 510.771,87.214 511.398,86.515C512.404,85.394 512.76,83.844 512.979,82.355C513.479,78.962 513.456,75.462 512.601,72.141C511.746,68.82 510.028,65.681 507.477,63.389C504.288,60.525 499.899,59.124 495.618,59.324C491.337,59.523 487.189,61.262 483.85,63.95C482.301,65.197 480.885,66.689 480.12,68.525" style="fill:rgb(24,46,53);fill-rule:nonzero;"/>
                    </g>
                    <g transform="matrix(4.16667,0,0,4.16667,1240.27,3695.13)">
                        <path d="M432.477,139.466L389.122,135.353L382.258,133.705C382.258,133.705 366.579,130.9 365.108,130.439C363.406,129.906 362.74,130.598 362.587,131.238C362.348,132.236 363.335,133.304 364.781,133.807C365.28,133.98 373.273,136.402 373.273,136.402C373.273,136.402 372.5,136.561 370.64,137.275C368.779,137.989 367.064,140.492 366.27,143.362C365.475,146.231 365.506,147.105 366.607,147.466C367.048,147.611 367.483,147.472 367.853,147.243C368.458,146.868 368.884,146.254 369.083,145.571C370.418,140.992 373.233,140.525 373.233,140.525L374.131,140.741C374.131,140.741 371.293,142.892 371.441,145.354C371.464,145.756 371.566,146.101 371.709,146.403C371.344,147.616 371.634,149.009 372.473,149.96C373.345,150.951 374.769,151.421 376.059,151.145C376.676,151.013 377.333,150.62 377.398,149.993C377.432,149.662 377.291,149.341 377.16,149.035C377.091,148.874 377.025,148.707 376.986,148.536L379.586,148.788C379.586,148.788 385.458,149.041 388,149.441L428.865,160.018C434.531,161.484 440.299,158.02 441.665,152.329C443.15,146.139 438.814,140.067 432.477,139.466Z" style="fill:rgb(250,186,160);fill-rule:nonzero;"/>
                    </g>
                    <g transform="matrix(4.16667,0,-1.11022e-16,4.16667,1243.09,3698.39)">
                        <path d="M383.614,144.519C383.585,144.512 383.616,144.207 383.862,143.761C384.103,143.321 384.597,142.743 385.384,142.415L385.378,142.707C385.055,142.568 384.712,142.398 384.37,142.199C382.463,141.097 381.48,139.552 381.557,139.519C381.632,139.451 382.699,140.855 384.537,141.914C384.867,142.106 385.196,142.274 385.506,142.416L385.849,142.574L385.5,142.709C384.787,142.985 384.302,143.482 384.03,143.867C383.754,144.256 383.655,144.533 383.614,144.519Z" style="fill:rgb(247,152,110);fill-rule:nonzero;"/>
                    </g>
                    <g transform="matrix(2.37898,-0.0934825,0.0934825,2.37898,1165.31,3296.53)">
                        <g transform="matrix(1,6.93889e-18,8.7925e-18,1.30037,-636.033,-110.065)">
                            <rect x="1306.9" y="324.68" width="15.197" height="364.861" style="fill:rgb(204,204,204);"/>
                        </g>
                        <g transform="matrix(0.611967,-3.46945e-18,-2.54783e-17,0.611967,252.136,128.499)">
                            <g transform="matrix(0.628538,0,0,0.628538,-123.858,79.239)">
                                <circle cx="1305.34" cy="178.602" r="209.21" style="fill:rgb(235,21,37);"/>
                            </g>
                            <g transform="matrix(0.560924,0,0,0.560924,-35.5994,91.315)">
                                <circle cx="1305.34" cy="178.602" r="209.21" style="fill:rgb(241,91,102);"/>
                            </g>
                            <g transform="matrix(1.07955,0,0,1.24234,-1602.3,179.343)">
                                <rect x="2061.64" y="-4.081" width="135.692" height="27.728" style="fill:white;"/>
                            </g>
                        </g>
                    </g>
                    <g transform="matrix(4.16667,0,0,4.16667,1242.8,3695.44)">
                        <path d="M388.165,136.491C388.134,137.398 387.255,138.064 386.374,138.285C385.494,138.505 384.566,138.421 383.672,138.578C380.999,139.045 379.006,141.571 376.314,141.91C375.939,141.957 375.46,141.898 375.334,141.541C375.218,141.211 375.494,140.883 375.747,140.641C377.912,138.57 380.078,136.499 382.243,134.429" style="fill:rgb(250,186,160);fill-rule:nonzero;"/>
                    </g>
                    <g transform="matrix(4.16667,0,0,4.16667,1242.8,3695.44)">
                        <path d="M382.243,134.429C382.219,134.403 381.945,134.618 381.472,135.028C380.998,135.439 380.324,136.045 379.5,136.801C378.648,137.594 377.679,138.495 376.621,139.478C376.351,139.733 376.075,139.993 375.794,140.257C375.551,140.524 375.114,140.765 375.057,141.385C375.043,141.696 375.291,141.992 375.546,142.08C375.799,142.182 376.041,142.189 376.276,142.171C376.72,142.111 377.148,142.019 377.565,141.862C379.239,141.244 380.506,140.167 381.794,139.505C382.432,139.164 383.068,138.909 383.69,138.791C384.31,138.672 384.924,138.667 385.49,138.604C386.638,138.532 387.55,138.002 387.905,137.446C388.284,136.885 388.182,136.477 388.165,136.491C388.114,136.48 388.134,136.862 387.748,137.324C387.366,137.792 386.562,138.214 385.459,138.244C384.911,138.283 384.293,138.263 383.614,138.373C382.937,138.482 382.247,138.742 381.576,139.085C380.226,139.757 378.943,140.814 377.393,141.379C377.011,141.524 376.608,141.608 376.23,141.663C375.858,141.704 375.533,141.582 375.559,141.382C375.554,141.161 375.852,140.874 376.132,140.611C376.409,140.342 376.681,140.078 376.947,139.82C377.977,138.807 378.92,137.88 379.75,137.063C380.543,136.273 381.179,135.627 381.609,135.173C382.041,134.718 382.268,134.455 382.243,134.429Z" style="fill:rgb(247,152,110);fill-rule:nonzero;"/>
                    </g>
                    <g transform="matrix(4.16667,0,0,4.16667,1240.27,3695.13)">
                        <path d="M433.253,160.661L461.529,154.134C461.529,154.134 460.066,205.973 460.071,206.464C460.076,206.955 457.737,207.769 457.937,211.53L459.97,216.006L521.974,216.838L523.646,166.491L529.305,127.452L516.297,119.404L511.719,113.192L493.835,132.056L489.388,115.958L489.515,111.167L485.095,115.964L461.248,122.841L429.743,137.531L408.441,135.903L402.911,154.541L433.253,160.661Z" style="fill:rgb(240,82,95);fill-rule:nonzero;"/>
                    </g>
                    <g transform="matrix(4.16667,0,0,4.16667,1240.27,3695.13)">
                        <path d="M528.149,126.737C528.149,126.737 535.963,133.438 536.476,137.232C536.872,140.166 544.556,167.716 548.018,180.05C549.097,183.893 548.866,187.983 547.364,191.682L537.381,216.384L521.228,206.828L529.305,183.66L522.616,164.002L528.149,126.737Z" style="fill:rgb(240,82,95);fill-rule:nonzero;"/>
                    </g>
                    <g transform="matrix(4.16667,0,0,4.16667,1240.27,3695.13)">
                        <path d="M493.151,129.579L493.114,129.445C493.126,129.489 493.138,129.534 493.151,129.579Z" style="fill:rgb(195,135,110);fill-rule:nonzero;"/>
                    </g>
                    <g transform="matrix(4.16667,0,0,4.16667,1240.27,3695.13)">
                        <path d="M518.129,236.521C514.638,234.239 513.112,232.046 511.69,229.885L511.697,229.668C511.652,229.588 511.562,229.546 511.452,229.519C510.663,228.29 510.041,227.172 509.567,226.216C511.574,224.91 514.195,222.936 511.345,222.53C507.835,222.03 505.325,220.324 504.967,219.391C504.609,218.456 505.779,217.618 506.704,218.215C507.451,218.697 508.947,219.113 510.083,219.381C511.02,219.602 511.987,219.668 512.943,219.562C513.538,219.496 515.63,218.062 517.867,217.011C518.185,216.862 518.542,216.819 518.887,216.876L519.742,216.817C520.664,216.754 521.487,216.214 521.914,215.394L525.157,209.152L534.957,214.949L527.201,225.716C527.201,225.716 521.857,232.817 518.129,236.521Z" style="fill:rgb(250,186,160);fill-rule:nonzero;"/>
                    </g>
                    <g transform="matrix(0.894842,0.113134,-0.0930301,0.735831,695.923,824.82)">
                        <ellipse cx="2802.25" cy="4316.29" rx="12.061" ry="10.407" style="fill:rgb(250,186,160);"/>
                    </g>
                    <path d="M2800.16,4298.21L2802.25,4300.55L2805.32,4301.53L2810.69,4303.08L2812.78,4305.21L2813.36,4306.78L2813.36,4309.31L2812.36,4311.1L2810.66,4312.69L2807.19,4313.33L2799.59,4312.27L2795.15,4310.88L2793.04,4309.49L2791.11,4307.14L2800.16,4298.21Z" style="fill:rgb(250,186,160);"/>
                    <g transform="matrix(4.16667,0,0,4.16667,1240.27,3695.13)">
                        <path d="M375.441,143.005C375.459,143.023 375.331,143.161 375.118,143.412C374.92,143.656 374.593,144.073 374.677,144.619C374.717,144.883 374.91,145.11 375.211,145.238C375.505,145.374 375.869,145.416 376.265,145.484C376.65,145.55 377.131,145.668 377.453,146.062C377.761,146.45 377.844,146.988 377.705,147.473C377.564,147.97 377.186,148.343 376.776,148.552C376.36,148.76 375.917,148.85 375.484,148.795C374.669,148.666 374.003,148.39 373.454,148.128C372.911,147.857 372.504,147.565 372.269,147.313C372.033,147.061 371.968,146.874 371.983,146.869C372.008,146.853 372.108,147.009 372.357,147.22C372.607,147.43 373.014,147.68 373.553,147.916C374.091,148.142 374.769,148.39 375.52,148.493C376.219,148.567 377.152,148.179 377.387,147.382C377.501,146.992 377.429,146.555 377.2,146.265C376.97,145.973 376.585,145.854 376.208,145.784C375.83,145.709 375.437,145.656 375.093,145.485C374.746,145.334 374.472,144.994 374.446,144.654C374.383,143.969 374.798,143.548 375.024,143.325C375.273,143.093 375.428,142.991 375.441,143.005Z" style="fill:rgb(247,152,110);fill-rule:nonzero;"/>
                    </g>
                    <g transform="matrix(4.16667,0,0,4.16667,1240.27,3695.13)">
                        <path d="M376.575,148.346C376.577,148.33 376.76,148.339 377.012,148.53C377.252,148.716 377.558,149.124 377.541,149.71C377.525,150.285 377.134,150.945 376.458,151.288C375.787,151.634 374.922,151.662 374.118,151.413C373.31,151.161 372.637,150.655 372.202,150.068C371.761,149.48 371.566,148.83 371.505,148.29C371.444,147.746 371.516,147.303 371.595,147.013C371.677,146.721 371.76,146.575 371.777,146.582C371.841,146.594 371.573,147.232 371.737,148.258C371.822,148.762 372.027,149.355 372.444,149.883C372.855,150.411 373.478,150.867 374.216,151.097C374.951,151.325 375.733,151.303 376.321,151.015C376.911,150.734 377.268,150.178 377.308,149.695C377.351,149.205 377.119,148.82 376.926,148.626C376.727,148.426 376.565,148.373 376.575,148.346Z" style="fill:rgb(247,152,110);fill-rule:nonzero;"/>
                    </g>
                </g>
                <g transform="matrix(2.47533,0,0,2.19455,-370.082,-4813.52)">
                    <g transform="matrix(0.254405,0,0,0.286956,-300.775,1507.08)">
                        <g transform="matrix(1.71372,0,0,1.00641,-1195.43,-50.6466)">
                            <rect x="2343.53" y="3355.55" width="29.176" height="645.857" style="fill:rgb(215,217,217);"/>
                        </g>
                        <g transform="matrix(1.21966,0,0,1.21966,-416.701,-697.484)">
                            <circle cx="2674.87" cy="3299.21" r="32.266" style="fill:rgb(241,91,102);"/>
                        </g>
                    </g>
                    <g transform="matrix(0.254405,0,0,0.286956,-436.096,1509.2)">
                        <g transform="matrix(1.71372,0,0,1.00641,-1319.84,-58.0263)">
                            <rect x="2343.53" y="3355.55" width="29.176" height="645.857" style="fill:rgb(215,217,217);"/>
                        </g>
                        <g transform="matrix(1.21966,0,0,1.21966,-541.114,-704.864)">
                            <circle cx="2674.87" cy="3299.21" r="32.266" style="fill:rgb(241,91,102);"/>
                        </g>
                    </g>
                    <g transform="matrix(0.254405,0,0,0.286956,-436.096,1509.2)">
                        <rect x="2628.39" y="3416.66" width="833.591" height="184.711" style="fill:rgb(241,247,253);"/>
                        <g transform="matrix(1,0,-0.404369,1,1372.41,0)">
                            <rect x="2758.75" y="3416.66" width="90.309" height="184.711" style="fill:rgb(241,91,102);"/>
                        </g>
                        <g transform="matrix(1,0,-0.404369,1,1564.28,2.27374e-13)">
                            <rect x="2758.75" y="3416.66" width="90.309" height="184.711" style="fill:rgb(241,91,102);"/>
                        </g>
                        <g transform="matrix(1,0,-0.400918,0.991465,1743.73,29.1601)">
                            <rect x="2758.75" y="3416.66" width="90.309" height="184.711" style="fill:rgb(241,91,102);"/>
                        </g>
                        <g transform="matrix(1,0,-0.404369,1,1948.03,6.82121e-13)">
                            <rect x="2758.75" y="3416.66" width="90.309" height="184.711" style="fill:rgb(241,91,102);"/>
                        </g>
                    </g>
                    <g transform="matrix(0.254405,0,0,0.286956,-436.096,1574.67)">
                        <rect x="2628.39" y="3416.66" width="833.591" height="184.711" style="fill:rgb(241,247,253);"/>
                    </g>
                    <g transform="matrix(0.254405,0,-0.102874,0.286956,-86.9484,1574.67)">
                        <rect x="2758.75" y="3416.66" width="90.309" height="184.711" style="fill:rgb(241,91,102);"/>
                    </g>
                    <g transform="matrix(0.254405,0,-0.102874,0.286956,-38.1348,1574.67)">
                        <rect x="2758.75" y="3416.66" width="90.309" height="184.711" style="fill:rgb(241,91,102);"/>
                    </g>
                    <g transform="matrix(0.254405,0,-0.101996,0.284506,7.5168,1583.04)">
                        <rect x="2758.75" y="3416.66" width="90.309" height="184.711" style="fill:rgb(241,91,102);"/>
                    </g>
                    <g transform="matrix(0.254405,0,-0.102874,0.286956,59.4923,1574.67)">
                        <rect x="2758.75" y="3416.66" width="90.309" height="184.711" style="fill:rgb(241,91,102);"/>
                    </g>
                </g>
            </g>
        </g>
    </g>
</svg>
