<svg width="32" height="32" viewBox="0 0 32 32" fill="none" xmlns="http://www.w3.org/2000/svg">
<path d="M23.2006 0H7.20059C6.77624 0 6.36927 0.168571 6.06922 0.468629C5.76916 0.768687 5.60059 1.17565 5.60059 1.6V30.4C5.60059 30.8243 5.76916 31.2313 6.06922 31.5314C6.36927 31.8314 6.77624 32 7.20059 32H29.6006C30.0249 32 30.4319 31.8314 30.732 31.5314C31.032 31.2313 31.2006 30.8243 31.2006 30.4V8L24.8006 6.4L23.2006 0Z" fill="#DCDEE8"/>
<rect x="0.799805" y="9.59961" width="22.4" height="12.8" rx="1" fill="#6F697E"/>
<path d="M9.51724 16.5547C9.51724 17.1166 9.41446 17.6168 9.20889 18.0554C9.00332 18.487 8.71553 18.8262 8.34551 19.0729C7.98234 19.3127 7.56435 19.4327 7.09155 19.4327C6.65985 19.4327 6.32409 19.3504 6.08426 19.186C5.84444 19.0147 5.64915 18.8194 5.4984 18.6001V21.2211H3.70996V13.8001H5.40589L5.4984 14.5299C5.60118 14.3586 5.79304 14.177 6.07399 13.9851C6.35493 13.7864 6.7181 13.687 7.16349 13.687C7.6363 13.687 8.04743 13.807 8.3969 14.0468C8.75322 14.2866 9.02731 14.6258 9.21917 15.0643C9.41788 15.496 9.51724 15.9928 9.51724 16.5547ZM7.69797 16.5444C7.69797 16.1127 7.59861 15.753 7.3999 15.4652C7.20803 15.1774 6.93394 15.0335 6.57763 15.0335C6.22131 15.0335 5.94379 15.1774 5.74508 15.4652C5.54636 15.753 5.44701 16.1127 5.44701 16.5444C5.44701 16.9761 5.54294 17.3359 5.7348 17.6237C5.93352 17.9115 6.21103 18.0554 6.56735 18.0554C6.91681 18.0554 7.1909 17.9115 7.38962 17.6237C7.59519 17.3359 7.69797 16.9761 7.69797 16.5444Z" fill="white"/>
<path d="M14.1042 18.6001C13.9946 18.7372 13.8884 18.8605 13.7856 18.9701C13.6828 19.0729 13.5183 19.1757 13.2922 19.2785C13.0661 19.3813 12.792 19.4327 12.4699 19.4327C11.9971 19.4327 11.5792 19.3127 11.216 19.0729C10.8528 18.8262 10.5719 18.487 10.3732 18.0554C10.1744 17.6168 10.0751 17.1166 10.0751 16.5547C10.0751 15.9928 10.1744 15.496 10.3732 15.0643C10.5719 14.6258 10.8528 14.2866 11.216 14.0468C11.5792 13.807 11.9971 13.687 12.4699 13.687C12.9153 13.687 13.2717 13.783 13.5389 13.9748C13.8061 14.1667 13.9911 14.3517 14.0939 14.5299V11.7239H15.8824V19.3196H14.2584L14.1042 18.6001ZM14.1556 16.5444C14.1556 16.1127 14.0562 15.753 13.8575 15.4652C13.6588 15.1774 13.3847 15.0335 13.0353 15.0335C12.6789 15.0335 12.4014 15.1774 12.2027 15.4652C12.004 15.753 11.9046 16.1127 11.9046 16.5444C11.9046 16.9761 12.0006 17.3359 12.1924 17.6237C12.3843 17.9115 12.6584 18.0554 13.0147 18.0554C13.371 18.0554 13.6485 17.9115 13.8472 17.6237C14.0528 17.3359 14.1556 16.9761 14.1556 16.5444Z" fill="white"/>
<path d="M20.4488 12.9676C20.1815 12.8785 19.9554 12.8339 19.7704 12.8339C19.5374 12.8339 19.3695 12.899 19.2668 13.0292C19.2051 13.0909 19.1674 13.1663 19.1537 13.2554C19.14 13.3444 19.1331 13.4541 19.1331 13.5843V13.8001H20.346V15.0952H19.1331V19.3196H17.355V15.0952H16.6869V13.8001H17.355V13.3684C17.355 12.8408 17.5092 12.4228 17.8175 12.1145C18.167 11.7855 18.674 11.6211 19.3387 11.6211C19.7293 11.6211 20.0376 11.6554 20.2638 11.7239C20.4967 11.7855 20.6235 11.8198 20.6441 11.8267L20.4488 12.9676Z" fill="white"/>
<path d="M23.2002 6V0H25.2002C25.7335 0 26.3113 0.444444 26.5335 0.666667L30.5335 4.66667C31.0669 5.2 31.2002 5.77778 31.2002 6V8H25.2002C23.6002 8 23.2002 6.66667 23.2002 6Z" fill="#BDC0D4"/>
</svg>
