<svg width="15" height="16" viewBox="0 0 15 16" fill="none" xmlns="http://www.w3.org/2000/svg">
<path d="M10.9768 0.212938L2.8313 8.35847C2.75113 8.43813 2.69083 8.53555 2.6553 8.64284L1.49165 12.1338C1.45524 12.2431 1.44532 12.3595 1.46273 12.4735C1.48014 12.5874 1.52436 12.6955 1.59177 12.789C1.65917 12.8825 1.74782 12.9586 1.85041 13.0111C1.953 13.0636 2.0666 13.0909 2.18184 13.0909C2.25993 13.0908 2.3375 13.0782 2.41166 13.0538L5.9026 11.8901C6.00971 11.8542 6.10704 11.794 6.18697 11.7141L14.3325 3.56861C14.4688 3.43222 14.5454 3.24727 14.5454 3.05442C14.5454 2.86157 14.4688 2.67662 14.3325 2.54023L12.0052 0.212938C11.8688 0.0765938 11.6839 0 11.491 0C11.2982 0 11.1132 0.0765938 10.9768 0.212938V0.212938ZM5.28005 10.5643L3.33167 11.2138L3.98113 9.26539L11.491 1.7555L12.7899 3.05442L5.28005 10.5643ZM0.72728 14.5454H13.091C13.2839 14.5454 13.4689 14.6221 13.6053 14.7585C13.7417 14.8948 13.8183 15.0798 13.8183 15.2727C13.8183 15.4656 13.7417 15.6506 13.6053 15.787C13.4689 15.9234 13.2839 16 13.091 16H0.72728C0.534393 16 0.349407 15.9234 0.213015 15.787C0.0766239 15.6506 0 15.4656 0 15.2727C0 15.0798 0.0766239 14.8948 0.213015 14.7585C0.349407 14.6221 0.534393 14.5454 0.72728 14.5454V14.5454Z" fill="#2D2627"/>
</svg>
