<svg width="15" height="16" viewBox="0 0 15 16" fill="none" xmlns="http://www.w3.org/2000/svg">
  <path d="M5.79239 5.89156C5.95795 5.66407 6.05347 5.39319 6.06724 5.11218C5.78914 5.24466 5.53156 5.4165 5.30244 5.6224C5.48662 5.72907 5.65231 5.82045 5.79239 5.89156Z" fill="#2D2627"/>
  <path d="M4.30439 8.65529C4.45117 9.351 4.82548 9.978 5.36822 10.4373C5.38904 10.41 5.40987 10.3821 5.43067 10.3543C5.45994 10.3151 5.48916 10.276 5.51826 10.2386L5.51936 10.2372C5.7615 9.92284 6.12624 9.44937 6.10991 9.29778C6.03157 9.23398 5.97319 9.14905 5.94168 9.05307C5.91016 8.95709 5.90685 8.85408 5.93213 8.75627C5.97643 8.62374 6.0561 8.50584 6.16253 8.41529C6.24598 8.34565 6.31004 8.25563 6.34848 8.15396C6.13515 8.15396 5.58759 8.21973 4.30439 8.65529Z" fill="#2D2627"/>
  <path d="M5.95879 10.8356C6.41456 11.0749 6.92167 11.2 7.43648 11.2C7.93976 11.1995 8.43579 11.0801 8.88417 10.8515C9.33256 10.623 9.72062 10.2917 10.0167 9.8848C9.72901 10.0515 9.40824 10.1531 9.07702 10.1824C8.94622 10.1837 8.81698 10.1541 8.69977 10.096C7.99222 9.74222 8.18706 9.21884 8.31613 8.87289C8.43397 8.59664 8.49747 8.30028 8.50315 8C8.50315 7.92899 8.50315 7.88628 8.48287 7.85824C8.45229 7.81593 8.37558 7.80698 8.18315 7.78453C7.79802 7.73973 7.08093 7.6563 7.08093 6.57778C7.08093 6.09885 7.35044 5.47129 8.49355 4.98311C7.94763 4.78899 7.35894 4.74829 6.79151 4.86542C6.78688 5.49085 6.58066 6.20765 6.18244 6.4864C6.08478 6.55767 5.96927 6.60046 5.84875 6.61C5.72823 6.61954 5.60743 6.59546 5.49977 6.54045C5.30991 6.44551 5.08199 6.31929 4.81959 6.16427C4.45559 6.68087 4.25382 7.29424 4.24004 7.92605C6.36355 7.22212 6.69581 7.45678 6.86054 7.57312C6.92904 7.6211 6.98516 7.68521 7.0235 7.75953C7.06183 7.83385 7.08154 7.91638 7.08093 8C7.08183 8.16831 7.04739 8.33494 6.97983 8.4891C6.91228 8.64326 6.81311 8.78152 6.68875 8.89493C7.05817 9.4048 6.56217 10.0487 6.08111 10.6727C6.05761 10.7033 6.03374 10.7353 6.0098 10.7674C5.9928 10.7903 5.97577 10.8131 5.95879 10.8356Z" fill="#2D2627"/>
  <path d="M9.80662 9.1968C10.0322 9.07873 10.2662 8.97759 10.5067 8.89422C10.6915 8.26749 10.6787 7.59901 10.47 6.97983C10.2612 6.36065 9.86669 5.82086 9.34013 5.43396C8.69693 5.62596 7.79204 5.99893 7.79204 6.57778C7.79204 7.02329 7.8923 7.03502 8.26493 7.07805C8.57426 7.11396 9.21426 7.18827 9.21426 8C9.20928 8.38495 9.13058 8.76538 8.98244 9.12071C8.94565 9.20784 8.91743 9.29834 8.89817 9.39093C8.93638 9.41651 8.9763 9.43943 9.01764 9.45956C9.1445 9.52281 9.52719 9.33438 9.80662 9.1968Z" fill="#2D2627"/>
  <path fill-rule="evenodd" clip-rule="evenodd" d="M7.56951 0.0626502L14.1163 2.97232C14.2449 3.02946 14.3542 3.12269 14.4309 3.2407C14.5076 3.35871 14.5484 3.49644 14.5484 3.63718V4.14637C14.5476 6.54588 13.9056 8.90159 12.6887 10.9696C11.4717 13.0377 9.72422 14.7429 7.62698 15.9087C7.51903 15.9686 7.39762 16 7.27418 16C7.15074 16 7.02933 15.9686 6.92138 15.9087C4.82413 14.7429 3.07661 13.0377 1.8597 10.9696C0.642793 8.90159 0.000737959 6.54588 5.85751e-09 4.14637V3.63718C-1.78514e-05 3.49644 0.0407944 3.35871 0.117489 3.2407C0.194183 3.12269 0.303465 3.02946 0.432086 2.97232L6.97885 0.0626502C7.07183 0.021343 7.17244 0 7.27418 0C7.37592 0 7.47653 0.021343 7.56951 0.0626502ZM13.0048 5.6C13.0636 5.11913 13.0934 4.63373 13.0935 4.14637V4.11L7.27418 1.52331L1.45484 4.11V4.14637C1.45547 6.21722 1.99167 8.2527 3.01135 10.0551C4.03102 11.8575 5.49951 13.3656 7.27418 14.4328C9.04884 13.3656 10.5173 11.8575 11.537 10.0551C12.3167 8.67688 12.8137 7.16238 13.0048 5.6Z" fill="#2D2627"/>
</svg>
