<svg width="20" height="19" viewBox="0 0 20 19" fill="none" xmlns="http://www.w3.org/2000/svg">
  <path fill-rule="evenodd" clip-rule="evenodd" d="M6.37751 10.4486C6.35994 10.3925 6.35904 10.3325 6.37492 10.2759C6.39074 10.2193 6.42263 10.1685 6.46672 10.1297C6.51081 10.0909 6.5652 10.0657 6.62332 10.0572L8.38977 9.79939L9.28195 8.01806C9.31001 7.971 9.34981 7.93203 9.39745 7.90497C9.44509 7.87791 9.49895 7.86368 9.55374 7.86368C9.60853 7.86368 9.66238 7.87791 9.71002 7.90497C9.75767 7.93203 9.79747 7.971 9.82552 8.01806L10.7147 9.79848L12.4811 10.0563C12.5393 10.0648 12.5938 10.09 12.6379 10.1288C12.682 10.1676 12.714 10.2185 12.7298 10.2751C12.7456 10.3317 12.7446 10.3917 12.727 10.4478C12.7094 10.5039 12.6759 10.5537 12.6305 10.5911L11.1714 11.7945L11.6315 13.8564C11.6449 13.9165 11.6398 13.9793 11.6167 14.0364C11.5937 14.0935 11.5538 14.1422 11.5024 14.1762C11.451 14.2101 11.3906 14.2276 11.329 14.2263C11.2674 14.2251 11.2077 14.2052 11.1577 14.1692L9.55222 13.0153L7.94671 14.1701C7.89674 14.2061 7.83701 14.226 7.77544 14.2273C7.71388 14.2285 7.6534 14.211 7.60201 14.1771C7.55063 14.1431 7.51077 14.0944 7.48773 14.0373C7.46468 13.9802 7.45954 13.9174 7.47299 13.8573L7.93305 11.7954L6.47391 10.592C6.42858 10.5545 6.39509 10.5047 6.37751 10.4486ZM8.76859 10.3232C8.72893 10.3519 8.68294 10.3705 8.63453 10.3776L7.38887 10.5592L8.46326 11.4456C8.50646 11.4813 8.53894 11.5282 8.55711 11.5812C8.57527 11.6342 8.57842 11.6912 8.5662 11.7459L8.23945 13.2114L9.37488 12.3946C9.42654 12.3574 9.48858 12.3374 9.55222 12.3374C9.61586 12.3374 9.6779 12.3574 9.72956 12.3946L10.865 13.2114L10.5382 11.7459C10.526 11.6912 10.5292 11.6342 10.5473 11.5812C10.5655 11.5282 10.598 11.4813 10.6412 11.4456L11.715 10.5598L10.4699 10.3776C10.4215 10.3705 10.3755 10.3519 10.3359 10.3232C10.2962 10.2946 10.2641 10.2567 10.2422 10.213L9.55222 8.83281L8.86228 10.213C8.84039 10.2567 8.80824 10.2946 8.76859 10.3232Z" fill="#FF0000"/>
  <path fill-rule="evenodd" clip-rule="evenodd" d="M10.5618 4.04556H19.0909C19.332 4.04556 19.5632 4.14134 19.7337 4.31182C19.9042 4.48231 20 4.71354 20 4.95465V17.6819C20 17.923 19.9042 18.1543 19.7337 18.3247C19.5632 18.4952 19.332 18.591 19.0909 18.591H0.909091C0.667985 18.591 0.436754 18.4952 0.266267 18.3247C0.0957789 18.1543 0 17.923 0 17.6819V1.31828C0 1.07718 0.0957789 0.845947 0.266267 0.67546C0.436754 0.504972 0.667985 0.409193 0.909091 0.409193H8.18182C8.35153 0.408267 8.51811 0.454864 8.6627 0.543711C8.8073 0.632558 8.92414 0.760106 9 0.91192L10.5618 4.04556ZM7.62 2.22738H1.81818V4.04556H8.52909L7.62 2.22738ZM1.81818 16.7728H18.1818V5.86374H1.81818V16.7728Z" fill="#FF0000"/>
</svg>
