<svg width="7" height="11" viewBox="0 0 7 11" fill="none" xmlns="http://www.w3.org/2000/svg">
<path d="M4.99979 10.0123C5.19754 10.0122 5.39083 9.95357 5.55524 9.84369C5.71966 9.73381 5.84779 9.57764 5.92346 9.39494C5.99913 9.21224 6.01894 9.01121 5.98037 8.81726C5.9418 8.6233 5.8466 8.44514 5.70679 8.30529L2.41379 5.01229L5.70679 1.71929C5.8023 1.62704 5.87848 1.5167 5.93089 1.39469C5.9833 1.27269 6.01088 1.14147 6.01204 1.00869C6.01319 0.87591 5.98789 0.744231 5.93761 0.621334C5.88733 0.498438 5.81307 0.386786 5.71918 0.292893C5.62529 0.199 5.51364 0.124747 5.39074 0.0744663C5.26784 0.0241854 5.13616 -0.00111606 5.00339 3.7757e-05C4.87061 0.00119157 4.73939 0.0287779 4.61738 0.0811869C4.49538 0.133596 4.38503 0.209778 4.29279 0.305288L0.292786 4.30529C0.105315 4.49282 0 4.74712 0 5.01229C0 5.27745 0.105315 5.53176 0.292786 5.71929L4.29279 9.71929C4.48028 9.90684 4.73459 10.0122 4.99979 10.0123Z" fill="#B9B9B9"/>
</svg>
