<svg width="16" height="16" viewBox="0 0 16 16" fill="none" xmlns="http://www.w3.org/2000/svg">
  <path d="M15.2 5.6H12.8V3.2C12.7899 2.99179 12.7073 2.79367 12.5664 2.64L10.1664 0.24C10.0116 0.0960742 9.8111 0.0111268 9.6 0H4C3.78783 0 3.58434 0.0842854 3.43431 0.234315C3.28429 0.384344 3.2 0.587827 3.2 0.8V5.6H0.8C0.587827 5.6 0.384344 5.68429 0.234315 5.83431C0.0842854 5.98434 0 6.18783 0 6.4V12.8C0 13.0122 0.0842854 13.2157 0.234315 13.3657C0.384344 13.5157 0.587827 13.6 0.8 13.6H3.2V15.2C3.2 15.4122 3.28429 15.6157 3.43431 15.7657C3.58434 15.9157 3.78783 16 4 16H12C12.2122 16 12.4157 15.9157 12.5657 15.7657C12.7157 15.6157 12.8 15.4122 12.8 15.2V13.6H15.2C15.4122 13.6 15.6157 13.5157 15.7657 13.3657C15.9157 13.2157 16 13.0122 16 12.8V6.4C16 6.18783 15.9157 5.98434 15.7657 5.83431C15.6157 5.68429 15.4122 5.6 15.2 5.6ZM11.2 14.4H4.8V12H11.2V14.4ZM11.2 5.6H4.8V1.6H8.8V3.2C8.8 3.41217 8.88429 3.61566 9.03432 3.76569C9.18434 3.91571 9.38783 4 9.6 4H11.2V5.6Z" fill="#515154"/>
</svg>
