<svg width="23" height="22" viewBox="0 0 23 22" fill="none" xmlns="http://www.w3.org/2000/svg">
<path d="M6.97074 1.26317L1.97074 21.2428C1.91676 21.459 1.79196 21.651 1.6162 21.7882C1.44044 21.9254 1.2238 21.9999 1.00074 22C0.918494 21.9998 0.836572 21.9898 0.756737 21.97C0.4997 21.9056 0.27876 21.7419 0.142448 21.5149C0.00613502 21.2879 -0.0344033 21.0161 0.0297369 20.7593L5.02974 0.779667C5.05899 0.649781 5.11395 0.527047 5.19136 0.418678C5.26878 0.310309 5.3671 0.218493 5.48054 0.148623C5.59398 0.0787543 5.72026 0.0322426 5.85195 0.0118216C5.98365 -0.00859934 6.1181 -0.00251755 6.24741 0.0297096C6.37671 0.0619368 6.49827 0.119659 6.60492 0.199484C6.71158 0.27931 6.80119 0.379627 6.86849 0.494542C6.93578 0.609456 6.97941 0.736649 6.99679 0.868646C7.01418 1.00064 7.00498 1.13478 6.96974 1.26317H6.97074ZM16.9707 0.779667C16.9415 0.649781 16.8865 0.527047 16.8091 0.418678C16.7317 0.310309 16.6334 0.218493 16.5199 0.148623C16.4065 0.0787543 16.2802 0.0322426 16.1485 0.0118216C16.0168 -0.00859934 15.8824 -0.00251755 15.7531 0.0297096C15.6238 0.0619368 15.5022 0.119659 15.3955 0.199484C15.2889 0.27931 15.1993 0.379627 15.132 0.494542C15.0647 0.609456 15.0211 0.736649 15.0037 0.868646C14.9863 1.00064 14.9955 1.13478 15.0307 1.26317L20.0307 21.2428C20.0847 21.459 20.2095 21.651 20.3853 21.7882C20.561 21.9254 20.7777 21.9999 21.0007 22C21.0826 21.9998 21.1642 21.9898 21.2437 21.97C21.501 21.9058 21.7221 21.7423 21.8587 21.5152C21.9952 21.2882 22.0358 21.0163 21.9717 20.7593L16.9707 0.779667ZM11.0007 0.0224403C10.7355 0.0224403 10.4812 0.12769 10.2936 0.315035C10.1061 0.50238 10.0007 0.756474 10.0007 1.02142V5.01734C10.0007 5.28229 10.1061 5.53638 10.2936 5.72373C10.4812 5.91107 10.7355 6.01632 11.0007 6.01632C11.266 6.01632 11.5203 5.91107 11.7078 5.72373C11.8954 5.53638 12.0007 5.28229 12.0007 5.01734V1.02142C12.0007 0.756474 11.8954 0.50238 11.7078 0.315035C11.5203 0.12769 11.266 0.0224403 11.0007 0.0224403ZM11.0007 7.92637C10.7355 7.92637 10.4812 8.03162 10.2936 8.21896C10.1061 8.40631 10.0007 8.6604 10.0007 8.92535V13.0971C10.0007 13.362 10.1061 13.6161 10.2936 13.8035C10.4812 13.9908 10.7355 14.0961 11.0007 14.0961C11.266 14.0961 11.5203 13.9908 11.7078 13.8035C11.8954 13.6161 12.0007 13.362 12.0007 13.0971V8.92535C12.0007 8.6604 11.8954 8.40631 11.7078 8.21896C11.5203 8.03162 11.266 7.92637 11.0007 7.92637ZM11.0007 16.0061C10.7355 16.0061 10.4812 16.1114 10.2936 16.2987C10.1061 16.4861 10.0007 16.7402 10.0007 17.0051V21.001C10.0007 21.266 10.1061 21.5201 10.2936 21.7074C10.4812 21.8948 10.7355 22 11.0007 22C11.266 22 11.5203 21.8948 11.7078 21.7074C11.8954 21.5201 12.0007 21.266 12.0007 21.001V17.0051C12.0007 16.7402 11.8954 16.4861 11.7078 16.2987C11.5203 16.1114 11.266 16.0061 11.0007 16.0061Z" fill="#ED1C24"/>
</svg>
