<svg width="20" height="20" viewBox="0 0 20 20" fill="none" xmlns="http://www.w3.org/2000/svg">
  <path d="M2.35755 13.7406C3.74267 15.1276 5.58721 15.9603 7.54368 16.0817C9.50016 16.2031 11.4335 15.6049 12.9795 14.3997L18.299 19.7192C18.4876 19.9014 18.7403 20.0022 19.0026 20C19.2648 19.9977 19.5157 19.8925 19.7012 19.707C19.8866 19.5216 19.9918 19.2707 19.9941 19.0084C19.9964 18.7461 19.8956 18.4935 19.7134 18.3048L14.3939 12.9853C15.6525 11.3701 16.2476 9.33548 16.0577 7.29654C15.8679 5.2576 14.9073 3.36788 13.3721 2.01277C11.8368 0.657665 9.84245 -0.0607542 7.79572 0.00402942C5.74898 0.068813 3.80404 0.91192 2.35755 2.3614C1.61014 3.10843 1.01724 3.9954 0.612722 4.97164C0.208206 5.94788 0 6.99425 0 8.05098C0 9.10771 0.208206 10.1541 0.612722 11.1303C1.01724 12.1066 1.61014 12.9935 2.35755 13.7406ZM3.77194 3.7778C4.76079 2.78897 6.0619 2.17359 7.45359 2.03651C8.84528 1.89943 10.2414 2.24912 11.4042 3.02601C12.567 3.8029 13.4244 4.95892 13.8304 6.29711C14.2364 7.6353 14.1659 9.07287 13.6308 10.3649C13.0958 11.6569 12.1293 12.7234 10.896 13.3827C9.6628 14.0421 8.2391 14.2534 6.86752 13.9807C5.49593 13.7081 4.26132 12.9683 3.37403 11.8874C2.48673 10.8065 2.00166 9.45141 2.00145 8.05298C1.9987 7.25833 2.1538 6.47105 2.45772 5.73682C2.76165 5.00259 3.20836 4.33602 3.77194 3.7758V3.7778Z" fill="white"/>
</svg>
