<svg width="20" height="20" viewBox="0 0 20 20" fill="none" xmlns="http://www.w3.org/2000/svg">
<path d="M6.11852 9.5956C6.06342 9.61362 6.00672 9.6263 5.94919 9.63346C5.96621 9.7427 5.97718 9.8528 5.98206 9.96325C5.97718 10.0727 5.96621 10.1818 5.94919 10.29C6.00782 10.2986 6.06551 10.3126 6.12151 10.3319L14.8468 14.4318C14.9358 14.4789 15.0171 14.5394 15.0878 14.6111C15.6111 14.1856 16.2641 13.9519 16.9384 13.9485C17.5696 13.9409 18.1873 14.1309 18.705 14.492C19.2228 14.8531 19.6147 15.3671 19.8258 15.9622C20.0369 16.5572 20.0566 17.2033 19.8823 17.8101C19.7079 18.4169 19.3481 18.9539 18.8534 19.346C18.3586 19.738 17.7537 19.9654 17.1232 19.9964C16.4928 20.0273 15.8685 19.8602 15.3378 19.5185C14.807 19.1767 14.3965 18.6775 14.1636 18.0907C13.9307 17.5039 13.8871 16.8589 14.039 16.2461C14.025 16.2401 14.0101 16.2461 13.9951 16.2361L5.27388 12.1362C5.22656 12.107 5.1819 12.0737 5.14042 12.0366C4.72714 12.4659 4.19501 12.7618 3.61238 12.8863C3.02974 13.0108 2.4232 12.9582 1.87065 12.7353C1.31809 12.5125 0.844756 12.1295 0.511428 11.6355C0.1781 11.1416 0 10.5592 0 9.96325C0 9.36729 0.1781 8.78494 0.511428 8.29098C0.844756 7.79702 1.31809 7.41402 1.87065 7.19115C2.4232 6.96828 3.02974 6.91572 3.61238 7.04023C4.19501 7.16474 4.72714 7.46063 5.14042 7.88989C5.18173 7.85306 5.22604 7.81974 5.27289 7.79026L13.9951 3.6864C14.0091 3.67943 14.024 3.6864 14.039 3.67544C13.9823 3.45095 13.9526 3.2205 13.9503 2.98898C13.9503 2.39781 14.1256 1.81992 14.4539 1.32839C14.7822 0.836856 15.2489 0.453752 15.7949 0.227523C16.3409 0.00129508 16.9417 -0.0578966 17.5214 0.0574336C18.101 0.172764 18.6334 0.457436 19.0513 0.875452C19.4692 1.29347 19.7538 1.82605 19.8691 2.40586C19.9844 2.98566 19.9252 3.58664 19.6991 4.13281C19.4729 4.67897 19.0899 5.14578 18.5985 5.47422C18.1071 5.80265 17.5294 5.97795 16.9384 5.97795C16.2627 5.97554 15.6082 5.74171 15.0838 5.31539C15.0127 5.38668 14.9315 5.44711 14.8428 5.49473L6.11852 9.5956Z" fill="#9497AE"/>
</svg>
