<svg width="20" height="13" viewBox="0 0 20 13" fill="none" xmlns="http://www.w3.org/2000/svg">
  <path d="M19.3129 1.02629C19.1783 0.969921 19.034 0.94082 18.8881 0.940674H14.4406C14.1458 0.940674 13.863 1.05782 13.6544 1.26633C13.4459 1.47485 13.3288 1.75766 13.3288 2.05254C13.3288 2.34743 13.4459 2.63024 13.6544 2.83876C13.863 3.04727 14.1458 3.16441 14.4406 3.16441H16.2041L9.99317 9.37532L6.33178 5.71393C6.12327 5.50549 5.84052 5.38839 5.54569 5.38839C5.25086 5.38839 4.9681 5.50549 4.7596 5.71393L0.312115 10.1614C0.109579 10.3711 -0.00249127 10.652 4.20316e-05 10.9435C0.00257534 11.235 0.11951 11.5139 0.325659 11.7201C0.531809 11.9262 0.81068 12.0431 1.10221 12.0457C1.39374 12.0482 1.6746 11.9361 1.8843 11.7336L5.54569 8.07221L9.20708 11.7336C9.41558 11.942 9.69834 12.0591 9.99317 12.0591C10.288 12.0591 10.5708 11.942 10.7793 11.7336L17.7763 4.7366V6.50002C17.7763 6.79491 17.8934 7.07772 18.1019 7.28624C18.3104 7.49475 18.5932 7.61189 18.8881 7.61189C19.183 7.61189 19.4658 7.49475 19.6743 7.28624C19.8829 7.07772 20 6.79491 20 6.50002V2.05254C19.9997 1.83272 19.9343 1.6179 19.812 1.43524C19.6897 1.25257 19.516 1.11026 19.3129 1.02629Z" fill="#FF0000"/>
</svg>
