<svg width="16" height="14" viewBox="0 0 16 14" fill="none" xmlns="http://www.w3.org/2000/svg">
<path d="M15.9992 1.54431C15.4 1.80937 14.7645 1.98346 14.1138 2.06079C14.7996 1.65061 15.313 1.00507 15.5581 0.244466C14.9144 0.627512 14.2088 0.895957 13.4733 1.04117C12.9793 0.512582 12.3245 0.16202 11.6106 0.0439833C10.8968 -0.0740531 10.164 0.0470495 9.52611 0.388464C8.88822 0.729878 8.38099 1.27248 8.08329 1.9319C7.78559 2.59133 7.71409 3.33064 7.87991 4.03489C6.57465 3.96947 5.29775 3.63028 4.13209 3.03934C2.96644 2.44839 1.93809 1.61891 1.11381 0.604749C0.822049 1.10589 0.668725 1.67557 0.669545 2.25545C0.669545 3.3936 1.24882 4.3991 2.12951 4.98779C1.60833 4.97139 1.09861 4.83064 0.642857 4.57728V4.61809C0.643014 5.3761 0.905313 6.11073 1.38528 6.69742C1.86525 7.28411 2.53335 7.68675 3.27629 7.83709C2.79248 7.9682 2.28517 7.98752 1.79278 7.8936C2.00225 8.54606 2.41052 9.11668 2.96043 9.52556C3.51034 9.93443 4.17436 10.1611 4.8595 10.1738C4.17856 10.7086 3.39888 11.1039 2.56506 11.3372C1.73123 11.5705 0.859598 11.6371 0 11.5333C1.50055 12.4983 3.24733 13.0107 5.0314 13.009C11.0699 13.009 14.3721 8.00663 14.3721 3.66833C14.3721 3.52704 14.3681 3.38418 14.3619 3.24447C15.0046 2.77992 15.5593 2.20445 16 1.54509L15.9992 1.54431Z" fill="#356FDF"/>
</svg>
