<svg width="14" height="14" viewBox="0 0 14 14" fill="none" xmlns="http://www.w3.org/2000/svg">
<path d="M7.27946 4.26668C7.15983 4.1444 7.01362 4.08325 6.84082 4.08325C6.67068 4.08325 6.5258 4.1444 6.40617 4.26668C6.28654 4.38631 6.22673 4.5312 6.22673 4.70133C6.22673 4.87147 6.28654 5.01636 6.40617 5.13599C6.5258 5.25562 6.67068 5.31543 6.84082 5.31543C7.01096 5.31543 7.15584 5.25562 7.27547 5.13599C7.39776 5.01636 7.4589 4.87147 7.4589 4.70133C7.4589 4.5312 7.39909 4.38631 7.27946 4.26668Z" fill="#007AFF"/>
<path d="M7.39909 8.84448V5.88965H5.83594V6.03719C6.01139 6.04782 6.12969 6.09036 6.19084 6.16479C6.25198 6.23657 6.28255 6.40405 6.28255 6.66724V8.84448C6.28255 9.10767 6.25597 9.26983 6.2028 9.33097C6.12305 9.42136 6.00076 9.46921 5.83594 9.47453V9.61808H7.84969V9.47453C7.67158 9.46389 7.55195 9.42269 7.4908 9.35091C7.42966 9.27648 7.39909 9.10767 7.39909 8.84448Z" fill="#007AFF"/>
<path fill-rule="evenodd" clip-rule="evenodd" d="M14 7C14 10.866 10.866 14 7 14C3.13401 14 0 10.866 0 7C0 3.13401 3.13401 0 7 0C10.866 0 14 3.13401 14 7ZM13.5625 7C13.5625 10.6244 10.6244 13.5625 7 13.5625C3.37563 13.5625 0.4375 10.6244 0.4375 7C0.4375 3.37563 3.37563 0.4375 7 0.4375C10.6244 0.4375 13.5625 3.37563 13.5625 7Z" fill="#007AFF"/>
</svg>
