<svg width="20" height="17" viewBox="0 0 20 17" fill="none" xmlns="http://www.w3.org/2000/svg">
<path d="M0.0622299 8.846C1.77323 13.5 5.67523 16.5 10.0002 16.5C14.3252 16.5 18.2272 13.5 19.9382 8.846C20.0212 8.6228 20.0212 8.37721 19.9382 8.154C18.2272 3.5 14.3252 0.5 10.0002 0.5C5.67523 0.5 1.77323 3.5 0.0622299 8.154C-0.0207433 8.37721 -0.0207433 8.6228 0.0622299 8.846ZM10.0002 2.5C13.3732 2.5 16.4512 4.843 17.9292 8.5C16.4512 12.157 13.3732 14.5 10.0002 14.5C6.62723 14.5 3.54923 12.157 2.07123 8.5C3.54923 4.843 6.62723 2.5 10.0002 2.5ZM10.0002 12.5C10.7914 12.5 11.5647 12.2654 12.2225 11.8259C12.8803 11.3864 13.393 10.7616 13.6957 10.0307C13.9985 9.29983 14.0777 8.49556 13.9234 7.71964C13.769 6.94371 13.3881 6.23098 12.8287 5.67157C12.2692 5.11216 11.5565 4.7312 10.7806 4.57686C10.0047 4.42252 9.2004 4.50173 8.4695 4.80448C7.73859 5.10723 7.11388 5.61992 6.67435 6.27772C6.23483 6.93552 6.00023 7.70887 6.00023 8.5C6.00023 9.56087 6.42166 10.5783 7.1718 11.3284C7.92195 12.0786 8.93936 12.5 10.0002 12.5ZM10.0002 6.5C10.3958 6.5 10.7825 6.6173 11.1114 6.83706C11.4403 7.05682 11.6966 7.36918 11.848 7.73463C11.9994 8.10009 12.039 8.50222 11.9618 8.89018C11.8846 9.27814 11.6941 9.63451 11.4144 9.91421C11.1347 10.1939 10.7784 10.3844 10.3904 10.4616C10.0024 10.5387 9.60032 10.4991 9.23486 10.3478C8.86941 10.1964 8.55705 9.94004 8.33729 9.61114C8.11753 9.28224 8.00023 8.89556 8.00023 8.5C8.00023 7.96957 8.21094 7.46086 8.58602 7.08579C8.96109 6.71071 9.4698 6.5 10.0002 6.5Z" fill="#858A8F"/>
</svg>
