<svg width="20" height="20" viewBox="0 0 20 20" fill="none" xmlns="http://www.w3.org/2000/svg">
<path d="M10 0C8.02219 0 6.08879 0.58649 4.4443 1.6853C2.79981 2.78412 1.51809 4.3459 0.761209 6.17317C0.00433284 8.00043 -0.193701 10.0111 0.192152 11.9509C0.578004 13.8907 1.53041 15.6725 2.92894 17.0711C4.32746 18.4696 6.10929 19.422 8.0491 19.8079C9.98891 20.1937 11.9996 19.9957 13.8268 19.2388C15.6541 18.4819 17.2159 17.2002 18.3147 15.5557C19.4135 13.9112 20 11.9778 20 10C20 8.68678 19.7413 7.38642 19.2388 6.17317C18.7363 4.95991 17.9997 3.85752 17.0711 2.92893C16.1425 2.00035 15.0401 1.26375 13.8268 0.761205C12.6136 0.258658 11.3132 0 10 0ZM7.054 2.569C6.742 4.176 5.939 5.469 5 5C4.735 4.867 4.449 4.713 4.158 4.552C4.96534 3.68559 5.95429 3.00842 7.054 2.569ZM7 13C7.756 13.756 6.8 15.083 5.583 16.664C4.55686 15.9824 3.70198 15.0731 3.085 14.0068C2.46802 12.9406 2.1056 11.7463 2.026 10.517C4.805 9.637 8 8.869 8 10C8 12 6 12 7 13ZM16.6 14.508C15.6 14.985 14.683 15.343 14 15C12 14 14 13 14 10C14 7 10 10 10 6C10 4.451 11.351 3.355 13 2.591C14.1077 3.03816 15.101 3.72812 15.9066 4.61006C16.7123 5.492 17.3099 6.54344 17.6553 7.68694C18.0008 8.83044 18.0853 10.0369 17.9026 11.2174C17.72 12.3979 17.2749 13.5224 16.6 14.508Z" fill="#9497AE"/>
</svg>
